# Four-material derived asset: coordinates, normals, UVs and faces preserved.
mtllib wood.mtl
o wood
v 16.658520 -10.553620 7.874447
vn 0.8898 -0.3694 0.2678
v 16.690832 -10.530645 7.798764
v 16.694017 -10.508491 7.818740
v 16.662081 -10.555098 7.875518
vn -0.8898 0.3695 -0.2678
v 16.694393 -10.532123 7.799835
v 16.658895 -10.577252 7.855542
vn 0.4440 0.5636 -0.6966
v 16.655336 -10.575775 7.854471
vn -0.4439 -0.5639 0.6964
v 16.697577 -10.509968 7.819811
vn -0.1059 -0.7386 -0.6658
vn 0.1060 0.7385 0.6659
vn 0.8899 -0.3693 0.2678
vn -0.8899 0.3693 -0.2678
vn 0.4432 0.5642 -0.6966
vn -0.4433 -0.5644 0.6964
vn -0.1063 -0.7384 -0.6660
vn 0.1062 0.7385 0.6658
v 2.436804 -17.496204 7.981486
vn 0.8262 -0.5003 0.2588
v 2.481052 -17.454023 7.921796
v 2.481826 -17.439243 7.947891
v 2.485131 -17.441246 7.948927
vn -0.8262 0.5004 -0.2589
v 2.439335 -17.512985 7.956427
v 2.440109 -17.498205 7.982522
vn 0.5627 0.7121 -0.4199
v 2.436030 -17.510983 7.955391
vn -0.5629 -0.7119 0.4199
v 2.484357 -17.456024 7.922832
vn -0.0257 -0.4927 -0.8698
vn 0.0259 0.4925 0.8699
vn 0.8262 -0.5004 0.2588
vn -0.8262 0.5003 -0.2589
vn 0.5629 0.7119 -0.4200
vn -0.5627 -0.7121 0.4199
vn -0.0259 -0.4927 -0.8698
vn 0.0258 0.4928 0.8698
v 17.014128 -13.771448 8.018401
vn -0.2138 -0.2887 0.9332
v 17.073462 -13.832691 8.013049
v 17.040741 -13.761169 8.027677
v 17.072607 -13.833845 8.016782
vn 0.2138 0.2887 -0.9332
v 17.013273 -13.772602 8.022134
v 17.039886 -13.762323 8.031410
vn 0.4090 -0.8941 -0.1826
vn -0.4090 0.8942 0.1823
v 17.045994 -13.844124 8.007506
vn -0.8872 -0.3427 -0.3088
vn 0.8871 0.3428 0.3091
v 17.046848 -13.842970 8.003773
vn 0.2138 0.2887 -0.9333
vn 0.4090 -0.8940 -0.1828
vn -0.4090 0.8941 0.1827
vn -0.8871 -0.3428 -0.3092
vn 0.8872 0.3426 0.3089
v -1.765038 12.804873 6.803412
vn 0.9231 0.3764 -0.0791
v -1.791877 12.878042 6.838426
v -1.762112 12.803967 6.833255
v -1.788184 12.879548 6.838109
vn -0.9231 -0.3764 0.0791
v -1.761346 12.806379 6.803096
v -1.758420 12.805471 6.832939
vn -0.3719 0.9260 0.0645
vn 0.3721 -0.9260 -0.0646
v -1.791111 12.880455 6.808266
vn -0.0976 0.0302 -0.9948
vn 0.0976 -0.0302 0.9948
v -1.794803 12.878950 6.808582
vn 0.9231 0.3764 -0.0790
vn -0.3721 0.9259 0.0648
vn 0.3719 -0.9260 -0.0646
v 3.706932 -15.359102 6.072312
vn -0.0542 0.7827 -0.6201
v 3.627784 -15.382275 6.049980
v 3.686703 -15.346222 6.090337
v 3.686486 -15.343091 6.087857
vn 0.0542 -0.7826 0.6201
v 3.647796 -15.392025 6.029474
v 3.706715 -15.355972 6.069831
vn -0.7367 -0.4506 -0.5043
v 3.648012 -15.395156 6.031954
vn 0.7363 0.4506 0.5048
v 3.627567 -15.379145 6.047499
vn 0.6743 -0.4293 -0.6009
vn -0.6743 0.4292 0.6009
vn -0.0542 0.7826 -0.6201
vn 0.0542 -0.7827 0.6201
vn -0.7364 -0.4506 -0.5046
vn 0.7365 0.4505 0.5046
vn 0.6743 -0.4295 -0.6006
vn -0.6743 0.4295 0.6006
v 20.762060 -1.538201 1.943028
vn -0.0237 -0.7682 0.6398
v 20.827673 -1.574405 1.901990
v 20.837563 -1.556460 1.923903
v 20.761965 -1.541273 1.945587
vn 0.0237 0.7682 -0.6398
v 20.827578 -1.577478 1.904549
v 20.752075 -1.559218 1.923674
vn 0.9438 -0.2279 -0.2393
v 20.752169 -1.556145 1.921115
vn -0.9438 0.2280 0.2393
v 20.837469 -1.559533 1.926462
vn -0.3297 -0.5979 -0.7306
vn 0.3296 0.5984 0.7302
vn 0.9437 -0.2289 -0.2389
vn -0.9437 0.2287 0.2389
vn -0.3296 -0.5984 -0.7303
vn 0.3297 0.5979 0.7306
v -12.300184 16.048965 6.293191
vn 0.6221 -0.3353 0.7075
v -12.311536 16.121191 6.337402
v -12.323258 16.046188 6.312162
v -12.320770 16.044847 6.314992
vn -0.6221 0.3353 -0.7075
v -12.285974 16.122627 6.321262
v -12.297696 16.047625 6.296022
vn 0.1464 0.9374 0.3158
vn -0.1465 -0.9374 -0.3159
v -12.309048 16.119850 6.340232
vn 0.7690 0.0925 -0.6325
vn -0.7692 -0.0924 0.6323
v -12.288462 16.123968 6.318432
vn 0.1465 0.9377 0.3150
vn -0.1465 -0.9377 -0.3149
vn 0.7692 0.0926 -0.6323
vn -0.7690 -0.0928 0.6325
v 14.031100 1.149979 5.087802
vn 0.4422 -0.8414 -0.3106
v 14.092480 1.160650 5.146271
v 14.023583 1.136526 5.113542
v 14.025352 1.133161 5.112299
vn -0.4422 0.8414 0.3106
v 14.101766 1.170738 5.119289
v 14.032869 1.146614 5.086560
vn 0.8612 0.3015 0.4091
vn -0.8612 -0.3015 -0.4092
v 14.094249 1.157285 5.145029
vn 0.2507 0.4484 -0.8580
vn -0.2506 -0.4485 0.8579
v 14.099998 1.174103 5.120532
vn 0.8613 0.3012 0.4092
vn -0.8613 -0.3013 -0.4091
vn 0.2505 0.4486 -0.8579
vn -0.2505 -0.4485 0.8580
v 3.397688 16.576036 5.738879
vn 0.0811 -0.8599 0.5039
v 3.469462 16.557829 5.696254
v 3.421604 16.586819 5.753430
v 3.469787 16.554388 5.698270
vn -0.0811 0.8599 -0.5039
v 3.398012 16.572596 5.740895
v 3.421929 16.583380 5.755446
vn 0.5979 -0.3622 -0.7150
v 3.445546 16.547045 5.681703
vn -0.5983 0.3623 0.7147
vn -0.7975 -0.3595 -0.4846
vn 0.7974 0.3595 0.4847
v 3.445870 16.543606 5.683719
vn 0.0811 -0.8599 0.5040
vn 0.5983 -0.3623 -0.7146
vn -0.5979 0.3623 0.7150
vn -0.7973 -0.3593 -0.4849
vn 0.7973 0.3593 0.4850
v -9.282582 12.473657 8.988080
vn 0.8793 0.3698 0.3001
v -9.314574 12.552791 8.984295
v -9.318899 12.540973 9.011527
v -9.279065 12.475137 8.989281
vn -0.8793 -0.3698 -0.3001
v -9.311057 12.554271 8.985496
v -9.274740 12.486955 8.962049
vn -0.4540 0.8414 0.2931
v -9.278257 12.485476 8.960848
vn 0.4538 -0.8415 -0.2931
v -9.315382 12.542452 9.012728
vn 0.1445 0.3939 -0.9077
vn -0.1438 -0.3940 0.9078
vn 0.8793 0.3698 0.3002
vn -0.8793 -0.3698 -0.3002
vn -0.4538 0.8415 0.2931
vn 0.4540 -0.8414 -0.2931
vn 0.1438 0.3940 -0.9078
vn -0.1446 -0.3940 0.9077
v 8.714038 -4.508569 7.269021
vn 0.5176 -0.5277 -0.6735
v 8.777847 -4.517584 7.325120
v 8.758252 -4.540148 7.327739
v 8.716108 -4.510679 7.266327
vn -0.5176 0.5277 0.6735
v 8.779918 -4.519694 7.322426
v 8.735703 -4.488115 7.263708
vn 0.5529 -0.3947 0.7338
v 8.733633 -4.486004 7.266402
vn -0.5528 0.3947 -0.7339
v 8.760323 -4.542259 7.325045
vn 0.6530 0.7524 -0.0871
vn -0.6533 -0.7521 0.0873
vn -0.5176 0.5276 0.6736
vn 0.5524 -0.3948 0.7342
vn -0.5525 0.3948 -0.7341
vn 0.6533 0.7521 -0.0874
vn -0.6532 -0.7522 0.0873
v -15.129707 -17.714014 7.915564
vn 0.9939 0.0777 0.0787
v -15.139063 -17.646362 7.966905
v -15.131299 -17.722691 7.944237
v -15.127323 -17.722380 7.944551
vn -0.9939 -0.0777 -0.0787
v -15.133496 -17.637375 7.938546
v -15.125732 -17.713703 7.915878
vn -0.0970 0.9541 0.2832
vn 0.0971 -0.9541 -0.2831
v -15.135088 -17.646051 7.967219
vn 0.0529 0.2894 -0.9558
vn -0.0529 -0.2891 0.9558
v -15.137472 -17.637686 7.938231
vn -0.9939 -0.0778 -0.0787
vn -0.0971 0.9541 0.2833
vn 0.0971 -0.9541 -0.2833
vn 0.0533 0.2893 -0.9558
vn -0.0530 -0.2894 0.9557
v -3.668706 15.349806 4.168233
vn 0.5185 -0.8113 -0.2702
v -3.648971 15.387156 4.093967
v -3.628277 15.393457 4.114754
v -3.626204 15.390212 4.113673
vn -0.5185 0.8113 0.2703
v -3.687325 15.340260 4.146366
v -3.666632 15.346560 4.167152
vn 0.5056 0.5457 -0.6683
v -3.689399 15.343505 4.147447
vn -0.5056 -0.5458 0.6682
v -3.646897 15.383911 4.092886
vn -0.6898 -0.2100 -0.6929
vn 0.6898 0.2101 0.6929
vn 0.5185 -0.8113 -0.2703
vn -0.5185 0.8113 0.2702
vn 0.5053 0.5456 -0.6685
vn -0.5054 -0.5456 0.6685
vn -0.6897 -0.2101 -0.6930
vn 0.6898 0.2101 0.6928
v -9.588034 -12.149126 6.674785
vn 0.2292 0.6686 0.7074
v -9.655982 -12.173939 6.720254
v -9.580646 -12.171413 6.693458
v -9.655066 -12.171265 6.723083
vn -0.2292 -0.6687 -0.7074
v -9.587117 -12.146452 6.677614
v -9.579728 -12.168739 6.696288
vn -0.9418 -0.0317 0.3348
vn 0.9418 0.0318 -0.3348
v -9.662454 -12.148977 6.704410
vn -0.2463 0.7429 -0.6225
vn 0.2463 -0.7429 0.6224
v -9.663371 -12.151651 6.701581
vn 0.2292 0.6687 0.7074
vn -0.9417 -0.0316 0.3351
vn 0.9417 0.0316 -0.3350
vn -0.2462 0.7429 -0.6225
vn 0.2463 -0.7431 0.6222
v 14.024409 -17.215937 7.218226
vn 0.4289 -0.9028 0.0313
v 14.030176 -17.216150 7.132982
v 14.054770 -17.204044 7.145173
v 14.026125 -17.219549 7.218352
vn -0.4289 0.9028 -0.0313
v 14.031892 -17.219763 7.133107
v 14.001532 -17.231655 7.206161
vn 0.3796 0.1482 -0.9132
v 13.999816 -17.228045 7.206035
vn -0.3797 -0.1488 0.9131
v 14.056485 -17.207655 7.145298
vn -0.8199 -0.4034 -0.4062
vn 0.8199 0.4035 0.4061
vn 0.4290 -0.9028 0.0313
vn -0.4290 0.9028 -0.0313
vn 0.3796 0.1489 -0.9131
vn -0.3796 -0.1485 0.9132
vn -0.8194 -0.4044 -0.4063
vn 0.8198 0.4032 0.4065
v -2.377227 7.532141 5.030851
vn 0.7172 0.6438 -0.2669
v -2.356738 7.543387 5.113032
v -2.356321 7.512352 5.039298
v -2.353453 7.514927 5.038231
vn -0.7172 -0.6437 0.2669
v -2.374775 7.565751 5.103518
v -2.374359 7.534716 5.029784
vn -0.0054 0.3878 0.9217
vn 0.0053 -0.3878 -0.9217
v -2.353869 7.545962 5.111965
vn -0.6970 0.6595 -0.2816
vn 0.6968 -0.6597 0.2816
v -2.377644 7.563176 5.104585
vn 0.7172 0.6437 -0.2669
vn -0.0052 0.3879 0.9217
vn 0.0052 -0.3879 -0.9217
vn -0.6968 0.6597 -0.2816
vn 0.6969 -0.6596 0.2816
v 6.378781 -15.547771 1.944411
vn 0.3676 -0.2968 0.8813
v 6.330319 -15.489720 1.984177
v 6.352105 -15.559464 1.951600
v 6.331790 -15.490908 1.987703
vn -0.3676 0.2968 -0.8813
v 6.380252 -15.548959 1.947936
v 6.353576 -15.560651 1.955126
vn -0.2724 0.8719 0.4069
v 6.356996 -15.478028 1.976988
vn 0.2723 -0.8717 -0.4073
vn 0.8893 0.3897 -0.2395
vn -0.8892 -0.3898 0.2396
v 6.358466 -15.479216 1.980513
vn -0.2723 0.8717 0.4075
vn 0.2723 -0.8718 -0.4072
vn 0.8892 0.3897 -0.2397
vn -0.8892 -0.3897 0.2397
v 14.628430 12.055667 5.556759
vn 0.4906 0.1016 -0.8654
v 14.582541 12.125502 5.538946
v 14.607473 12.132822 5.553941
v 14.609436 12.133228 5.550479
vn -0.4906 -0.1017 0.8654
v 14.605461 12.048754 5.538303
v 14.630393 12.056074 5.553298
vn -0.2619 0.9644 -0.0356
v 14.603498 12.048347 5.541765
vn 0.2620 -0.9644 0.0358
v 14.584504 12.125909 5.535485
vn -0.8310 -0.2439 -0.5000
vn 0.8310 0.2440 0.5000
vn 0.4906 0.1017 -0.8654
vn -0.4907 -0.1016 0.8654
vn -0.2620 0.9644 -0.0348
vn 0.2620 -0.9644 0.0350
vn -0.8311 -0.2440 -0.4997
vn 0.8310 0.2439 0.4999
v -13.308635 -4.962543 2.209198
vn 0.5955 0.6042 -0.5295
v -13.260126 -4.949747 2.278358
v -13.286689 -4.982950 2.210593
v -13.284307 -4.980533 2.208476
vn -0.5955 -0.6042 0.5295
v -13.279691 -4.926924 2.274844
v -13.306253 -4.960127 2.207080
vn 0.3321 0.4151 0.8470
v -13.282072 -4.929341 2.276962
vn -0.3321 -0.4151 -0.8470
v -13.257745 -4.947330 2.276240
vn -0.7318 0.6800 -0.0465
vn 0.7316 -0.6801 0.0465
vn -0.3322 -0.4151 -0.8470
vn -0.7318 0.6800 -0.0466
vn 0.7317 -0.6801 0.0465
v 1.507429 -17.664780 7.517277
vn -0.1508 -0.9654 0.2128
v 1.566041 -17.686756 7.459126
v 1.578809 -17.682829 7.485988
v 1.506825 -17.668640 7.518128
vn 0.1508 0.9654 -0.2128
v 1.565438 -17.690617 7.459977
v 1.494057 -17.672567 7.491266
vn 0.8922 -0.2256 -0.3912
v 1.494661 -17.668705 7.490415
vn -0.8922 0.2256 0.3913
v 1.578205 -17.686691 7.486839
vn -0.4254 -0.1309 -0.8955
vn 0.4259 0.1309 0.8952
vn -0.1509 -0.9654 0.2129
vn 0.1509 0.9654 -0.2127
vn 0.8922 -0.2256 -0.3914
vn -0.8923 0.2257 0.3911
vn -0.4257 -0.1309 -0.8954
vn 0.4256 0.1309 0.8954
v 20.342388 -12.427526 5.122396
vn 0.5928 -0.7833 -0.1868
v 20.407965 -12.374567 5.108433
v 20.406729 -12.382401 5.137366
v 20.344759 -12.430660 5.121649
vn -0.5929 0.7833 0.1868
v 20.410336 -12.377701 5.107686
v 20.345995 -12.422826 5.092717
vn 0.8040 0.5645 0.1870
v 20.343624 -12.419692 5.093464
vn -0.8044 -0.5639 -0.1871
v 20.409100 -12.385535 5.136619
vn 0.0412 0.2612 -0.9644
vn -0.0413 -0.2611 0.9644
vn 0.5929 -0.7833 -0.1868
vn 0.8046 0.5635 0.1871
vn -0.8042 -0.5642 -0.1870
vn 0.0413 0.2612 -0.9644
vn -0.0413 -0.2612 0.9644
v -12.454194 -9.510362 7.295675
vn 0.9349 -0.2546 0.2474
v -12.438103 -9.429496 7.318075
v -12.460662 -9.505968 7.324638
v -12.456922 -9.506987 7.325628
vn -0.9349 0.2546 -0.2474
v -12.427896 -9.434908 7.290101
v -12.450455 -9.511380 7.296664
vn 0.2820 0.9559 -0.0821
v -12.431636 -9.433889 7.289112
vn -0.2820 -0.9559 0.0820
v -12.434363 -9.430514 7.319065
vn 0.2156 -0.1464 -0.9654
vn -0.2156 0.1464 0.9654
vn 0.9349 -0.2545 0.2474
vn -0.9349 0.2545 -0.2474
vn 0.2820 0.9559 -0.0819
vn -0.2819 -0.9559 0.0820
vn 0.2156 -0.1465 -0.9654
vn -0.2157 0.1465 0.9654
v 13.012393 -2.058984 2.913026
vn 0.2929 -0.8477 -0.4423
v 13.019310 -2.096492 2.989480
v 12.986485 -2.071978 2.920767
v 12.987657 -2.075368 2.918998
vn -0.2929 0.8477 0.4423
v 13.046391 -2.086888 2.979970
v 13.013565 -2.062374 2.911257
vn 0.4105 -0.3065 0.8588
v 13.045218 -2.083498 2.981740
vn -0.4103 0.3064 -0.8589
v 13.020482 -2.099882 2.987711
vn 0.8636 0.4332 -0.2581
vn -0.8635 -0.4332 0.2581
vn 0.2930 -0.8476 -0.4424
vn -0.2930 0.8476 0.4424
vn 0.4102 -0.3065 0.8589
vn -0.4103 0.3066 -0.8589
vn 0.8636 0.4331 -0.2580
vn -0.8636 -0.4332 0.2580
v 5.082705 -6.474950 7.323234
vn 0.5703 0.0145 0.8213
v 5.059456 -6.394063 7.337952
v 5.040552 -6.413072 7.351415
v 5.084987 -6.474892 7.326519
vn -0.5703 -0.0145 -0.8213
v 5.061738 -6.394004 7.341237
v 5.103891 -6.455883 7.313056
vn -0.5268 0.7735 0.3523
v 5.101609 -6.455941 7.309771
vn 0.5269 -0.7735 -0.3523
v 5.042833 -6.413014 7.354700
vn 0.6302 0.6336 -0.4489
vn -0.6300 -0.6337 0.4489
vn 0.5704 0.0145 0.8213
vn -0.5704 -0.0145 -0.8213
vn -0.5269 0.7735 0.3523
vn 0.5268 -0.7735 -0.3523
vn 0.6301 0.6337 -0.4488
vn -0.6301 -0.6336 0.4488
v 17.394737 5.643107 7.586442
vn 0.3187 -0.1200 -0.9402
v 17.469019 5.680033 7.606905
v 17.414503 5.622554 7.595764
v 17.470295 5.679553 7.603144
vn -0.3187 0.1200 0.9402
v 17.396013 5.642628 7.582681
v 17.415777 5.622074 7.592002
vn 0.6814 0.7185 0.1397
v 17.449255 5.700586 7.597583
vn -0.6815 -0.7184 -0.1395
vn -0.6589 0.6850 -0.3108
vn 0.6589 -0.6850 0.3110
vn -0.3187 0.1199 0.9402
v 17.450529 5.700106 7.593822
vn 0.6815 0.7185 0.1391
vn -0.6816 -0.7184 -0.1392
vn -0.6588 0.6851 -0.3108
vn 0.6588 -0.6852 0.3107
v 14.376476 -11.847895 2.937816
vn 0.3952 0.7686 0.5031
v 14.317762 -11.857811 2.999089
v 14.386360 -11.866790 2.958917
v 14.319344 -11.854736 3.001101
vn -0.3952 -0.7686 -0.5031
v 14.378057 -11.844820 2.939828
v 14.387941 -11.863716 2.960930
vn -0.8574 0.1128 0.5021
v 14.307878 -11.838915 2.977988
vn 0.8574 -0.1124 -0.5022
vn -0.3295 0.6297 -0.7035
vn 0.3294 -0.6298 0.7035
vn -0.3952 -0.7685 -0.5031
v 14.309460 -11.835841 2.980000
vn -0.8574 0.1123 0.5023
vn 0.8575 -0.1123 -0.5020
vn -0.3294 0.6299 -0.7033
vn 0.3294 -0.6300 0.7033
v 20.785959 3.945178 8.048749
vn 0.9730 -0.2248 -0.0516
v 20.804455 4.014660 8.094901
v 20.786009 3.938666 8.078033
v 20.808348 4.013761 8.094695
vn -0.9731 0.2247 0.0516
v 20.789852 3.944278 8.048543
v 20.789900 3.937767 8.077827
vn 0.2306 0.9499 0.2109
vn -0.2307 -0.9499 -0.2109
v 20.808298 4.020273 8.065411
vn -0.0015 0.2171 -0.9762
vn 0.0015 -0.2171 0.9761
v 20.804407 4.021172 8.065617
vn -0.9730 0.2248 0.0516
vn 0.2306 0.9499 0.2108
vn -0.2305 -0.9500 -0.2108
vn -0.0017 0.2171 -0.9761
vn 0.0015 -0.2170 0.9762
v -16.286379 -13.680019 2.286697
vn 0.7651 0.6436 0.0220
v -16.340324 -13.616538 2.305670
v -16.289474 -13.677355 2.316418
v -16.337263 -13.613964 2.305758
vn -0.7651 -0.6436 -0.0220
v -16.283318 -13.677445 2.286785
v -16.286413 -13.674781 2.316506
vn -0.6357 0.7601 -0.1345
v -16.337229 -13.619203 2.275949
vn 0.6357 -0.7602 0.1344
vn 0.1032 -0.0888 -0.9907
vn -0.1032 0.0889 0.9907
v -16.334167 -13.616629 2.276037
vn -0.6357 0.7602 -0.1344
vn 0.6357 -0.7601 0.1344
vn -0.1032 0.0888 0.9907
v 5.923438 2.429434 4.832232
vn 0.7880 -0.6104 -0.0804
v 5.975184 2.493096 4.856097
v 5.926712 2.429732 4.862051
v 5.929864 2.427291 4.861730
vn -0.7880 0.6104 0.0804
v 5.975062 2.490356 4.825956
v 5.926590 2.426993 4.831911
vn 0.6059 0.7920 -0.0744
vn -0.6059 -0.7920 0.0744
v 5.978336 2.490654 4.855775
vn -0.1093 -0.0099 -0.9940
vn 0.1093 0.0099 0.9940
v 5.971910 2.492798 4.826278
vn 0.6060 0.7920 -0.0744
vn -0.6058 -0.7922 0.0744
vn -0.1089 -0.0100 -0.9940
vn 0.1089 0.0100 0.9940
v -4.186803 -15.273797 6.921278
vn 0.4669 -0.2861 0.8367
v -4.124714 -15.217124 6.906010
v -4.193303 -15.247386 6.933935
v -4.122846 -15.218268 6.909357
vn -0.4669 0.2861 -0.8367
v -4.184936 -15.274941 6.924624
v -4.191435 -15.248530 6.937282
vn 0.8573 0.3783 -0.3492
v -4.118215 -15.243535 6.893352
vn -0.8573 -0.3784 0.3491
vn 0.2168 -0.8804 -0.4217
vn -0.2166 0.8802 0.4224
vn -0.4669 0.2861 -0.8368
v -4.116347 -15.244679 6.896699
vn 0.8574 0.3783 -0.3490
vn -0.8573 -0.3782 0.3492
vn 0.2165 -0.8802 -0.4224
vn -0.2166 0.8804 0.4219
v -15.453609 -1.057526 1.812176
vn 0.6796 -0.1290 -0.7221
v -15.393767 -1.072788 1.871219
v -15.452358 -1.086807 1.818583
v -15.391049 -1.073304 1.868330
vn -0.6796 0.1290 0.7221
v -15.450891 -1.058042 1.809287
v -15.449640 -1.087323 1.815694
vn 0.7324 0.1753 0.6579
v -15.395018 -1.043507 1.864812
vn -0.7325 -0.1751 -0.6579
vn -0.0417 0.9760 -0.2137
vn 0.0417 -0.9760 0.2136
v -15.392300 -1.044023 1.861923
vn 0.7324 0.1752 0.6579
vn -0.7324 -0.1752 -0.6579
vn -0.0417 0.9760 -0.2136
vn 0.0417 -0.9761 0.2135
v 0.765150 -12.837070 3.707668
vn 0.7210 0.5559 -0.4136
v 0.733483 -12.853724 3.630080
v 0.720942 -12.828973 3.641486
v 0.723826 -12.826749 3.639831
vn -0.7210 -0.5559 0.4136
v 0.780575 -12.859597 3.694608
v 0.768034 -12.834846 3.706013
vn -0.5526 0.1012 -0.8273
v 0.777691 -12.861821 3.696263
vn 0.5527 -0.1012 0.8272
v 0.736367 -12.851501 3.628426
vn 0.4181 -0.8251 -0.3800
vn -0.4181 0.8250 0.3803
vn 0.5526 -0.1012 0.8273
vn 0.4180 -0.8249 -0.3804
vn -0.4181 0.8250 0.3802
v 9.958253 14.712910 3.367058
vn -0.0802 0.9966 -0.0206
v 9.877828 14.707018 3.395289
v 9.957548 14.713471 3.397044
v 9.877507 14.711004 3.395207
vn 0.0802 -0.9966 0.0205
v 9.957932 14.716896 3.366976
v 9.957227 14.717458 3.396962
vn -0.9965 -0.0806 -0.0219
v 9.878533 14.706456 3.365303
vn 0.9965 0.0803 0.0219
vn 0.0235 -0.0187 -0.9995
vn -0.0235 0.0187 0.9995
vn 0.0802 -0.9966 0.0206
v 9.878212 14.710443 3.365221
vn -0.9965 -0.0810 -0.0219
vn 0.9965 0.0810 0.0219
vn 0.0235 -0.0188 -0.9995
v 10.060955 12.766029 5.187640
vn -0.0177 -0.9916 -0.1283
v 10.141996 12.768073 5.160656
v 10.140888 12.764246 5.190391
v 10.140817 12.760280 5.189878
vn 0.0177 0.9916 0.1282
v 10.061993 12.765890 5.157392
v 10.060884 12.762063 5.187127
vn 0.9992 -0.0224 0.0344
v 10.062064 12.769856 5.157905
vn -0.9992 0.0224 -0.0344
v 10.141926 12.764107 5.160143
vn 0.0370 0.1276 -0.9911
vn -0.0370 -0.1276 0.9911
vn -0.0177 -0.9916 -0.1282
vn 0.0177 0.9916 0.1283
vn 0.9992 -0.0223 0.0343
v 21.619520 3.303500 3.639837
vn 0.3591 0.9332 -0.0104
v 21.557699 3.327890 3.693533
v 21.628458 3.300378 3.668304
v 21.559137 3.331623 3.693492
vn -0.3591 -0.9332 0.0104
v 21.620958 3.307233 3.639796
v 21.629894 3.304111 3.668263
vn -0.8844 0.3440 0.3155
vn 0.8842 -0.3446 -0.3154
v 21.550200 3.334745 3.665024
vn -0.2978 0.1040 -0.9489
vn 0.2979 -0.1043 0.9489
v 21.548763 3.331012 3.665066
vn -0.8842 0.3446 0.3153
vn 0.8844 -0.3442 -0.3153
vn -0.2979 0.1047 -0.9488
vn 0.2979 -0.1041 0.9489
v -0.058984 -4.654258 6.545509
vn -0.5708 0.7456 0.3439
v -0.127815 -4.704628 6.540481
v -0.114866 -4.707143 6.567425
v -0.117150 -4.704161 6.568801
vn 0.5708 -0.7456 -0.3439
v -0.074216 -4.648759 6.519940
v -0.061268 -4.651275 6.546885
vn -0.6985 -0.6611 0.2740
v -0.071933 -4.651742 6.518564
vn 0.6985 0.6610 -0.2740
v -0.130098 -4.701645 6.541856
vn -0.4317 0.0839 -0.8981
vn 0.4316 -0.0839 0.8982
vn -0.6986 -0.6611 0.2738
vn 0.6985 0.6611 -0.2739
vn -0.4316 0.0839 -0.8982
v 20.372866 -14.838937 3.219322
vn 0.2273 0.0116 -0.9738
v 20.411821 -14.763554 3.229312
v 20.431189 -14.786065 3.233566
v 20.373774 -14.838890 3.215427
vn -0.2273 -0.0116 0.9738
v 20.412729 -14.763507 3.225417
v 20.354406 -14.816379 3.211174
vn 0.7291 0.6609 0.1778
v 20.353497 -14.816425 3.215069
vn -0.7290 -0.6609 -0.1779
v 20.432098 -14.786018 3.229671
vn -0.6457 0.7504 -0.1413
vn 0.6457 -0.7504 0.1415
vn 0.7290 0.6609 0.1783
vn -0.7291 -0.6608 -0.1778
vn -0.6457 0.7503 -0.1419
vn 0.6456 -0.7504 0.1419
v 7.753150 18.803240 3.379003
vn 0.8535 -0.1295 0.5047
v 7.797355 18.811569 3.306363
v 7.793617 18.838261 3.319539
v 7.756564 18.802723 3.381021
vn -0.8536 0.1296 -0.5046
v 7.800769 18.811052 3.308381
v 7.760302 18.776031 3.367845
vn 0.5058 0.4379 -0.7433
v 7.756887 18.776548 3.365827
vn -0.5057 -0.4379 0.7433
v 7.797032 18.837744 3.321558
vn 0.1248 -0.8897 -0.4392
vn -0.1247 0.8896 0.4395
vn 0.8536 -0.1296 0.5045
vn -0.8536 0.1296 -0.5045
vn 0.5057 0.4377 -0.7435
vn -0.5057 -0.4378 0.7434
vn -0.1248 0.8897 0.4391
v -5.069375 -13.591928 7.868351
vn 0.5450 0.8327 0.0978
v -5.133462 -13.546103 7.835293
v -5.087798 -13.582414 7.890032
v -5.085618 -13.579083 7.890422
vn -0.5450 -0.8327 -0.0977
v -5.112859 -13.552287 7.814003
v -5.067194 -13.588597 7.868742
vn -0.5707 0.4538 -0.6844
vn 0.5706 -0.4537 0.6845
v -5.131282 -13.542772 7.835684
vn 0.6141 -0.3173 -0.7226
vn -0.6140 0.3171 0.7228
v -5.115039 -13.555617 7.813612
vn 0.5450 0.8327 0.0977
vn -0.5707 0.4537 -0.6844
vn 0.5708 -0.4540 0.6842
vn 0.6140 -0.3169 -0.7229
vn -0.6143 0.3171 0.7225
v 21.262747 13.676386 4.565742
vn 0.5341 0.8239 -0.1897
v 21.197828 13.707943 4.520031
v 21.244329 13.692350 4.583233
v 21.199965 13.711239 4.519273
vn -0.5340 -0.8239 0.1896
v 21.264883 13.679682 4.564984
v 21.246466 13.695645 4.582474
vn -0.5813 0.1953 -0.7899
v 21.216246 13.691979 4.502541
vn 0.5814 -0.1948 0.7900
vn 0.6140 -0.5319 -0.5832
vn -0.6138 0.5325 0.5828
vn 0.5340 0.8239 -0.1896
vn -0.5341 -0.8239 0.1897
v 21.218382 13.695274 4.501782
vn -0.5813 0.1948 -0.7900
vn 0.5814 -0.1952 0.7899
vn 0.6140 -0.5320 -0.5830
vn -0.6140 0.5321 0.5830
v -16.473146 -2.732951 5.575543
vn 0.2139 0.5642 -0.7974
v -16.551409 -2.747283 5.544404
v -16.551294 -2.722808 5.561753
v -16.472292 -2.730694 5.572353
vn -0.2139 -0.5642 0.7974
v -16.550554 -2.745026 5.541214
v -16.472406 -2.755169 5.555005
vn -0.9769 0.1266 -0.1721
v -16.473263 -2.757426 5.558194
vn 0.9768 -0.1271 0.1724
v -16.550438 -2.720551 5.558563
vn -0.0039 -0.8159 -0.5782
vn 0.0038 0.8158 0.5783
vn 0.2140 0.5642 -0.7974
vn -0.2140 -0.5642 0.7974
vn -0.9768 0.1270 -0.1725
vn 0.9769 -0.1263 0.1721
vn -0.0038 -0.8158 -0.5783
vn 0.0039 0.8159 0.5782
v 1.356901 -7.686131 8.767424
vn 0.6925 0.7134 0.1070
v 1.325412 -7.645346 8.699269
v 1.335598 -7.666693 8.775693
v 1.328182 -7.642492 8.699697
vn -0.6925 -0.7134 -0.1070
v 1.359671 -7.683277 8.767852
v 1.338369 -7.663839 8.776121
vn -0.1275 0.2669 -0.9553
vn 0.1274 -0.2669 0.9553
v 1.349484 -7.661930 8.691428
vn 0.7101 -0.6480 -0.2756
vn -0.7100 0.6480 0.2757
v 1.346714 -7.664783 8.691000
vn -0.1274 0.2669 -0.9553
vn 0.1276 -0.2669 0.9552
vn 0.7101 -0.6479 -0.2756
vn -0.7101 0.6479 0.2756
v -8.023480 5.213167 8.088388
vn 0.6546 -0.7379 -0.1642
v -7.982207 5.262325 8.031998
v -7.970962 5.266173 8.059543
v -8.020862 5.210215 8.087732
vn -0.6546 0.7379 0.1642
v -7.979589 5.259373 8.031342
v -8.032107 5.206367 8.060187
vn 0.6564 0.6627 -0.3606
v -8.034726 5.209319 8.060843
vn -0.6565 -0.6626 0.3605
v -7.968343 5.263221 8.058887
vn -0.3746 -0.1284 -0.9183
vn 0.3747 0.1284 0.9182
vn 0.6565 0.6626 -0.3605
vn -0.6565 -0.6626 0.3606
vn -0.3748 -0.1283 -0.9182
vn 0.3748 0.1284 0.9182
v 8.773077 8.807937 4.103632
vn 0.8999 0.3298 0.2852
v 8.745576 8.888570 4.097159
v 8.740705 8.877966 4.124796
v 8.744304 8.879285 4.125937
vn -0.8999 -0.3298 -0.2852
v 8.781549 8.819860 4.077136
v 8.776677 8.809257 4.104773
vn -0.4045 0.8755 0.2645
v 8.777949 8.818542 4.075995
vn 0.4046 -0.8754 -0.2645
v 8.749176 8.889890 4.098300
vn 0.1624 0.3534 -0.9213
vn -0.1626 -0.3536 0.9212
vn -0.4049 0.8752 0.2646
vn 0.4049 -0.8753 -0.2645
vn 0.1626 0.3534 -0.9212
vn -0.1623 -0.3534 0.9213
v -6.791260 13.343716 2.307190
vn 0.9470 -0.3143 0.0655
v -6.770359 13.415355 2.348795
v -6.778779 13.394018 2.368132
v -6.787472 13.342458 2.307453
vn -0.9470 0.3144 -0.0655
v -6.766571 13.414097 2.349058
v -6.779052 13.363794 2.288116
vn 0.1560 0.6289 0.7617
v -6.782840 13.365051 2.287854
vn -0.1560 -0.6289 -0.7616
v -6.774991 13.392761 2.368394
vn 0.2807 0.7112 -0.6445
vn -0.2805 -0.7114 0.6444
vn -0.9470 0.3143 -0.0655
vn 0.1560 0.6288 0.7618
vn -0.1561 -0.6289 -0.7617
vn 0.2805 0.7112 -0.6445
vn -0.2808 -0.7111 0.6446
v -11.602674 1.742760 5.578576
vn 0.5970 -0.7599 -0.2571
v -11.535192 1.795127 5.580508
v -11.590410 1.743133 5.605953
v -11.532803 1.792088 5.579480
vn -0.5970 0.7599 0.2571
v -11.600286 1.739721 5.577548
v -11.588022 1.740093 5.604924
vn 0.6902 0.6500 -0.3180
vn -0.6903 -0.6498 0.3181
v -11.545067 1.791715 5.552104
vn -0.4087 -0.0123 -0.9126
vn 0.4088 0.0125 0.9125
v -11.547455 1.794755 5.553132
vn 0.6901 0.6501 -0.3180
vn -0.6902 -0.6500 0.3180
vn -0.4087 -0.0127 -0.9126
vn 0.4086 0.0124 0.9126
v 9.482608 -1.842180 2.925743
vn 0.9060 -0.3378 -0.2551
v 9.496114 -1.866870 3.006415
v 9.473243 -1.870385 2.929835
v 9.499738 -1.868222 3.005395
vn -0.9060 0.3378 0.2551
v 9.486232 -1.843531 2.924723
v 9.476866 -1.871737 2.928814
vn 0.2859 0.0439 0.9572
vn -0.2859 -0.0440 -0.9573
v 9.509103 -1.840016 3.001303
vn 0.3121 0.9402 -0.1364
vn -0.3122 -0.9402 0.1364
v 9.505480 -1.838665 3.002323
vn 0.2858 0.0439 0.9573
vn -0.2859 -0.0438 -0.9572
vn 0.3122 0.9402 -0.1364
v -9.816207 -13.459652 7.525750
vn 0.2612 -0.7989 -0.5417
v -9.737170 -13.428252 7.517551
v -9.739168 -13.445497 7.542019
v -9.815162 -13.462848 7.523583
vn -0.2612 0.7990 0.5416
v -9.736125 -13.431448 7.515385
v -9.813164 -13.445603 7.499116
vn 0.9629 0.1772 0.2033
v -9.814209 -13.442408 7.501283
vn -0.9630 -0.1769 -0.2034
v -9.738123 -13.448692 7.539852
vn 0.0666 0.5746 -0.8157
vn -0.0666 -0.5747 0.8156
vn 0.2612 -0.7989 -0.5418
vn -0.2612 0.7989 0.5418
vn 0.9630 0.1768 0.2034
vn -0.9630 -0.1770 -0.2034
vn 0.0666 0.5747 -0.8157
vn -0.0666 -0.5746 0.8157
v -4.473084 15.022757 2.718148
vn -0.1252 0.9270 -0.3536
v -4.545495 14.998388 2.679902
v -4.496500 15.026593 2.736505
v -4.545996 15.002096 2.678488
vn 0.1252 -0.9270 0.3536
v -4.473585 15.026464 2.716734
v -4.497001 15.030301 2.735091
vn -0.6125 -0.3527 -0.7074
v -4.522079 14.994552 2.661545
vn 0.6124 0.3525 0.7076
vn 0.7806 -0.1279 -0.6118
vn -0.7804 0.1279 0.6121
v -4.522580 14.998260 2.660131
vn 0.1253 -0.9270 0.3535
vn -0.6124 -0.3525 -0.7076
vn 0.6125 0.3527 0.7074
vn 0.7804 -0.1278 -0.6120
vn -0.7806 0.1280 0.6118
v 2.103977 -12.451660 2.581897
vn 0.4236 0.5829 -0.6935
v 2.147105 -12.410326 2.642982
v 2.130424 -12.464903 2.586919
v 2.132118 -12.462572 2.584145
vn -0.4236 -0.5829 0.6934
v 2.122353 -12.394753 2.635186
v 2.105672 -12.449329 2.579123
vn 0.2086 0.6824 0.7006
vn -0.2085 -0.6822 -0.7008
v 2.148799 -12.407995 2.640209
vn -0.8815 0.4414 -0.1675
vn 0.8815 -0.4414 0.1675
v 2.120659 -12.397083 2.637960
vn 0.4235 0.5829 -0.6934
vn -0.4235 -0.5829 0.6935
vn 0.2086 0.6822 0.7008
vn -0.2087 -0.6825 -0.7005
vn -0.8815 0.4415 -0.1675
vn 0.8815 -0.4415 0.1675
v -0.635551 10.746457 4.571797
vn 0.5344 0.8336 -0.1399
v -0.702458 10.782859 4.533089
v -0.703143 10.788250 4.562593
v -0.633413 10.749791 4.571238
vn -0.5344 -0.8336 0.1399
v -0.700320 10.786193 4.532530
v -0.632728 10.744400 4.541734
vn -0.8449 0.5224 -0.1151
v -0.634866 10.741066 4.542294
vn 0.8449 -0.5224 0.1151
v -0.701005 10.791584 4.562033
vn 0.0228 -0.1796 -0.9835
vn -0.0227 0.1797 0.9835
vn 0.5344 0.8335 -0.1399
vn -0.5344 -0.8335 0.1399
vn -0.8449 0.5225 -0.1151
vn 0.0229 -0.1798 -0.9834
vn -0.0229 0.1797 0.9835
v -5.941918 12.197606 3.907949
vn 0.9937 0.1052 -0.0378
v -5.943954 12.242864 3.980390
v -5.939101 12.179544 3.931737
v -5.935126 12.179966 3.931586
vn -0.9937 -0.1052 0.0378
v -5.942796 12.261347 3.956451
v -5.937943 12.198028 3.907798
vn -0.0607 0.7915 0.6081
v -5.946771 12.260925 3.956603
vn 0.0609 -0.7915 -0.6081
v -5.939979 12.243285 3.980239
vn -0.0941 0.6021 -0.7929
vn 0.0941 -0.6020 0.7929
vn -0.0609 0.7915 0.6081
vn -0.0941 0.6020 -0.7929
v 10.788010 16.635099 5.473669
vn 0.7922 -0.6024 -0.0977
v 10.822906 16.669659 5.543583
v 10.805868 16.646069 5.550875
v 10.791179 16.632690 5.473278
vn -0.7922 0.6024 0.0977
v 10.826075 16.667250 5.543192
v 10.808216 16.656281 5.465986
vn 0.2235 0.1371 0.9650
v 10.805048 16.658691 5.466377
vn -0.2234 -0.1369 -0.9651
v 10.809036 16.643658 5.550484
vn 0.5679 0.7865 -0.2429
vn -0.5677 -0.7865 0.2430
vn 0.7922 -0.6023 -0.0977
vn -0.7923 0.6023 0.0977
vn 0.2232 0.1370 0.9651
vn -0.2233 -0.1372 -0.9651
vn 0.5682 0.7862 -0.2431
vn -0.5683 -0.7861 0.2433
v -5.382195 17.592058 4.947100
vn -0.0775 0.9857 0.1495
v -5.467230 17.586277 4.941120
v -5.458400 17.582659 4.969562
v -5.458710 17.586601 4.970160
vn 0.0775 -0.9857 -0.1494
v -5.391335 17.599619 4.919256
v -5.382505 17.596001 4.947698
vn -0.9526 -0.1176 0.2806
v -5.391026 17.595676 4.918658
vn 0.9527 0.1175 -0.2804
v -5.467540 17.590219 4.941718
vn -0.2942 0.1206 -0.9481
vn 0.2942 -0.1206 0.9481
vn -0.0775 0.9857 0.1494
vn 0.0775 -0.9857 -0.1495
vn -0.9526 -0.1175 0.2807
vn 0.9525 0.1175 -0.2808
vn -0.2946 0.1207 -0.9480
vn 0.2944 -0.1207 0.9480
v -10.914163 17.280405 5.643378
vn 0.6221 0.7736 0.1203
v -10.951229 17.320442 5.577628
v -10.937040 17.297321 5.652888
v -10.934552 17.300417 5.653370
vn -0.6220 -0.7737 -0.1204
v -10.925863 17.306622 5.568600
v -10.911674 17.283501 5.643860
vn -0.1775 0.2892 -0.9407
vn 0.1774 -0.2891 0.9407
v -10.948741 17.323538 5.578110
vn 0.7627 -0.5639 -0.3168
vn -0.7628 0.5636 0.3172
v -10.928351 17.303526 5.568118
vn 0.6221 0.7736 0.1205
vn -0.6221 -0.7736 -0.1204
vn -0.1773 0.2891 -0.9407
vn 0.1775 -0.2892 0.9407
vn 0.7629 -0.5633 -0.3172
vn -0.7627 0.5639 0.3168
v -6.073121 2.044247 8.304256
vn 0.8492 -0.1841 0.4949
v -6.056881 2.128064 8.307564
v -6.084956 2.056300 8.329049
v -6.053484 2.127328 8.309544
vn -0.8492 0.1841 -0.4949
v -6.069724 2.043511 8.306236
v -6.081559 2.055563 8.331029
vn 0.3510 0.8971 -0.2686
vn -0.3508 -0.8971 0.2685
v -6.041649 2.115275 8.284751
vn 0.3945 -0.4018 -0.8264
vn -0.3945 0.4018 0.8264
v -6.045046 2.116012 8.282771
vn 0.3509 0.8971 -0.2686
vn -0.3509 -0.8971 0.2686
vn 0.3946 -0.4017 -0.8264
vn -0.3945 0.4017 0.8264
v 13.762127 -4.878666 1.648029
vn 0.6832 0.6776 0.2722
v 13.700525 -4.830245 1.682096
v 13.757789 -4.885861 1.676829
v 13.703259 -4.827534 1.683185
vn -0.6832 -0.6776 -0.2722
v 13.764860 -4.875956 1.649118
v 13.760521 -4.883151 1.677917
vn -0.7160 0.6950 0.0658
vn 0.7160 -0.6950 -0.0659
v 13.707597 -4.820339 1.654386
vn 0.1446 0.2398 -0.9600
vn -0.1446 -0.2398 0.9600
v 13.704865 -4.823050 1.653297
vn -0.7157 0.6953 0.0658
vn 0.7158 -0.6952 -0.0657
v 6.523715 -0.856397 5.176866
vn 0.4282 -0.2366 -0.8722
v 6.572460 -0.786401 5.181816
v 6.586136 -0.809704 5.194851
v 6.587849 -0.810651 5.191363
vn -0.4282 0.2366 0.8722
v 6.511753 -0.834040 5.160342
v 6.525429 -0.857343 5.173378
vn 0.7802 0.5837 0.2249
v 6.510040 -0.833094 5.163830
vn -0.7802 -0.5837 -0.2248
v 6.574173 -0.787347 5.178327
vn -0.4559 0.7767 -0.4346
vn 0.4558 -0.7768 0.4346
vn 0.4283 -0.2366 -0.8721
vn -0.4282 0.2366 0.8721
vn 0.7803 0.5835 0.2249
vn -0.7802 -0.5837 -0.2249
vn -0.4559 0.7768 -0.4345
v -16.388226 -6.713691 5.630847
vn 0.9063 0.3233 -0.2721
v -16.389141 -6.657183 5.694925
v -16.376472 -6.725736 5.655682
v -16.385517 -6.655890 5.693836
vn -0.9063 -0.3234 0.2722
v -16.384602 -6.712398 5.629758
v -16.372847 -6.724442 5.654593
vn -0.1583 0.8570 0.4904
v -16.400896 -6.645138 5.670090
vn 0.1583 -0.8568 -0.4907
vn -0.3918 0.4018 -0.8277
vn 0.3919 -0.4014 0.8279
vn 0.9063 0.3233 -0.2722
vn -0.9063 -0.3233 0.2721
v -16.397270 -6.643845 5.669001
vn -0.1583 0.8569 0.4906
vn 0.1582 -0.8571 -0.4902
vn -0.3919 0.4014 -0.8279
vn 0.3918 -0.4016 0.8278
v -6.015095 -0.523227 6.426817
vn -0.0923 0.3306 -0.9393
v -6.096435 -0.549348 6.425618
v -6.033319 -0.501366 6.436303
v -6.096805 -0.548026 6.421861
vn 0.0923 -0.3306 0.9393
v -6.015464 -0.521905 6.423060
v -6.033689 -0.500044 6.432546
vn -0.7889 -0.5998 -0.1336
v -6.078211 -0.571209 6.416133
vn 0.7891 0.5996 0.1335
vn 0.6076 -0.7286 -0.3161
vn -0.6075 0.7287 0.3161
v -6.078580 -0.569887 6.412376
vn -0.7890 -0.5997 -0.1335
vn 0.7889 0.5999 0.1336
vn 0.6076 -0.7286 -0.3162
vn -0.6076 0.7286 0.3162
v 8.439169 1.090458 3.144503
vn 0.3814 -0.1758 0.9076
v 8.460944 1.172797 3.151298
v 8.433299 1.168291 3.162043
v 8.434825 1.167588 3.165673
vn -0.3814 0.1758 -0.9076
v 8.468339 1.094261 3.137389
v 8.440694 1.089755 3.148134
vn -0.0734 0.9729 0.2193
v 8.466813 1.094964 3.133759
vn 0.0734 -0.9729 -0.2193
v 8.462469 1.172094 3.154928
vn 0.9215 0.1503 -0.3580
vn -0.9215 -0.1502 0.3583
vn 0.3814 -0.1758 0.9075
vn -0.0734 0.9729 0.2192
vn 0.0734 -0.9729 -0.2192
vn 0.9215 0.1502 -0.3582
vn -0.9215 -0.1502 0.3580
v -9.292853 8.905431 5.328856
vn 0.9890 0.1237 -0.0814
v -9.301688 8.988333 5.347545
v -9.290965 8.909812 5.358474
v -9.287009 8.910307 5.358149
vn -0.9890 -0.1237 0.0813
v -9.299621 8.984447 5.317601
v -9.288898 8.905926 5.328530
vn -0.1341 0.9815 -0.1366
v -9.303576 8.983952 5.317926
vn 0.1341 -0.9815 0.1367
v -9.297732 8.988828 5.347219
vn -0.0630 -0.1460 -0.9873
vn 0.0632 0.1460 0.9873
vn -0.9890 -0.1237 0.0814
vn -0.1341 0.9815 -0.1367
vn 0.1341 -0.9815 0.1366
vn -0.0626 -0.1460 -0.9873
vn 0.0626 0.1460 0.9873
v 8.739389 -14.494513 8.306034
vn -0.3208 0.8875 -0.3310
v 8.690591 -14.533815 8.247949
v 8.675384 -14.529785 8.273492
v 8.738107 -14.490963 8.304709
vn 0.3207 -0.8874 0.3310
v 8.689308 -14.530266 8.246624
v 8.753314 -14.494993 8.279166
vn -0.8000 -0.4410 -0.4068
v 8.754598 -14.498543 8.280490
vn 0.8001 0.4409 0.4068
v 8.674100 -14.526236 8.272168
vn 0.5069 -0.1347 -0.8514
vn -0.5068 0.1343 0.8515
vn -0.3207 0.8874 -0.3310
vn 0.3208 -0.8874 0.3310
vn -0.8001 -0.4409 -0.4067
vn 0.8000 0.4410 0.4068
vn 0.5069 -0.1343 -0.8515
vn -0.5069 0.1345 0.8514
v -12.532985 -17.760941 6.466313
vn 0.7050 0.5241 -0.4778
v -12.523664 -17.710917 6.534947
v -12.512150 -17.772144 6.484764
v -12.509330 -17.770048 6.482852
vn -0.7050 -0.5241 0.4777
v -12.541679 -17.697617 6.514586
v -12.530165 -17.758844 6.464402
vn -0.1439 0.7657 0.6269
v -12.544499 -17.699713 6.516497
vn 0.1438 -0.7653 -0.6274
v -12.520844 -17.708820 6.533036
vn -0.6943 0.3738 -0.6150
vn 0.6944 -0.3734 0.6151
vn 0.7049 0.5242 -0.4778
vn -0.7050 -0.5242 0.4778
vn -0.1437 0.7651 0.6276
vn 0.1439 -0.7659 -0.6267
vn -0.6946 0.3730 -0.6152
vn 0.6945 -0.3736 0.6149
v 16.096249 17.155199 7.790388
vn 0.6108 0.1323 -0.7807
v 16.131422 17.222624 7.829334
v 16.146084 17.197464 7.836544
v 16.098692 17.155729 7.787266
vn -0.6108 -0.1323 0.7807
v 16.133865 17.223154 7.826212
v 16.084030 17.180889 7.780056
vn 0.6227 0.5283 0.5772
v 16.081587 17.180361 7.783179
vn -0.6232 -0.5283 -0.5767
v 16.148527 17.197992 7.833421
vn -0.4889 0.8388 -0.2396
vn 0.4885 -0.8388 0.2406
vn 0.6108 0.1322 -0.7806
vn -0.6108 -0.1322 0.7806
vn 0.6233 0.5284 0.5765
vn -0.6228 -0.5285 -0.5769
vn -0.4887 0.8388 -0.2402
vn 0.4891 -0.8386 0.2399
v -0.985496 -9.160330 3.083564
vn 0.9829 0.1781 -0.0471
v -0.980873 -9.163292 3.168827
v -0.979979 -9.188318 3.092848
v -0.976941 -9.162579 3.168638
vn -0.9829 -0.1781 0.0471
v -0.981565 -9.159616 3.083375
v -0.976047 -9.187606 3.092659
vn -0.0112 0.3128 0.9497
v -0.986390 -9.135303 3.159543
vn 0.0112 -0.3128 -0.9497
vn -0.1839 0.9330 -0.3094
vn 0.1842 -0.9329 0.3095
v -0.982459 -9.134590 3.159354
vn -0.1842 0.9329 -0.3095
vn 0.1839 -0.9330 0.3095
v -21.370712 -12.115275 7.078933
vn 0.7229 0.6895 -0.0436
v -21.429642 -12.054063 7.069967
v -21.423532 -12.058635 7.098980
v -21.420641 -12.055877 7.098806
vn -0.7229 -0.6895 0.0436
v -21.373930 -12.107945 7.049745
v -21.367821 -12.112517 7.078759
vn -0.6605 0.7078 0.2507
v -21.376822 -12.110703 7.049919
vn 0.6603 -0.7079 -0.2506
vn -0.2037 0.1525 -0.9671
vn 0.2037 -0.1524 0.9671
v -21.426750 -12.051305 7.069793
vn 0.7229 0.6896 -0.0436
vn -0.7229 -0.6896 0.0436
vn -0.6601 0.7082 0.2505
vn 0.6606 -0.7077 -0.2506
vn -0.2036 0.1524 -0.9671
vn 0.2036 -0.1524 0.9671
v -20.285379 -1.718509 6.046369
vn 0.5886 0.7908 0.1677
v -20.348904 -1.666307 6.023140
v -20.302128 -1.711081 6.070124
v -20.299774 -1.707917 6.070794
vn -0.5886 -0.7909 -0.1677
v -20.329800 -1.670573 6.000056
v -20.283024 -1.715346 6.047040
vn -0.5846 0.5601 -0.5870
v -20.332153 -1.673736 5.999386
vn 0.5847 -0.5594 0.5875
v -20.346548 -1.663144 6.023811
vn 0.5583 -0.2478 -0.7918
vn -0.5583 0.2471 0.7920
vn 0.5885 0.7909 0.1677
vn -0.5846 0.5597 -0.5873
vn 0.5846 -0.5601 0.5870
vn 0.5582 -0.2474 -0.7920
vn -0.5581 0.2481 0.7918
v -10.698217 19.728073 5.954796
vn 0.8300 0.1925 0.5235
v -10.665505 19.769588 5.887667
v -10.680932 19.788418 5.905201
v -10.694898 19.728844 5.956890
vn -0.8300 -0.1925 -0.5235
v -10.662186 19.770359 5.889760
v -10.679471 19.710014 5.939356
vn 0.2160 0.7543 -0.6200
v -10.682791 19.709244 5.937262
vn -0.2161 -0.7543 0.6199
v -10.677612 19.789188 5.907295
vn 0.5143 -0.6276 -0.5844
vn -0.5143 0.6277 0.5843
vn 0.2161 0.7544 -0.6198
vn -0.2159 -0.7542 0.6201
vn 0.5142 -0.6280 -0.5842
vn -0.5142 0.6277 0.5844
v -4.558339 18.644691 6.120085
vn -0.0366 -0.4976 0.8666
v -4.508272 18.583759 6.087214
v -4.529428 18.651049 6.124956
v -4.529574 18.649059 6.128422
vn 0.0365 0.4976 -0.8667
v -4.537329 18.575411 6.085810
v -4.558486 18.642700 6.123552
vn 0.2643 -0.8407 -0.4725
vn -0.2643 0.8407 0.4726
v -4.508418 18.581768 6.090681
vn -0.9637 -0.2120 -0.1622
vn 0.9637 0.2119 0.1622
v -4.537183 18.577400 6.082344
vn 0.0366 0.4976 -0.8667
vn 0.2646 -0.8415 -0.4711
vn -0.2646 0.8415 0.4711
vn -0.9637 -0.2119 -0.1624
vn 0.9637 0.2120 0.1624
v 0.042186 4.832390 6.458230
vn -0.3029 -0.4532 0.8384
v 1.092952 4.817452 6.829804
v 0.044750 4.990334 6.544526
v 1.079321 4.797060 6.867531
vn 0.3029 0.4532 -0.8384
v 0.028555 4.811998 6.495957
v 0.031119 4.969942 6.582253
vn 0.9529 -0.1572 0.2593
v 1.090389 4.659508 6.743507
vn -0.9529 0.1572 -0.2593
vn -0.0142 -0.8775 -0.4794
vn 0.0142 0.8775 0.4794
v 1.076758 4.639116 6.781235
v 4.406243 5.023795 7.576885
vn -0.5178 0.1702 0.8384
v 4.673826 4.007560 7.948459
v 4.559082 5.063709 7.663181
v 4.535779 5.071368 7.700909
vn 0.5178 -0.1702 -0.8384
v 4.497685 3.975305 7.899890
v 4.382941 5.031454 7.614612
vn 0.1043 -0.9601 0.2594
vn -0.1043 0.9601 -0.2593
v 4.650524 4.015219 7.986187
vn -0.8491 -0.2217 -0.4794
vn 0.8491 0.2218 0.4794
v 4.520987 3.967646 7.862163
vn 0.1043 -0.9601 0.2593
vn -0.1043 0.9601 -0.2594
vn 0.8491 0.2217 0.4794
v -3.090133 -6.863623 7.714467
vn -0.4494 -0.3085 0.8384
v -2.241814 -7.558720 7.913448
v -2.180845 -7.412996 7.999744
v -2.201067 -7.426877 8.037472
vn 0.4494 0.3085 -0.8384
v -3.171325 -7.023228 7.665897
v -3.110356 -6.877504 7.752194
vn 0.8266 -0.4994 0.2593
v -3.151103 -7.009347 7.628170
vn -0.8266 0.4994 -0.2593
vn -0.3387 -0.8096 -0.4794
vn 0.3387 0.8096 0.4794
v -2.262037 -7.572601 7.951175
v -2.804342 -7.057453 5.552299
vn 0.0326 0.5441 0.8384
v -3.718820 -7.575201 5.923874
v -2.726793 -7.195072 5.638596
v -2.725325 -7.170588 5.676323
vn -0.0326 -0.5441 -0.8384
v -3.794903 -7.413097 5.875305
v -2.802875 -7.032969 5.590027
vn -0.9018 -0.3456 0.2593
vn 0.9018 0.3456 -0.2593
v -3.717353 -7.550716 5.961601
vn -0.4308 0.7646 -0.4794
vn 0.4308 -0.7646 0.4794
v -3.796370 -7.437582 5.837577
vn -0.4308 0.7645 -0.4794
v 8.263457 5.739171 4.371388
vn 0.1073 -0.5344 0.8384
v 9.015540 6.473136 4.742962
v 8.153358 5.852444 4.457685
v 8.158187 5.828396 4.495412
vn -0.1073 0.5344 -0.8384
v 9.130469 6.335814 4.694393
v 8.268287 5.715122 4.409115
vn 0.7838 0.5643 0.2593
v 9.125640 6.359862 4.656666
vn -0.7838 -0.5643 -0.2593
v 9.020370 6.449088 4.780690
vn 0.6117 -0.6293 -0.4794
vn -0.6117 0.6293 0.4794
v -13.108275 -5.323257 6.479747
vn -0.1464 0.5251 0.8384
v -13.804259 -6.110619 6.851321
v -12.990132 -5.428114 6.566043
v -13.810847 -6.086992 6.889049
vn 0.1464 -0.5251 -0.8384
v -13.114863 -5.299630 6.517474
v -12.996719 -5.404487 6.603771
vn -0.7401 -0.6205 0.2594
vn 0.7401 0.6205 -0.2593
v -13.928990 -5.982135 6.802752
vn -0.6564 0.5825 -0.4794
vn 0.6563 -0.5825 0.4795
v -13.922403 -6.005762 6.765025
vn 0.1464 -0.5250 -0.8384
vn -0.7401 -0.6205 0.2593
vn -0.6563 0.5825 -0.4795
vn 0.6564 -0.5825 0.4794
v -4.664238 -6.885951 3.896825
vn 0.2336 -0.4925 0.8384
v -3.843939 -6.157997 4.095807
v -3.978212 -6.074788 4.182103
v -3.967697 -6.096948 4.219831
vn -0.2336 0.4925 -0.8384
v -4.519451 -6.991320 3.848256
v -4.653724 -6.908111 3.934553
vn 0.6237 0.7374 0.2594
v -4.529965 -6.969160 3.810529
vn -0.6237 -0.7374 -0.2593
vn 0.7460 -0.4623 -0.4794
vn -0.7460 0.4623 0.4794
v -3.833425 -6.180157 4.133534
vn 0.2337 -0.4925 0.8384
vn -0.2337 0.4925 -0.8384
vn 0.6237 0.7374 0.2593
vn 0.7459 -0.4623 -0.4794
usemtl wood
s 0
f 1//1 2//1 3//1
f 4//2 5//2 6//2
f 1//3 6//3 7//3
f 3//4 5//4 8//4
f 1//5 8//5 4//5
f 6//6 2//6 7//6
f 1//7 7//7 2//7
f 4//8 8//8 5//8
f 1//9 4//9 6//9
f 3//10 2//10 5//10
f 1//11 3//11 8//11
f 6//12 5//12 2//12
f 9//13 10//13 11//13
f 12//14 13//14 14//14
f 14//15 15//15 9//15
f 11//16 16//16 12//16
f 9//17 12//17 14//17
f 13//18 10//18 15//18
f 9//19 15//19 10//19
f 12//20 16//20 13//20
f 14//21 13//21 15//21
f 11//22 10//22 16//22
f 9//23 11//23 12//23
f 13//24 16//24 10//24
f 17//25 18//25 19//25
f 20//26 21//26 22//26
f 19//27 21//27 17//27
f 18//28 23//28 20//28
f 18//29 22//29 19//29
f 17//30 23//30 24//30
f 17//25 24//25 18//25
f 20//31 23//31 21//31
f 19//32 22//32 21//32
f 18//33 24//33 23//33
f 18//34 20//34 22//34
f 17//35 21//35 23//35
f 25//36 26//36 27//36
f 28//37 29//37 30//37
f 30//38 25//38 27//38
f 26//39 31//39 28//39
f 27//40 28//40 30//40
f 25//41 31//41 32//41
f 25//42 32//42 26//42
f 28//37 31//37 29//37
f 30//43 29//43 25//43
f 26//44 32//44 31//44
f 27//40 26//40 28//40
f 25//41 29//41 31//41
f 33//45 34//45 35//45
f 36//46 37//46 38//46
f 36//47 33//47 35//47
f 39//48 40//48 34//48
f 34//49 36//49 35//49
f 33//50 37//50 39//50
f 33//51 39//51 34//51
f 36//52 40//52 37//52
f 36//53 38//53 33//53
f 39//54 37//54 40//54
f 34//55 40//55 36//55
f 33//56 38//56 37//56
f 41//57 42//57 43//57
f 44//58 45//58 46//58
f 41//59 46//59 47//59
f 43//60 45//60 48//60
f 43//61 44//61 41//61
f 46//62 42//62 47//62
f 41//57 47//57 42//57
f 44//58 48//58 45//58
f 41//63 44//63 46//63
f 43//64 42//64 45//64
f 43//65 48//65 44//65
f 46//66 45//66 42//66
f 49//67 50//67 51//67
f 52//68 53//68 54//68
f 51//69 54//69 49//69
f 50//70 53//70 55//70
f 50//71 52//71 51//71
f 54//72 56//72 49//72
f 49//67 56//67 50//67
f 52//68 55//68 53//68
f 51//73 52//73 54//73
f 50//74 56//74 53//74
f 50//75 55//75 52//75
f 54//76 53//76 56//76
f 57//77 58//77 59//77
f 60//78 61//78 62//78
f 60//79 57//79 59//79
f 58//80 61//80 63//80
f 59//81 63//81 60//81
f 57//82 61//82 64//82
f 57//77 64//77 58//77
f 60//78 63//78 61//78
f 60//83 62//83 57//83
f 58//84 64//84 61//84
f 59//85 58//85 63//85
f 57//86 62//86 61//86
f 65//87 66//87 67//87
f 68//88 69//88 70//88
f 70//89 65//89 67//89
f 71//90 68//90 66//90
f 66//91 70//91 67//91
f 65//92 72//92 71//92
f 65//93 71//93 66//93
f 68//88 72//88 69//88
f 70//94 69//94 65//94
f 71//95 72//95 68//95
f 66//96 68//96 70//96
f 65//97 69//97 72//97
f 73//98 74//98 75//98
f 76//99 77//99 78//99
f 76//100 79//100 73//100
f 74//101 80//101 75//101
f 75//102 76//102 73//102
f 78//103 74//103 79//103
f 73//104 79//104 74//104
f 76//105 80//105 77//105
f 76//106 78//106 79//106
f 74//107 77//107 80//107
f 75//108 80//108 76//108
f 78//109 77//109 74//109
f 81//110 82//110 83//110
f 84//111 85//111 86//111
f 81//112 86//112 87//112
f 83//113 85//113 88//113
f 83//114 84//114 81//114
f 87//115 85//115 82//115
f 81//110 87//110 82//110
f 84//116 88//116 85//116
f 81//117 84//117 86//117
f 83//118 82//118 85//118
f 83//119 88//119 84//119
f 87//120 86//120 85//120
f 89//121 90//121 91//121
f 92//122 93//122 94//122
f 92//123 89//123 91//123
f 90//124 93//124 95//124
f 90//125 92//125 91//125
f 94//126 96//126 89//126
f 89//121 96//121 90//121
f 92//127 95//127 93//127
f 92//128 94//128 89//128
f 90//129 96//129 93//129
f 90//130 95//130 92//130
f 94//131 93//131 96//131
f 97//132 98//132 99//132
f 100//133 101//133 102//133
f 97//134 101//134 103//134
f 99//135 104//135 100//135
f 97//136 100//136 102//136
f 103//137 104//137 98//137
f 97//138 103//138 98//138
f 100//139 104//139 101//139
f 97//140 102//140 101//140
f 99//141 98//141 104//141
f 97//142 99//142 100//142
f 103//143 101//143 104//143
f 105//144 106//144 107//144
f 108//145 109//145 110//145
f 107//146 109//146 105//146
f 106//147 111//147 108//147
f 107//148 108//148 110//148
f 105//149 111//149 112//149
f 105//150 112//150 106//150
f 108//145 111//145 109//145
f 107//151 110//151 109//151
f 106//152 112//152 111//152
f 107//153 106//153 108//153
f 105//154 109//154 111//154
f 113//155 114//155 115//155
f 116//156 117//156 118//156
f 116//157 119//157 113//157
f 114//158 120//158 115//158
f 115//159 116//159 113//159
f 119//160 117//160 114//160
f 113//161 119//161 114//161
f 116//162 120//162 117//162
f 116//163 118//163 119//163
f 114//164 117//164 120//164
f 115//165 120//165 116//165
f 119//166 118//166 117//166
f 121//167 122//167 123//167
f 124//168 125//168 126//168
f 123//169 126//169 121//169
f 122//170 125//170 127//170
f 122//171 124//171 123//171
f 126//172 128//172 121//172
f 121//173 128//173 122//173
f 124//168 127//168 125//168
f 123//174 124//174 126//174
f 122//175 128//175 125//175
f 122//176 127//176 124//176
f 126//177 125//177 128//177
f 129//178 130//178 131//178
f 132//179 133//179 134//179
f 134//180 129//180 131//180
f 135//181 132//181 130//181
f 131//182 132//182 134//182
f 133//183 135//183 129//183
f 129//178 135//178 130//178
f 132//179 136//179 133//179
f 134//184 133//184 129//184
f 135//185 136//185 132//185
f 131//186 130//186 132//186
f 133//187 136//187 135//187
f 137//188 138//188 139//188
f 140//189 141//189 142//189
f 137//190 141//190 143//190
f 139//191 144//191 140//191
f 139//192 142//192 137//192
f 141//193 138//193 143//193
f 137//194 143//194 138//194
f 140//195 144//195 141//195
f 137//196 142//196 141//196
f 139//197 138//197 144//197
f 139//198 140//198 142//198
f 141//199 144//199 138//199
f 145//200 146//200 147//200
f 148//201 149//201 150//201
f 148//202 145//202 147//202
f 151//203 152//203 146//203
f 147//204 152//204 148//204
f 145//205 149//205 151//205
f 145//200 151//200 146//200
f 148//201 152//201 149//201
f 148//202 150//202 145//202
f 151//206 149//206 152//206
f 147//207 146//207 152//207
f 145//208 150//208 149//208
f 153//209 154//209 155//209
f 156//210 157//210 158//210
f 156//211 159//211 153//211
f 155//212 157//212 160//212
f 153//213 160//213 156//213
f 158//214 154//214 159//214
f 153//215 159//215 154//215
f 156//216 160//216 157//216
f 156//217 158//217 159//217
f 155//218 154//218 157//218
f 153//219 155//219 160//219
f 158//220 157//220 154//220
f 161//221 162//221 163//221
f 164//222 165//222 166//222
f 161//223 166//223 167//223
f 162//224 168//224 163//224
f 161//225 168//225 164//225
f 167//226 165//226 162//226
f 161//227 167//227 162//227
f 164//222 168//222 165//222
f 161//228 164//228 166//228
f 162//229 165//229 168//229
f 161//230 163//230 168//230
f 167//231 166//231 165//231
f 169//232 170//232 171//232
f 172//233 173//233 174//233
f 172//234 169//234 171//234
f 175//235 176//235 170//235
f 171//236 176//236 172//236
f 169//237 173//237 175//237
f 169//238 175//238 170//238
f 172//239 176//239 173//239
f 172//240 174//240 169//240
f 175//241 173//241 176//241
f 171//242 170//242 176//242
f 169//243 174//243 173//243
f 177//244 178//244 179//244
f 180//245 181//245 182//245
f 180//246 177//246 179//246
f 183//247 184//247 178//247
f 179//248 184//248 180//248
f 182//249 183//249 177//249
f 177//250 183//250 178//250
f 180//251 184//251 181//251
f 180//252 182//252 177//252
f 183//253 181//253 184//253
f 179//254 178//254 184//254
f 182//255 181//255 183//255
f 185//256 186//256 187//256
f 188//257 189//257 190//257
f 188//258 191//258 185//258
f 186//259 192//259 187//259
f 187//260 188//260 185//260
f 190//261 186//261 191//261
f 185//262 191//262 186//262
f 188//263 192//263 189//263
f 188//264 190//264 191//264
f 186//265 189//265 192//265
f 187//266 192//266 188//266
f 190//267 189//267 186//267
f 193//268 194//268 195//268
f 196//269 197//269 198//269
f 195//270 197//270 193//270
f 199//271 196//271 194//271
f 194//272 198//272 195//272
f 197//273 199//273 193//273
f 193//268 199//268 194//268
f 196//274 200//274 197//274
f 195//275 198//275 197//275
f 199//276 200//276 196//276
f 194//277 196//277 198//277
f 197//278 200//278 199//278
f 201//279 202//279 203//279
f 204//280 205//280 206//280
f 206//281 201//281 203//281
f 207//282 204//282 202//282
f 203//283 204//283 206//283
f 205//284 207//284 201//284
f 201//279 207//279 202//279
f 204//285 208//285 205//285
f 206//286 205//286 201//286
f 207//287 208//287 204//287
f 203//288 202//288 204//288
f 205//289 208//289 207//289
f 209//290 210//290 211//290
f 212//291 213//291 214//291
f 211//292 213//292 209//292
f 210//293 215//293 212//293
f 211//294 212//294 214//294
f 213//295 216//295 209//295
f 209//290 216//290 210//290
f 212//296 215//296 213//296
f 211//297 214//297 213//297
f 210//298 216//298 215//298
f 211//299 210//299 212//299
f 213//300 215//300 216//300
f 217//301 218//301 219//301
f 220//302 221//302 222//302
f 222//303 217//303 219//303
f 223//304 220//304 218//304
f 219//305 220//305 222//305
f 217//306 224//306 223//306
f 217//301 223//301 218//301
f 220//302 224//302 221//302
f 222//307 221//307 217//307
f 223//308 224//308 220//308
f 219//305 218//305 220//305
f 217//309 221//309 224//309
f 225//310 226//310 227//310
f 228//311 229//311 230//311
f 227//312 230//312 225//312
f 226//313 229//313 231//313
f 227//314 231//314 228//314
f 225//315 229//315 232//315
f 225//310 232//310 226//310
f 228//311 231//311 229//311
f 227//316 228//316 230//316
f 226//317 232//317 229//317
f 227//318 226//318 231//318
f 225//319 230//319 229//319
f 233//320 234//320 235//320
f 236//321 237//321 238//321
f 235//322 237//322 233//322
f 239//323 236//323 234//323
f 234//324 238//324 235//324
f 237//325 239//325 233//325
f 233//320 239//320 234//320
f 236//326 240//326 237//326
f 235//327 238//327 237//327
f 239//328 240//328 236//328
f 234//329 236//329 238//329
f 237//330 240//330 239//330
f 241//331 242//331 243//331
f 244//332 245//332 246//332
f 243//333 245//333 241//333
f 247//334 244//334 242//334
f 243//335 244//335 246//335
f 241//336 248//336 247//336
f 241//331 247//331 242//331
f 244//332 248//332 245//332
f 243//337 246//337 245//337
f 247//338 248//338 244//338
f 243//339 242//339 244//339
f 241//340 245//340 248//340
f 249//341 250//341 251//341
f 252//342 253//342 254//342
f 254//343 255//343 249//343
f 251//344 256//344 252//344
f 249//345 252//345 254//345
f 253//346 250//346 255//346
f 249//341 255//341 250//341
f 252//342 256//342 253//342
f 254//343 253//343 255//343
f 251//347 250//347 256//347
f 249//348 251//348 252//348
f 253//349 256//349 250//349
f 257//350 258//350 259//350
f 260//351 261//351 262//351
f 259//352 261//352 257//352
f 263//353 260//353 258//353
f 258//354 262//354 259//354
f 261//355 263//355 257//355
f 257//350 263//350 258//350
f 260//356 264//356 261//356
f 259//357 262//357 261//357
f 263//358 264//358 260//358
f 258//359 260//359 262//359
f 261//355 264//355 263//355
f 265//360 266//360 267//360
f 268//361 269//361 270//361
f 270//362 271//362 265//362
f 267//363 272//363 268//363
f 265//364 268//364 270//364
f 271//365 272//365 266//365
f 265//366 271//366 266//366
f 268//367 272//367 269//367
f 270//368 269//368 271//368
f 267//363 266//363 272//363
f 265//364 267//364 268//364
f 271//365 269//365 272//365
f 273//369 274//369 275//369
f 276//370 277//370 278//370
f 275//371 277//371 273//371
f 274//372 279//372 276//372
f 274//373 278//373 275//373
f 277//374 280//374 273//374
f 273//369 280//369 274//369
f 276//370 279//370 277//370
f 275//375 278//375 277//375
f 274//376 280//376 279//376
f 274//377 276//377 278//377
f 277//378 279//378 280//378
f 281//379 282//379 283//379
f 284//380 285//380 286//380
f 281//381 285//381 287//381
f 283//382 288//382 284//382
f 281//383 284//383 286//383
f 287//384 288//384 282//384
f 281//379 287//379 282//379
f 284//380 288//380 285//380
f 281//385 286//385 285//385
f 283//386 282//386 288//386
f 281//387 283//387 284//387
f 287//384 285//384 288//384
f 289//388 290//388 291//388
f 292//389 293//389 294//389
f 292//390 295//390 289//390
f 290//391 296//391 291//391
f 291//392 292//392 289//392
f 295//393 293//393 290//393
f 289//388 295//388 290//388
f 292//389 296//389 293//389
f 292//394 294//394 295//394
f 290//395 293//395 296//395
f 291//396 296//396 292//396
f 295//397 294//397 293//397
f 297//398 298//398 299//398
f 300//399 301//399 302//399
f 297//400 302//400 303//400
f 299//401 301//401 304//401
f 299//402 300//402 297//402
f 302//403 298//403 303//403
f 297//404 303//404 298//404
f 300//405 304//405 301//405
f 297//406 300//406 302//406
f 299//407 298//407 301//407
f 299//402 304//402 300//402
f 302//408 301//408 298//408
f 305//409 306//409 307//409
f 308//410 309//410 310//410
f 308//411 305//411 307//411
f 306//412 309//412 311//412
f 306//413 308//413 307//413
f 305//414 309//414 312//414
f 305//415 312//415 306//415
f 308//410 311//410 309//410
f 308//416 310//416 305//416
f 306//417 312//417 309//417
f 306//418 311//418 308//418
f 305//419 310//419 309//419
f 313//420 314//420 315//420
f 316//421 317//421 318//421
f 315//422 317//422 313//422
f 319//423 316//423 314//423
f 314//424 318//424 315//424
f 317//425 319//425 313//425
f 313//426 319//426 314//426
f 316//427 320//427 317//427
f 315//428 318//428 317//428
f 319//429 320//429 316//429
f 314//430 316//430 318//430
f 317//431 320//431 319//431
f 321//432 322//432 323//432
f 324//433 325//433 326//433
f 324//434 327//434 321//434
f 323//435 325//435 328//435
f 323//436 324//436 321//436
f 326//437 322//437 327//437
f 321//438 327//438 322//438
f 324//439 328//439 325//439
f 324//440 326//440 327//440
f 323//441 322//441 325//441
f 323//442 328//442 324//442
f 326//443 325//443 322//443
f 329//444 330//444 331//444
f 332//445 333//445 334//445
f 331//446 333//446 329//446
f 330//447 335//447 332//447
f 330//448 334//448 331//448
f 329//449 335//449 336//449
f 329//444 336//444 330//444
f 332//445 335//445 333//445
f 331//450 334//450 333//450
f 330//451 336//451 335//451
f 330//452 332//452 334//452
f 329//453 333//453 335//453
f 337//454 338//454 339//454
f 340//455 341//455 342//455
f 337//456 342//456 343//456
f 339//457 341//457 344//457
f 337//458 344//458 340//458
f 343//459 341//459 338//459
f 337//454 343//454 338//454
f 340//455 344//455 341//455
f 337//460 340//460 342//460
f 339//461 338//461 341//461
f 337//462 339//462 344//462
f 343//463 342//463 341//463
f 345//464 346//464 347//464
f 348//465 349//465 350//465
f 345//466 349//466 351//466
f 347//467 352//467 348//467
f 347//468 350//468 345//468
f 349//469 346//469 351//469
f 345//464 351//464 346//464
f 348//465 352//465 349//465
f 345//470 350//470 349//470
f 347//471 346//471 352//471
f 347//472 348//472 350//472
f 349//473 352//473 346//473
f 353//474 354//474 355//474
f 356//475 357//475 358//475
f 353//476 358//476 359//476
f 355//477 357//477 360//477
f 353//478 360//478 356//478
f 358//479 354//479 359//479
f 353//474 359//474 354//474
f 356//480 360//480 357//480
f 353//481 356//481 358//481
f 355//482 354//482 357//482
f 353//483 355//483 360//483
f 358//484 357//484 354//484
f 361//485 362//485 363//485
f 364//486 365//486 366//486
f 363//487 365//487 361//487
f 362//488 367//488 364//488
f 362//489 366//489 363//489
f 365//490 368//490 361//490
f 361//485 368//485 362//485
f 364//486 367//486 365//486
f 363//491 366//491 365//491
f 362//492 368//492 367//492
f 362//493 364//493 366//493
f 365//494 367//494 368//494
f 369//495 370//495 371//495
f 372//496 373//496 374//496
f 374//497 369//497 371//497
f 370//498 375//498 372//498
f 371//499 372//499 374//499
f 369//500 375//500 376//500
f 369//495 376//495 370//495
f 372//496 375//496 373//496
f 374//501 373//501 369//501
f 370//502 376//502 375//502
f 371//503 370//503 372//503
f 369//500 373//500 375//500
f 377//504 378//504 379//504
f 380//505 381//505 382//505
f 377//506 382//506 383//506
f 378//507 384//507 379//507
f 379//508 380//508 377//508
f 382//509 378//509 383//509
f 377//510 383//510 378//510
f 380//511 384//511 381//511
f 377//512 380//512 382//512
f 378//513 381//513 384//513
f 379//514 384//514 380//514
f 382//515 381//515 378//515
f 385//516 386//516 387//516
f 388//517 389//517 390//517
f 390//518 385//518 387//518
f 391//519 388//519 386//519
f 386//520 390//520 387//520
f 385//521 392//521 391//521
f 385//516 391//516 386//516
f 388//522 392//522 389//522
f 390//523 389//523 385//523
f 391//524 392//524 388//524
f 386//525 388//525 390//525
f 385//526 389//526 392//526
f 393//527 394//527 395//527
f 396//528 397//528 398//528
f 395//529 398//529 393//529
f 394//530 397//530 399//530
f 395//531 399//531 396//531
f 393//532 397//532 400//532
f 393//533 400//533 394//533
f 396//534 399//534 397//534
f 395//535 396//535 398//535
f 394//536 400//536 397//536
f 395//537 394//537 399//537
f 393//538 398//538 397//538
f 401//539 402//539 403//539
f 404//540 405//540 406//540
f 401//541 406//541 407//541
f 403//542 405//542 408//542
f 401//543 408//543 404//543
f 406//544 402//544 407//544
f 401//545 407//545 402//545
f 404//546 408//546 405//546
f 401//547 404//547 406//547
f 403//542 402//542 405//542
f 401//548 403//548 408//548
f 406//549 405//549 402//549
f 409//550 410//550 411//550
f 412//551 413//551 414//551
f 412//552 409//552 411//552
f 415//553 416//553 410//553
f 410//554 412//554 411//554
f 414//555 415//555 409//555
f 409//550 415//550 410//550
f 412//551 416//551 413//551
f 412//556 414//556 409//556
f 415//553 413//553 416//553
f 410//557 416//557 412//557
f 414//555 413//555 415//555
f 417//558 418//558 419//558
f 420//559 421//559 422//559
f 417//560 422//560 423//560
f 419//561 421//561 424//561
f 417//562 424//562 420//562
f 423//563 421//563 418//563
f 417//564 423//564 418//564
f 420//565 424//565 421//565
f 417//566 420//566 422//566
f 419//567 418//567 421//567
f 417//568 419//568 424//568
f 423//569 422//569 421//569
f 425//570 426//570 427//570
f 428//571 429//571 430//571
f 425//572 429//572 431//572
f 427//573 432//573 428//573
f 425//574 428//574 430//574
f 429//575 426//575 431//575
f 425//576 431//576 426//576
f 428//577 432//577 429//577
f 425//578 430//578 429//578
f 427//579 426//579 432//579
f 425//580 427//580 428//580
f 429//581 432//581 426//581
f 433//582 434//582 435//582
f 436//583 437//583 438//583
f 435//584 438//584 433//584
f 434//585 437//585 439//585
f 434//586 436//586 435//586
f 438//587 440//587 433//587
f 433//588 440//588 434//588
f 436//589 439//589 437//589
f 435//590 436//590 438//590
f 434//591 440//591 437//591
f 434//592 439//592 436//592
f 438//593 437//593 440//593
f 441//594 442//594 443//594
f 444//595 445//595 446//595
f 443//596 445//596 441//596
f 442//597 447//597 444//597
f 443//598 444//598 446//598
f 445//599 448//599 441//599
f 441//594 448//594 442//594
f 444//595 447//595 445//595
f 443//600 446//600 445//600
f 442//601 448//601 447//601
f 443//602 442//602 444//602
f 445//603 447//603 448//603
f 449//604 450//604 451//604
f 452//605 453//605 454//605
f 454//606 449//606 451//606
f 450//607 455//607 452//607
f 451//608 452//608 454//608
f 453//609 456//609 449//609
f 449//604 456//604 450//604
f 452//605 455//605 453//605
f 454//610 453//610 449//610
f 450//611 456//611 455//611
f 451//608 450//608 452//608
f 453//609 455//609 456//609
f 457//612 458//612 459//612
f 460//613 461//613 462//613
f 457//614 461//614 463//614
f 459//615 464//615 460//615
f 459//616 462//616 457//616
f 461//617 458//617 463//617
f 457//618 463//618 458//618
f 460//619 464//619 461//619
f 457//620 462//620 461//620
f 459//621 458//621 464//621
f 459//622 460//622 462//622
f 461//617 464//617 458//617
f 465//623 466//623 467//623
f 468//624 469//624 470//624
f 467//625 469//625 465//625
f 471//626 468//626 466//626
f 466//627 470//627 467//627
f 469//628 471//628 465//628
f 465//629 471//629 466//629
f 468//630 472//630 469//630
f 467//631 470//631 469//631
f 471//632 472//632 468//632
f 466//633 468//633 470//633
f 469//634 472//634 471//634
f 473//635 474//635 475//635
f 476//636 477//636 478//636
f 478//637 473//637 475//637
f 479//638 476//638 474//638
f 474//639 478//639 475//639
f 473//640 480//640 479//640
f 473//635 479//635 474//635
f 476//636 480//636 477//636
f 478//641 477//641 473//641
f 479//642 480//642 476//642
f 474//643 476//643 478//643
f 473//644 477//644 480//644
f 481//645 482//645 483//645
f 484//646 485//646 486//646
f 481//647 485//647 487//647
f 483//648 488//648 484//648
f 483//649 486//649 481//649
f 485//650 482//650 487//650
f 481//651 487//651 482//651
f 484//646 488//646 485//646
f 481//652 486//652 485//652
f 483//653 482//653 488//653
f 483//654 484//654 486//654
f 485//655 488//655 482//655
f 489//656 490//656 491//656
f 492//657 493//657 494//657
f 492//658 489//658 491//658
f 495//659 496//659 490//659
f 491//660 496//660 492//660
f 489//661 493//661 495//661
f 489//656 495//656 490//656
f 492//662 496//662 493//662
f 492//663 494//663 489//663
f 495//664 493//664 496//664
f 491//665 490//665 496//665
f 489//666 494//666 493//666
f 497//667 498//667 499//667
f 500//668 501//668 502//668
f 500//669 503//669 497//669
f 498//670 504//670 499//670
f 499//671 500//671 497//671
f 502//672 498//672 503//672
f 497//673 503//673 498//673
f 500//674 504//674 501//674
f 500//675 502//675 503//675
f 498//676 501//676 504//676
f 499//677 504//677 500//677
f 502//678 501//678 498//678
f 505//679 506//679 507//679
f 508//680 509//680 510//680
f 507//681 510//681 505//681
f 511//682 512//682 506//682
f 506//683 508//683 507//683
f 505//684 509//684 511//684
f 505//685 511//685 506//685
f 508//686 512//686 509//686
f 507//687 508//687 510//687
f 511//688 509//688 512//688
f 506//689 512//689 508//689
f 505//690 510//690 509//690
f 513//691 514//691 515//691
f 516//692 517//692 518//692
f 516//693 519//693 513//693
f 515//694 517//694 520//694
f 515//695 516//695 513//695
f 518//696 514//696 519//696
f 513//697 519//697 514//697
f 516//698 520//698 517//698
f 516//699 518//699 519//699
f 515//700 514//700 517//700
f 515//701 520//701 516//701
f 518//702 517//702 514//702
f 521//703 522//703 523//703
f 524//704 525//704 526//704
f 526//705 521//705 523//705
f 527//706 524//706 522//706
f 522//707 526//707 523//707
f 525//708 527//708 521//708
f 521//703 527//703 522//703
f 524//704 528//704 525//704
f 526//705 525//705 521//705
f 527//706 528//706 524//706
f 522//709 524//709 526//709
f 525//710 528//710 527//710
f 529//711 530//711 531//711
f 532//712 533//712 534//712
f 529//713 533//713 535//713
f 530//714 532//714 531//714
f 531//715 534//715 529//715
f 535//716 536//716 530//716
f 529//717 535//717 530//717
f 532//718 536//718 533//718
f 529//719 534//719 533//719
f 530//720 536//720 532//720
f 531//721 532//721 534//721
f 535//722 533//722 536//722
f 537//723 538//723 539//723
f 540//724 541//724 542//724
f 540//725 537//725 539//725
f 543//726 544//726 538//726
f 538//727 540//727 539//727
f 537//728 541//728 543//728
f 537//729 543//729 538//729
f 540//724 544//724 541//724
f 540//730 542//730 537//730
f 543//731 541//731 544//731
f 538//732 544//732 540//732
f 537//733 542//733 541//733
f 545//734 546//734 547//734
f 548//735 549//735 550//735
f 548//736 551//736 545//736
f 546//737 552//737 547//737
f 547//738 548//738 545//738
f 550//739 546//739 551//739
f 545//734 551//734 546//734
f 548//735 552//735 549//735
f 548//740 550//740 551//740
f 546//741 549//741 552//741
f 547//742 552//742 548//742
f 550//743 549//743 546//743
f 553//744 554//744 555//744
f 556//745 557//745 558//745
f 555//746 558//746 553//746
f 554//747 557//747 559//747
f 554//748 556//748 555//748
f 553//749 557//749 560//749
f 553//744 560//744 554//744
f 556//750 559//750 557//750
f 555//751 556//751 558//751
f 554//752 560//752 557//752
f 554//753 559//753 556//753
f 553//754 558//754 557//754
f 561//755 562//755 563//755
f 564//756 565//756 566//756
f 563//757 565//757 561//757
f 567//758 564//758 562//758
f 563//759 564//759 566//759
f 561//760 568//760 567//760
f 561//755 567//755 562//755
f 564//756 568//756 565//756
f 563//757 566//757 565//757
f 567//758 568//758 564//758
f 563//759 562//759 564//759
f 561//760 565//760 568//760
f 569//761 570//761 571//761
f 572//762 573//762 574//762
f 571//763 574//763 569//763
f 570//764 573//764 575//764
f 570//765 572//765 571//765
f 574//766 576//766 569//766
f 569//761 576//761 570//761
f 572//762 575//762 573//762
f 571//767 572//767 574//767
f 570//768 576//768 573//768
f 570//765 575//765 572//765
f 574//769 573//769 576//769
f 577//770 578//770 579//770
f 580//771 581//771 582//771
f 582//772 583//772 577//772
f 578//773 580//773 579//773
f 579//774 582//774 577//774
f 581//775 578//775 583//775
f 577//770 583//770 578//770
f 580//771 584//771 581//771
f 582//772 581//772 583//772
f 578//773 584//773 580//773
f 579//774 580//774 582//774
f 581//775 584//775 578//775
f 585//776 586//776 587//776
f 588//777 589//777 590//777
f 588//778 585//778 587//778
f 586//779 589//779 591//779
f 587//780 591//780 588//780
f 590//781 592//781 585//781
f 585//776 592//776 586//776
f 588//777 591//777 589//777
f 588//778 590//778 585//778
f 586//779 592//779 589//779
f 587//782 586//782 591//782
f 590//781 589//781 592//781
f 593//783 594//783 595//783
f 596//784 597//784 598//784
f 596//785 593//785 595//785
f 599//786 600//786 594//786
f 594//787 596//787 595//787
f 593//788 597//788 599//788
f 593//783 599//783 594//783
f 596//784 600//784 597//784
f 596//785 598//785 593//785
f 599//786 597//786 600//786
f 594//787 600//787 596//787
f 593//788 598//788 597//788
f 601//789 602//789 603//789
f 604//790 605//790 606//790
f 606//791 601//791 603//791
f 602//792 607//792 604//792
f 602//793 606//793 603//793
f 605//794 608//794 601//794
f 601//789 608//789 602//789
f 604//795 607//795 605//795
f 606//796 605//796 601//796
f 602//792 608//792 607//792
f 602//797 604//797 606//797
f 605//798 607//798 608//798
f 609//799 610//799 611//799
f 612//800 613//800 614//800
f 609//801 613//801 615//801
f 610//802 612//802 611//802
f 611//803 614//803 609//803
f 615//804 616//804 610//804
f 609//805 615//805 610//805
f 612//806 616//806 613//806
f 609//807 614//807 613//807
f 610//802 616//802 612//802
f 611//808 612//808 614//808
f 615//804 613//804 616//804
