# Derived mesh: merged object boundaries; geometry and materials preserved.
mtllib building_ruins.mtl
o building_ruins
v 11.000000 8.000000 0.000000
v 19.000000 8.000000 0.000000
v 19.000000 8.000000 2.500000
v 16.600000 8.000000 4.250000
v 15.640000 8.000000 2.750000
v 14.200000 8.000000 5.000000
v 11.000000 8.000000 4.500000
v 11.000000 8.350000 0.000000
v 19.000000 8.350000 0.000000
v 19.000000 8.350000 2.500000
v 16.600000 8.350000 4.250000
v 15.640000 8.350000 2.750000
v 14.200000 8.350000 5.000000
v 11.000000 8.350000 4.500000
vn -0.0000 -1.0000 -0.0000
vn -0.0000 1.0000 -0.0000
vn -1.0000 -0.0000 -0.0000
vn -0.0000 -0.0000 -1.0000
vn 1.0000 -0.0000 -0.0000
vn 0.5892 -0.0000 0.8080
vn -0.8423 -0.0000 0.5391
vn 0.8423 -0.0000 0.5391
vn -0.1544 -0.0000 0.9880
v 11.714336 7.960481 2.750000
v 11.689569 7.962560 2.752690
v 11.675233 7.942079 2.752690
v 11.685663 7.919519 2.750000
v 11.710431 7.917440 2.747310
v 11.724767 7.937921 2.747310
v 11.914336 7.820481 4.700000
v 11.889568 7.822560 4.702689
v 11.875233 7.802079 4.702689
v 11.885663 7.779520 4.700000
v 11.910431 7.777440 4.697310
v 11.924767 7.797921 4.697310
v 11.700000 7.940000 2.750000
v 11.900000 7.800000 4.700000
vn 0.3924 0.6926 -0.6053
vn -0.3927 0.7585 -0.5200
vn -0.8471 0.1093 -0.5200
vn -0.5165 -0.6057 -0.6053
vn 0.2686 -0.6716 -0.6905
vn 0.7230 -0.0225 -0.6905
vn 0.5165 0.6057 0.6053
vn -0.2686 0.6716 0.6905
vn -0.7230 0.0224 0.6905
vn -0.3923 -0.6926 0.6053
vn 0.3927 -0.7585 0.5200
vn 0.8471 -0.1094 0.5200
vn -0.1018 0.0712 -0.9923
vn 0.1018 -0.0712 0.9923
v 12.857194 7.960481 2.750000
v 12.832363 7.962604 2.751986
v 12.818027 7.942123 2.751986
v 12.828521 7.919519 2.750000
v 12.853352 7.917396 2.748014
v 12.867687 7.937877 2.748014
v 13.057194 7.820481 5.400000
v 13.032363 7.822604 5.401986
v 13.018027 7.802123 5.401986
v 13.028521 7.779520 5.400000
v 13.053351 7.777396 5.398014
v 13.067687 7.797877 5.398014
v 12.842857 7.940000 2.750000
v 13.042857 7.800000 5.400000
vn 0.4086 0.6813 -0.6074
vn -0.3785 0.7485 -0.5445
vn -0.8329 0.0994 -0.5444
vn -0.5003 -0.6170 -0.6074
vn 0.2868 -0.6844 -0.6704
vn 0.7412 -0.0352 -0.6704
vn 0.5002 0.6171 0.6074
vn -0.2868 0.6844 0.6704
vn -0.7412 0.0352 0.6704
vn -0.4086 -0.6812 0.6074
vn 0.3785 -0.7485 0.5445
vn 0.8329 -0.0993 0.5445
vn -0.0752 0.0526 -0.9958
vn 0.0752 -0.0526 0.9958
v 14.000051 7.960481 2.750000
v 13.975283 7.962560 2.752690
v 13.960947 7.942079 2.752690
v 13.971377 7.919519 2.750000
v 13.996145 7.917440 2.747310
v 14.010481 7.937921 2.747310
v 14.200051 7.820481 4.700000
v 14.175283 7.822560 4.702689
v 14.160948 7.802079 4.702689
v 14.171378 7.779520 4.700000
v 14.196146 7.777440 4.697310
v 14.210482 7.797921 4.697310
v 13.985714 7.940000 2.750000
v 14.185715 7.800000 4.700000
vn 0.3923 0.6926 -0.6053
vn -0.3927 0.7585 -0.5200
vn -0.8471 0.1093 -0.5200
vn -0.5165 -0.6057 -0.6053
vn 0.2685 -0.6716 -0.6905
vn 0.7230 -0.0225 -0.6905
vn 0.5165 0.6057 0.6053
vn -0.2686 0.6716 0.6905
vn -0.7230 0.0225 0.6905
vn -0.3924 -0.6926 0.6053
vn 0.3927 -0.7585 0.5200
vn 0.8471 -0.1093 0.5200
vn -0.1018 0.0712 -0.9923
vn 0.1018 -0.0712 0.9923
v 15.142908 7.960481 2.750000
v 15.118077 7.962604 2.751986
v 15.103742 7.942123 2.751986
v 15.114235 7.919519 2.750000
v 15.139066 7.917396 2.748014
v 15.153401 7.937877 2.748014
v 15.342908 7.820481 5.400000
v 15.318077 7.822604 5.401986
v 15.303741 7.802123 5.401986
v 15.314235 7.779520 5.400000
v 15.339066 7.777396 5.398014
v 15.353401 7.797877 5.398014
v 15.128572 7.940000 2.750000
v 15.328571 7.800000 5.400000
vn 0.4086 0.6813 -0.6074
vn -0.3785 0.7485 -0.5445
vn -0.8329 0.0994 -0.5445
vn -0.5003 -0.6171 -0.6074
vn 0.2868 -0.6844 -0.6704
vn 0.7412 -0.0352 -0.6704
vn 0.5003 0.6171 0.6074
vn -0.2868 0.6844 0.6704
vn -0.7412 0.0352 0.6704
vn -0.4086 -0.6813 0.6074
vn 0.3785 -0.7485 0.5445
vn 0.8329 -0.0994 0.5445
vn -0.0752 0.0526 -0.9958
vn 0.0752 -0.0526 0.9958
v 16.285767 7.960481 2.750000
v 16.260998 7.962560 2.752690
v 16.246662 7.942079 2.752690
v 16.257092 7.919519 2.750000
v 16.281860 7.917440 2.747310
v 16.296196 7.937921 2.747310
v 16.485765 7.820481 4.700000
v 16.460997 7.822560 4.702689
v 16.446661 7.802079 4.702689
v 16.457090 7.779520 4.700000
v 16.481859 7.777440 4.697310
v 16.496195 7.797921 4.697310
v 16.271429 7.940000 2.750000
v 16.471428 7.800000 4.700000
vn 0.3924 0.6926 -0.6052
vn -0.3927 0.7585 -0.5200
vn -0.8471 0.1094 -0.5200
vn -0.5165 -0.6057 -0.6053
vn 0.2686 -0.6716 -0.6905
vn 0.7230 -0.0224 -0.6905
vn 0.5165 0.6057 0.6053
vn -0.2686 0.6716 0.6905
vn -0.7230 0.0225 0.6905
vn -0.3924 -0.6926 0.6052
vn 0.3927 -0.7585 0.5200
vn 0.8471 -0.1094 0.5200
vn -0.1018 0.0712 -0.9923
vn 0.1018 -0.0712 0.9923
v 17.428621 7.960481 2.750000
v 17.403791 7.962604 2.751986
v 17.389456 7.942123 2.751986
v 17.399950 7.919519 2.750000
v 17.424780 7.917396 2.748014
v 17.439116 7.937877 2.748014
v 17.628622 7.820481 5.400000
v 17.603792 7.822604 5.401986
v 17.589457 7.802123 5.401986
v 17.599951 7.779520 5.400000
v 17.624781 7.777396 5.398014
v 17.639116 7.797877 5.398014
v 17.414286 7.940000 2.750000
v 17.614286 7.800000 5.400000
vn 0.4086 0.6813 -0.6074
vn -0.3785 0.7485 -0.5445
vn -0.8329 0.0994 -0.5445
vn -0.5003 -0.6171 -0.6074
vn 0.2868 -0.6844 -0.6704
vn 0.7412 -0.0352 -0.6704
vn 0.5002 0.6171 0.6074
vn -0.2868 0.6844 0.6704
vn -0.7412 0.0352 0.6704
vn -0.4086 -0.6813 0.6074
vn 0.3785 -0.7486 0.5445
vn 0.8329 -0.0994 0.5445
vn -0.0752 0.0526 -0.9958
vn 0.0752 -0.0526 0.9958
v 16.000000 13.000000 0.000000
v 22.000000 13.000000 0.000000
v 22.000000 13.000000 1.900000
v 20.200001 13.000000 3.230000
v 19.480000 13.000000 2.090000
v 18.400000 13.000000 3.800000
v 16.000000 13.000000 3.420000
v 16.000000 13.350000 0.000000
v 22.000000 13.350000 0.000000
v 22.000000 13.350000 1.900000
v 20.200001 13.350000 3.230000
v 19.480000 13.350000 2.090000
v 18.400000 13.350000 3.800000
v 16.000000 13.350000 3.420000
vn -0.0000 -1.0000 -0.0000
vn -0.0000 1.0000 -0.0000
vn -1.0000 -0.0000 -0.0000
vn -0.0000 -0.0000 -1.0000
vn 1.0000 -0.0000 -0.0000
vn 0.5943 -0.0000 0.8043
vn -0.8455 -0.0000 0.5340
vn 0.8455 -0.0000 0.5340
vn -0.1564 -0.0000 0.9877
v 16.714336 12.960481 2.090000
v 16.689692 12.962474 2.093693
v 16.675356 12.941993 2.093693
v 16.685665 12.919518 2.090000
v 16.710310 12.917525 2.086306
v 16.724646 12.938006 2.086306
v 16.914335 12.820481 3.500000
v 16.889690 12.822474 3.503694
v 16.875355 12.801993 3.503694
v 16.885664 12.779519 3.500000
v 16.910309 12.777526 3.496306
v 16.924644 12.798007 3.496306
v 16.700001 12.940000 2.090000
v 16.900000 12.800000 3.500000
vn 0.3691 0.7089 -0.6010
vn -0.4120 0.7720 -0.4840
vn -0.8664 0.1229 -0.4840
vn -0.5397 -0.5895 -0.6011
vn 0.2415 -0.6527 -0.7181
vn 0.6959 -0.0034 -0.7181
vn 0.5397 0.5895 0.6010
vn -0.2415 0.6527 0.7181
vn -0.6959 0.0035 0.7181
vn -0.3691 -0.7089 0.6010
vn 0.4120 -0.7720 0.4840
vn 0.8664 -0.1228 0.4840
vn -0.1398 0.0978 -0.9853
vn 0.1398 -0.0978 0.9853
v 17.571478 12.960481 2.090000
v 17.546690 12.962574 2.092488
v 17.532354 12.942093 2.092488
v 17.542807 12.919518 2.090000
v 17.567595 12.917425 2.087512
v 17.581930 12.937906 2.087512
v 17.771479 12.820481 4.200000
v 17.746691 12.822575 4.202488
v 17.732355 12.802094 4.202488
v 17.742807 12.779519 4.200000
v 17.767595 12.777426 4.197511
v 17.781931 12.797907 4.197511
v 17.557142 12.940000 2.090000
v 17.757143 12.800000 4.200000
vn 0.3970 0.6894 -0.6059
vn -0.3887 0.7557 -0.5271
vn -0.8431 0.1065 -0.5271
vn -0.5118 -0.6090 -0.6059
vn 0.2738 -0.6753 -0.6848
vn 0.7282 -0.0261 -0.6848
vn 0.5119 0.6090 0.6059
vn -0.2738 0.6753 0.6848
vn -0.7282 0.0261 0.6848
vn -0.3969 -0.6894 0.6059
vn 0.3887 -0.7557 0.5271
vn 0.8431 -0.1065 0.5271
vn -0.0942 0.0659 -0.9934
vn 0.0942 -0.0659 0.9934
v 18.428621 12.960481 2.090000
v 18.403976 12.962474 2.093693
v 18.389641 12.941993 2.093693
v 18.399950 12.919518 2.090000
v 18.424595 12.917525 2.086306
v 18.438931 12.938006 2.086306
v 18.628622 12.820481 3.500000
v 18.603977 12.822474 3.503694
v 18.589642 12.801993 3.503694
v 18.599951 12.779519 3.500000
v 18.624596 12.777526 3.496306
v 18.638931 12.798007 3.496306
v 18.414286 12.940000 2.090000
v 18.614286 12.800000 3.500000
vn 0.3692 0.7088 -0.6011
vn -0.4120 0.7720 -0.4840
vn -0.8664 0.1229 -0.4840
vn -0.5397 -0.5895 -0.6010
vn 0.2415 -0.6527 -0.7181
vn 0.6959 -0.0035 -0.7181
vn 0.5396 0.5895 0.6010
vn -0.2415 0.6527 0.7181
vn -0.6959 0.0035 0.7181
vn -0.3692 -0.7089 0.6010
vn 0.4120 -0.7720 0.4840
vn 0.8664 -0.1228 0.4840
vn -0.1398 0.0978 -0.9853
vn 0.1398 -0.0978 0.9853
v 19.285765 12.960481 2.090000
v 19.260977 12.962574 2.092488
v 19.246641 12.942093 2.092488
v 19.257093 12.919518 2.090000
v 19.281881 12.917425 2.087512
v 19.296217 12.937906 2.087512
v 19.485764 12.820481 4.200000
v 19.460976 12.822575 4.202488
v 19.446640 12.802094 4.202488
v 19.457092 12.779519 4.200000
v 19.481880 12.777426 4.197511
v 19.496216 12.797907 4.197511
v 19.271429 12.940000 2.090000
v 19.471428 12.800000 4.200000
vn 0.3970 0.6894 -0.6059
vn -0.3887 0.7557 -0.5271
vn -0.8431 0.1065 -0.5271
vn -0.5118 -0.6090 -0.6059
vn 0.2739 -0.6753 -0.6848
vn 0.7283 -0.0261 -0.6848
vn 0.5119 0.6089 0.6059
vn -0.2738 0.6753 0.6848
vn -0.7282 0.0261 0.6848
vn -0.3970 -0.6894 0.6060
vn 0.3887 -0.7557 0.5271
vn 0.8431 -0.1066 0.5271
vn -0.0942 0.0659 -0.9934
vn 0.0942 -0.0659 0.9934
v 20.142906 12.960481 2.090000
v 20.118261 12.962474 2.093693
v 20.103926 12.941993 2.093693
v 20.114235 12.919518 2.090000
v 20.138880 12.917525 2.086306
v 20.153215 12.938006 2.086306
v 20.342907 12.820481 3.500000
v 20.318262 12.822474 3.503694
v 20.303926 12.801993 3.503694
v 20.314236 12.779519 3.500000
v 20.338881 12.777526 3.496306
v 20.353216 12.798007 3.496306
v 20.128571 12.940000 2.090000
v 20.328571 12.800000 3.500000
vn 0.3691 0.7089 -0.6010
vn -0.4120 0.7720 -0.4840
vn -0.8664 0.1228 -0.4840
vn -0.5396 -0.5895 -0.6010
vn 0.2415 -0.6527 -0.7181
vn 0.6959 -0.0035 -0.7181
vn 0.5397 0.5895 0.6010
vn -0.2415 0.6527 0.7181
vn -0.6959 0.0035 0.7181
vn -0.3692 -0.7088 0.6011
vn 0.4120 -0.7720 0.4840
vn 0.8664 -0.1229 0.4839
vn -0.1398 0.0978 -0.9853
vn 0.1398 -0.0978 0.9853
v 21.000050 12.960481 2.090000
v 20.975262 12.962574 2.092488
v 20.960926 12.942093 2.092488
v 20.971378 12.919518 2.090000
v 20.996166 12.917425 2.087512
v 21.010502 12.937906 2.087512
v 21.200050 12.820481 4.200000
v 21.175262 12.822575 4.202488
v 21.160927 12.802094 4.202488
v 21.171379 12.779519 4.200000
v 21.196167 12.777426 4.197511
v 21.210503 12.797907 4.197511
v 20.985714 12.940000 2.090000
v 21.185715 12.800000 4.200000
vn 0.3970 0.6894 -0.6059
vn -0.3887 0.7557 -0.5271
vn -0.8431 0.1065 -0.5271
vn -0.5118 -0.6090 -0.6059
vn 0.2739 -0.6753 -0.6848
vn 0.7283 -0.0261 -0.6848
vn 0.5119 0.6090 0.6059
vn -0.2738 0.6753 0.6848
vn -0.7283 0.0262 0.6848
vn -0.3970 -0.6894 0.6060
vn 0.3887 -0.7557 0.5271
vn 0.8431 -0.1065 0.5271
vn -0.0942 0.0659 -0.9934
vn 0.0942 -0.0659 0.9934
v 10.000000 17.000000 0.000000
v 17.000000 17.000000 0.000000
v 17.000000 17.000000 1.400000
v 14.900000 17.000000 2.380000
v 14.060000 17.000000 1.540000
v 12.800000 17.000000 2.800000
v 10.000000 17.000000 2.520000
v 10.000000 17.350000 0.000000
v 17.000000 17.350000 0.000000
v 17.000000 17.350000 1.400000
v 14.900000 17.350000 2.380000
v 14.060000 17.350000 1.540000
v 12.800000 17.350000 2.800000
v 10.000000 17.350000 2.520000
vn -0.0000 -1.0000 -0.0000
vn -0.0000 1.0000 -0.0000
vn -1.0000 -0.0000 -0.0000
vn -0.0000 -0.0000 -1.0000
vn 1.0000 -0.0000 -0.0000
vn 0.4229 -0.0000 0.9062
vn -0.7071 -0.0000 0.7071
vn 0.7071 -0.0000 0.7071
vn -0.0995 -0.0000 0.9950
v 10.714336 16.960482 1.540000
v 10.689979 16.962275 1.545336
v 10.675641 16.941793 1.545336
v 10.685663 16.919519 1.540000
v 10.710021 16.917727 1.534664
v 10.724359 16.938208 1.534664
v 10.914336 16.820480 2.500000
v 10.889978 16.822273 2.505336
v 10.875641 16.801792 2.505336
v 10.885663 16.779518 2.500000
v 10.910021 16.777725 2.494664
v 10.924358 16.798206 2.494664
v 10.700000 16.940001 1.540000
v 10.900000 16.799999 2.500000
vn 0.3313 0.7354 -0.5912
vn -0.4408 0.7922 -0.4220
vn -0.8952 0.1430 -0.4221
vn -0.5776 -0.5630 -0.5912
vn 0.1944 -0.6198 -0.7603
vn 0.6489 0.0294 -0.7603
vn 0.5776 0.5630 0.5912
vn -0.1945 0.6198 0.7603
vn -0.6489 -0.0294 0.7603
vn -0.3313 -0.7354 0.5912
vn 0.4408 -0.7922 0.4221
vn 0.8952 -0.1430 0.4220
vn -0.2019 0.1413 -0.9692
vn 0.2019 -0.1413 0.9692
v 11.714336 16.960482 1.540000
v 11.689621 16.962524 1.543150
v 11.675283 16.942043 1.543150
v 11.685663 16.919519 1.540000
v 11.710379 16.917477 1.536850
v 11.724716 16.937958 1.536850
v 11.914336 16.820480 3.200000
v 11.889621 16.822523 3.203150
v 11.875283 16.802042 3.203150
v 11.885663 16.779518 3.200000
v 11.910378 16.777475 3.196850
v 11.924716 16.797956 3.196850
v 11.700000 16.940001 1.540000
v 11.900000 16.799999 3.200000
vn 0.3817 0.7001 -0.6035
vn -0.4017 0.7649 -0.5036
vn -0.8561 0.1157 -0.5036
vn -0.5271 -0.5983 -0.6035
vn 0.2563 -0.6630 -0.7034
vn 0.7107 -0.0138 -0.7033
vn 0.5271 0.5983 0.6035
vn -0.2563 0.6630 0.7034
vn -0.7107 0.0138 0.7033
vn -0.3817 -0.7001 0.6035
vn 0.4017 -0.7648 0.5036
vn 0.8561 -0.1157 0.5037
vn -0.1192 0.0834 -0.9894
vn 0.1192 -0.0834 0.9894
v 12.714336 16.960482 1.540000
v 12.689979 16.962275 1.545336
v 12.675641 16.941793 1.545336
v 12.685663 16.919519 1.540000
v 12.710021 16.917727 1.534664
v 12.724359 16.938208 1.534664
v 12.914336 16.820480 2.500000
v 12.889978 16.822273 2.505336
v 12.875641 16.801792 2.505336
v 12.885663 16.779518 2.500000
v 12.910021 16.777725 2.494664
v 12.924358 16.798206 2.494664
v 12.700000 16.940001 1.540000
v 12.900000 16.799999 2.500000
vn 0.3313 0.7354 -0.5912
vn -0.4408 0.7922 -0.4220
vn -0.8952 0.1430 -0.4221
vn -0.5776 -0.5630 -0.5912
vn 0.1944 -0.6198 -0.7603
vn 0.6489 0.0294 -0.7603
vn 0.5776 0.5629 0.5912
vn -0.1945 0.6198 0.7603
vn -0.6489 -0.0294 0.7603
vn -0.3312 -0.7354 0.5912
vn 0.4408 -0.7922 0.4221
vn 0.8952 -0.1430 0.4220
vn -0.2019 0.1413 -0.9692
vn 0.2019 -0.1413 0.9692
v 13.714336 16.960482 1.540000
v 13.689621 16.962524 1.543150
v 13.675283 16.942043 1.543150
v 13.685663 16.919519 1.540000
v 13.710379 16.917477 1.536850
v 13.724716 16.937958 1.536850
v 13.914336 16.820480 3.200000
v 13.889621 16.822523 3.203150
v 13.875283 16.802042 3.203150
v 13.885663 16.779518 3.200000
v 13.910378 16.777475 3.196850
v 13.924716 16.797956 3.196850
v 13.700000 16.940001 1.540000
v 13.900000 16.799999 3.200000
vn 0.3817 0.7001 -0.6035
vn -0.4017 0.7648 -0.5037
vn -0.8561 0.1156 -0.5036
vn -0.5271 -0.5983 -0.6035
vn 0.2563 -0.6630 -0.7034
vn 0.7107 -0.0139 -0.7033
vn 0.5271 0.5983 0.6035
vn -0.2563 0.6630 0.7033
vn -0.7107 0.0139 0.7034
vn -0.3817 -0.7001 0.6035
vn 0.4017 -0.7648 0.5036
vn 0.8561 -0.1157 0.5036
vn -0.1192 0.0834 -0.9894
vn 0.1192 -0.0834 0.9894
v 14.714336 16.960482 1.540000
v 14.689979 16.962275 1.545336
v 14.675641 16.941793 1.545336
v 14.685663 16.919519 1.540000
v 14.710021 16.917727 1.534664
v 14.724359 16.938208 1.534664
v 14.914336 16.820480 2.500000
v 14.889978 16.822273 2.505336
v 14.875641 16.801792 2.505336
v 14.885663 16.779518 2.500000
v 14.910021 16.777725 2.494664
v 14.924358 16.798206 2.494664
v 14.700000 16.940001 1.540000
v 14.900000 16.799999 2.500000
vn 0.3313 0.7354 -0.5912
vn -0.4408 0.7922 -0.4220
vn -0.8952 0.1430 -0.4221
vn -0.5776 -0.5630 -0.5912
vn 0.1944 -0.6198 -0.7603
vn 0.6489 0.0294 -0.7603
vn 0.5776 0.5629 0.5912
vn -0.1945 0.6198 0.7603
vn -0.6489 -0.0294 0.7603
vn -0.3313 -0.7354 0.5912
vn 0.4408 -0.7922 0.4221
vn 0.8952 -0.1430 0.4220
vn -0.2019 0.1413 -0.9692
vn 0.2019 -0.1413 0.9692
v 15.714336 16.960482 1.540000
v 15.689621 16.962524 1.543150
v 15.675283 16.942043 1.543150
v 15.685663 16.919519 1.540000
v 15.710379 16.917477 1.536850
v 15.724716 16.937958 1.536850
v 15.914336 16.820480 3.200000
v 15.889621 16.822523 3.203150
v 15.875283 16.802042 3.203150
v 15.885663 16.779518 3.200000
v 15.910378 16.777475 3.196850
v 15.924716 16.797956 3.196850
v 15.700000 16.940001 1.540000
v 15.900000 16.799999 3.200000
vn 0.3817 0.7001 -0.6035
vn -0.4017 0.7648 -0.5036
vn -0.8561 0.1157 -0.5036
vn -0.5271 -0.5983 -0.6035
vn 0.2563 -0.6630 -0.7033
vn 0.7107 -0.0139 -0.7033
vn 0.5271 0.5983 0.6035
vn -0.2563 0.6630 0.7033
vn -0.7107 0.0139 0.7034
vn -0.3817 -0.7001 0.6035
vn 0.4017 -0.7649 0.5036
vn 0.8561 -0.1157 0.5036
vn -0.1192 0.0834 -0.9894
vn 0.1192 -0.0834 0.9894
v 19.954908 11.071531 0.406412
v 19.976334 11.021513 0.390947
v 19.984251 11.066998 0.358261
v 22.912115 9.943526 -0.397979
v 22.963509 9.966807 -0.402082
v 22.920034 9.989012 -0.430665
v 20.914734 13.419193 0.770306
v 20.944077 13.414660 0.722155
v 20.966125 13.442474 0.766203
v 23.923332 12.314468 -0.038188
v 23.901909 12.364487 -0.022723
v 23.879858 12.336673 -0.066770
v 20.011662 10.977335 0.582780
v 19.990238 11.027353 0.598245
v 20.033712 11.005149 0.626828
v 22.947445 9.899347 -0.206145
v 22.969494 9.927161 -0.162098
v 22.998837 9.922628 -0.210248
v 20.950062 13.375014 0.962139
v 21.001455 13.398295 0.958036
v 20.993536 13.352810 0.990722
v 23.937237 12.320309 0.169111
v 23.958662 12.270290 0.153646
v 23.929319 12.274823 0.201796
vn 0.8438 0.2086 0.4946
vn -0.2072 0.5945 0.7770
vn 0.4112 -0.8495 0.3305
vn -0.6398 -0.4635 0.6130
vn 0.6398 0.4635 -0.6130
vn -0.4113 0.8495 -0.3306
vn 0.2072 -0.5945 -0.7770
vn -0.8438 -0.2085 -0.4946
vn 0.7685 -0.3925 0.5053
vn 0.3898 0.4917 0.7787
vn -0.5187 0.0801 0.8512
vn -0.1400 -0.8041 0.5778
vn 0.1400 0.8041 -0.5778
vn 0.5187 -0.0801 -0.8512
vn -0.3898 -0.4917 -0.7787
vn -0.7685 0.3925 -0.5053
vn 0.9085 0.4116 -0.0725
vn -0.3787 0.8842 0.2734
vn 0.3787 -0.8842 -0.2734
vn -0.9085 -0.4116 0.0725
vn 0.9102 -0.3342 -0.2446
vn 0.1766 -0.2209 0.9592
vn 0.3746 0.9162 0.1420
vn -0.9102 0.3342 0.2446
vn -0.3746 -0.9162 -0.1420
vn -0.1766 0.2209 -0.9592
v 10.242938 7.073764 -0.697715
v 10.269121 7.123576 -0.703480
v 10.217493 7.116062 -0.725344
v 9.424515 10.611343 0.092348
v 9.379951 10.637440 0.115433
v 9.372887 10.603829 0.070483
v 8.424434 6.464184 0.043843
v 8.398989 6.506483 0.016214
v 8.379869 6.490281 0.066928
v 7.561446 10.027860 0.856991
v 7.535263 9.978048 0.862756
v 7.554382 9.994249 0.812041
v 10.350393 7.101855 -0.522033
v 10.324211 7.052043 -0.516268
v 10.331274 7.085653 -0.471319
v 9.505788 10.589622 0.273795
v 9.486668 10.573420 0.324509
v 9.461223 10.615719 0.296880
v 8.505706 6.442463 0.225290
v 8.461142 6.468560 0.248375
v 8.512770 6.476073 0.270240
v 7.616535 9.956327 1.044203
v 7.642718 10.006139 1.038438
v 7.668164 9.963840 1.066067
vn -0.4086 0.3140 0.8570
vn -0.1433 -0.7817 0.6070
vn 0.6125 0.6562 0.4406
vn 0.8779 -0.4394 0.1906
vn -0.8779 0.4394 -0.1906
vn -0.6125 -0.6562 -0.4406
vn 0.1433 0.7817 -0.6070
vn 0.4086 -0.3140 -0.8570
vn 0.1249 0.5941 0.7946
vn -0.3380 -0.2864 0.8965
vn 0.4498 -0.7477 0.4884
vn 0.9127 0.1328 0.3865
vn -0.9127 -0.1328 -0.3865
vn -0.4498 0.7477 -0.4884
vn 0.3380 0.2864 -0.8965
vn -0.1249 -0.5942 -0.7946
vn -0.7878 0.4613 0.4081
vn -0.4629 -0.8806 0.1019
vn 0.4629 0.8806 -0.1019
vn 0.7878 -0.4613 -0.4081
vn -0.2298 0.9489 0.2165
vn 0.4064 -0.1086 0.9072
vn -0.8843 -0.2964 0.3606
vn 0.2298 -0.9489 -0.2165
vn 0.8843 0.2964 -0.3606
vn -0.4064 0.1086 -0.9072
vn 0.4498 -0.7478 0.4884
vn -0.1249 -0.5941 -0.7946
vn -0.4628 -0.8806 0.1019
v 11.748086 4.590665 0.307359
v 11.800694 4.574661 0.320638
v 11.790994 4.602872 0.272575
v 13.697309 5.586091 0.531534
v 13.714953 5.639558 0.526066
v 13.687609 5.614302 0.483471
v 10.658562 6.755537 -0.276848
v 10.701469 6.767745 -0.311632
v 10.676207 6.809004 -0.282316
v 12.625429 7.804430 -0.058141
v 12.572822 7.820434 -0.071420
v 12.598084 7.779174 -0.100736
v 11.761786 4.607284 0.514086
v 11.709179 4.623287 0.500806
v 11.736524 4.648543 0.543402
v 13.658401 5.618713 0.724981
v 13.633139 5.659973 0.754297
v 13.676046 5.672180 0.719514
v 10.619655 6.788159 -0.083401
v 10.637300 6.841627 -0.088868
v 10.646999 6.813416 -0.040805
v 12.533915 7.853056 0.122027
v 12.586522 7.837052 0.135307
v 12.543614 7.824845 0.170090
vn 0.1424 0.8659 0.4795
vn -0.8716 0.3252 0.3668
vn 0.6470 -0.1368 0.7501
vn -0.3670 -0.6776 0.6373
vn 0.3670 0.6776 -0.6373
vn -0.6470 0.1368 -0.7501
vn 0.8717 -0.3251 -0.3668
vn -0.1424 -0.8659 -0.4795
vn 0.4834 0.4465 0.7530
vn -0.4466 0.7294 0.5182
vn -0.7585 -0.2158 0.6149
vn 0.1715 -0.4987 0.8496
vn -0.1715 0.4987 -0.8496
vn 0.7585 0.2158 -0.6149
vn 0.4466 -0.7294 -0.5182
vn -0.4834 -0.4465 -0.7530
vn 0.3119 0.9452 -0.0967
vn -0.9300 0.2829 -0.2347
vn 0.9300 -0.2829 0.2347
vn -0.3119 -0.9452 0.0967
vn 0.8782 0.4683 0.0976
vn -0.1945 0.1631 0.9672
vn -0.4370 0.8684 -0.2343
vn -0.8782 -0.4683 -0.0976
vn 0.4370 -0.8684 0.2343
vn 0.1945 -0.1631 -0.9672
vn 0.4466 -0.7294 -0.5183
vn -0.9300 0.2829 -0.2348
vn 0.9300 -0.2828 0.2348
v 16.412830 16.552822 0.100329
v 16.391039 16.500658 0.098340
v 16.428572 16.517138 0.059356
v 17.256977 14.394249 0.041551
v 17.309174 14.372446 0.041545
v 17.294508 14.410729 0.002567
v 18.076857 17.235697 0.144938
v 18.092600 17.200010 0.103966
v 18.129055 17.213894 0.144933
v 18.973202 15.055319 0.086155
v 18.994991 15.107485 0.088144
v 18.958536 15.093602 0.047177
v 16.388348 16.494162 0.298216
v 16.410137 16.546328 0.300205
v 16.424803 16.508043 0.339183
v 17.254284 14.387753 0.241427
v 17.290739 14.401636 0.282394
v 17.306482 14.365951 0.241422
v 18.074165 17.229200 0.344815
v 18.126362 17.207397 0.344809
v 18.088831 17.190916 0.383793
v 18.992300 15.100989 0.288020
v 18.970509 15.048823 0.286031
v 18.954767 15.084509 0.327004
vn 0.7456 -0.3335 0.5769
vn 0.3067 0.7342 0.6057
vn -0.3223 -0.7717 0.5483
vn -0.7612 0.2960 0.5771
vn 0.7612 -0.2959 -0.5771
vn 0.3223 0.7717 -0.5483
vn -0.3067 -0.7342 -0.6057
vn -0.7457 0.3335 -0.5769
vn 0.2593 -0.6768 0.6891
vn 0.6444 0.2454 0.7242
vn -0.2783 0.6308 0.7243
vn -0.6635 -0.2913 0.6892
vn 0.6635 0.2913 -0.6891
vn 0.2783 -0.6308 -0.7243
vn -0.6445 -0.2454 -0.7242
vn -0.2593 0.6768 -0.6890
vn 0.9227 -0.3854 -0.0001
vn 0.3852 0.9222 0.0352
vn -0.3852 -0.9222 -0.0352
vn -0.9227 0.3854 0.0001
vn 0.3801 -0.9246 -0.0249
vn -0.0135 -0.0325 0.9994
vn 0.9248 0.3795 0.0248
vn -0.3801 0.9246 0.0249
vn -0.9248 -0.3795 -0.0248
vn 0.0135 0.0325 -0.9994
vn 0.2592 -0.6768 0.6891
vn 0.6445 0.2454 0.7242
vn -0.6635 -0.2913 0.6891
vn -0.6444 -0.2454 -0.7242
vn -0.2592 0.6768 -0.6891
vn -0.3852 -0.9222 -0.0351
vn -0.9228 0.3854 0.0001
v 7.524061 6.526396 0.760569
v 7.534005 6.471363 0.769086
v 7.542892 6.494148 0.718078
v 10.569207 4.126163 0.250379
v 10.621998 4.132723 0.231141
v 10.578094 4.148948 0.199371
v 8.770000 8.317430 -0.046550
v 8.788831 8.285183 -0.089041
v 8.822791 8.323991 -0.065789
v 11.867936 5.923759 -0.575978
v 11.857993 5.978791 -0.584496
v 11.824034 5.939982 -0.607748
v 7.596684 6.511423 0.954738
v 7.586741 6.566455 0.946220
v 7.630644 6.550231 0.977990
v 10.631886 4.166223 0.436031
v 10.665847 4.205030 0.459283
v 10.684677 4.172783 0.416792
v 8.832680 8.357491 0.139101
v 8.885470 8.364050 0.119863
v 8.876583 8.341266 0.170871
v 11.920673 6.018850 -0.398844
v 11.930616 5.963818 -0.390327
v 11.911785 5.996066 -0.347836
vn 0.9429 0.2103 0.2582
vn 0.0374 0.9100 0.4130
vn 0.3244 -0.6787 0.6589
vn -0.5810 0.0209 0.8136
vn 0.5810 -0.0209 -0.8136
vn -0.3245 0.6787 -0.6589
vn -0.0374 -0.9100 -0.4130
vn -0.9429 -0.2103 -0.2583
vn 0.7761 -0.2868 0.5616
vn 0.6003 0.6860 0.4110
vn -0.3329 0.5701 0.7511
vn -0.1571 -0.4028 0.9017
vn 0.1571 0.4028 -0.9017
vn 0.3329 -0.5701 -0.7511
vn -0.6003 -0.6860 -0.4110
vn -0.7761 0.2868 -0.5616
vn 0.9332 0.1160 -0.3401
vn -0.1758 0.9728 -0.1506
vn 0.1758 -0.9728 0.1506
vn -0.9332 -0.1159 0.3401
vn 0.7842 -0.6059 -0.1340
vn 0.3134 0.2003 0.9283
vn 0.5356 0.7699 -0.3470
vn -0.7842 0.6059 0.1340
vn -0.5356 -0.7699 0.3469
vn -0.3134 -0.2003 -0.9283
vn -0.9332 -0.1160 0.3401
vn -0.5356 -0.7699 0.3470
v 8.953866 10.169765 -0.453789
v 8.904315 10.197042 -0.452985
v 8.908699 10.147121 -0.479229
v 7.023095 9.728667 0.123731
v 6.998239 9.682864 0.145738
v 7.027479 9.678746 0.097488
v 9.627059 8.177583 0.124198
v 9.581892 8.154940 0.098759
v 9.602202 8.131781 0.146205
v 7.671432 7.690682 0.723725
v 7.720983 7.663405 0.722921
v 7.700672 7.686564 0.675475
v 8.944135 10.263946 -0.268762
v 8.993686 10.236669 -0.269566
v 8.964445 10.240788 -0.221316
v 7.062914 9.795570 0.307955
v 7.083226 9.772411 0.355401
v 7.038058 9.749768 0.329961
v 9.666879 8.244487 0.308422
v 9.642022 8.198684 0.330428
v 9.637638 8.248605 0.356672
v 7.760802 7.730309 0.907145
v 7.711251 7.757586 0.907949
v 7.756418 7.780230 0.933388
vn -0.2438 -0.4679 0.8495
vn 0.8302 -0.2006 0.5202
vn -0.6003 0.5869 0.5434
vn 0.4737 0.8542 0.2142
vn -0.4737 -0.8542 -0.2142
vn 0.6003 -0.5868 -0.5434
vn -0.8302 0.2006 -0.5202
vn 0.2438 0.4680 -0.8494
vn -0.5169 0.0728 0.8529
vn 0.3590 -0.4094 0.8387
vn 0.7985 0.4003 0.4497
vn -0.0775 0.8825 0.4639
vn 0.0775 -0.8825 -0.4639
vn -0.7984 -0.4003 -0.4497
vn -0.3591 0.4094 -0.8387
vn 0.5169 -0.0728 -0.8529
vn -0.4394 -0.8097 0.3890
vn 0.8759 -0.4822 -0.0142
vn -0.8759 0.4822 0.0142
vn 0.4394 0.8097 -0.3890
vn -0.9301 -0.2316 0.2851
vn 0.1991 0.3345 0.9211
vn 0.3087 -0.9135 0.2650
vn 0.9301 0.2316 -0.2851
vn -0.3087 0.9135 -0.2650
vn -0.1991 -0.3345 -0.9211
vn 0.3591 -0.4094 0.8387
vn -0.7985 -0.4003 -0.4497
v 11.657887 13.186762 0.011333
v 11.633987 13.234169 0.030863
v 11.613374 13.209118 -0.015478
v 9.545121 13.836017 0.634673
v 9.494951 13.809951 0.636553
v 9.524508 13.810966 0.588331
v 11.169991 11.822239 -0.316439
v 11.125479 11.844595 -0.343250
v 11.119822 11.796173 -0.314558
v 9.007056 12.445428 0.308781
v 9.030955 12.398021 0.289252
v 9.036613 12.446444 0.260559
v 11.671376 13.175740 0.218448
v 11.695275 13.128333 0.198919
v 11.665719 13.127317 0.247141
v 9.582510 13.777588 0.822258
v 9.576853 13.729166 0.850950
v 9.532340 13.751522 0.824139
v 11.207380 11.763810 -0.128853
v 11.157210 11.737744 -0.126973
v 11.177824 11.762795 -0.080631
v 9.068344 12.339592 0.476837
v 9.044445 12.386999 0.496366
v 9.088958 12.364643 0.523178
vn -0.6162 -0.5449 0.5687
vn 0.4529 -0.8529 0.2596
vn -0.2370 0.5156 0.8234
vn 0.8321 0.2076 0.5144
vn -0.8321 -0.2076 -0.5144
vn 0.2370 -0.5156 -0.8234
vn -0.4529 0.8529 -0.2596
vn 0.6162 0.5449 -0.5686
vn -0.5225 -0.0180 0.8525
vn -0.1000 -0.8560 0.5072
vn 0.7869 -0.3952 0.4740
vn 0.3644 0.4429 0.8192
vn -0.3644 -0.4428 -0.8192
vn -0.7869 0.3952 -0.4740
vn 0.1000 0.8560 -0.5072
vn 0.5225 0.0179 -0.8525
vn -0.8869 -0.4608 0.0333
vn 0.4225 -0.8381 -0.3452
vn -0.4225 0.8381 0.3452
vn 0.8869 0.4608 -0.0332
vn -0.9259 0.2668 0.2676
vn 0.1869 -0.2921 0.9379
vn -0.3284 -0.9184 -0.2206
vn 0.9259 -0.2668 -0.2676
vn 0.3284 0.9184 0.2206
vn -0.1869 0.2921 -0.9379
vn -0.5225 -0.0179 0.8525
vn 0.3644 0.4428 0.8192
vn -0.3644 -0.4429 -0.8192
vn 0.5225 0.0180 -0.8525
vn -0.8869 -0.4608 0.0332
v 15.020022 13.521237 0.170465
v 14.993666 13.473544 0.155277
v 15.039987 13.490342 0.127489
v 15.987124 10.039138 -0.264756
v 16.035559 10.010507 -0.258903
v 16.033445 10.055936 -0.292544
v 16.990761 14.023502 0.724867
v 17.010725 13.992607 0.681891
v 17.039196 13.994871 0.730720
v 18.006298 10.512772 0.295499
v 18.032656 10.560465 0.310687
v 18.004185 10.558201 0.261858
v 14.949041 13.437210 0.346820
v 14.975398 13.484903 0.362007
v 14.977512 13.439474 0.395648
v 15.942500 10.002804 -0.073213
v 15.970972 10.005068 -0.024385
v 15.990935 9.974173 -0.067360
v 16.946138 13.987168 0.916410
v 16.994574 13.958537 0.922263
v 16.948252 13.941739 0.950051
v 17.988031 10.524131 0.502229
v 17.961674 10.476438 0.487042
v 17.941711 10.507333 0.530018
vn 0.5703 -0.5181 0.6374
vn 0.2516 0.5835 0.7721
vn -0.5093 -0.7933 0.3337
vn -0.8279 0.3084 0.4684
vn 0.8279 -0.3083 -0.4685
vn 0.5092 0.7933 -0.3337
vn -0.2516 -0.5835 -0.7722
vn -0.5703 0.5181 -0.6374
vn 0.0374 -0.8031 0.5947
vn 0.5033 0.0400 0.8632
vn -0.3529 0.5462 0.7597
vn -0.8189 -0.2969 0.4912
vn 0.8189 0.2969 -0.4912
vn 0.3529 -0.5462 -0.7597
vn -0.5033 -0.0400 -0.8632
vn -0.0374 0.8031 -0.5947
vn 0.8562 -0.5061 0.1035
vn 0.4660 0.8431 0.2685
vn -0.4659 -0.8431 -0.2685
vn -0.8562 0.5061 -0.1035
vn 0.2760 -0.9541 -0.1167
vn -0.2231 -0.1817 0.9577
vn 0.9349 0.2383 0.2630
vn -0.2760 0.9541 0.1167
vn -0.9349 -0.2383 -0.2630
vn 0.2231 0.1817 -0.9577
vn -0.8189 -0.2970 0.4912
vn 0.8188 0.2969 -0.4912
vn 0.3529 -0.5461 -0.7597
vn 0.4659 0.8431 0.2685
vn -0.4660 -0.8431 -0.2685
vn -0.8562 0.5062 -0.1035
v 17.176821 15.038302 0.155006
v 17.195776 14.985147 0.158904
v 17.211945 15.017842 0.115665
v 19.743835 13.772865 0.195048
v 19.797115 13.791655 0.192174
v 19.760004 13.805561 0.151809
v 17.724771 16.186804 0.046915
v 17.759895 16.166344 0.007574
v 17.778051 16.205593 0.044041
v 20.345068 14.940156 0.084083
v 20.326113 14.993312 0.080185
v 20.307957 14.954063 0.043718
v 17.200743 15.001531 0.358170
v 17.181787 15.054687 0.354272
v 17.218899 15.040779 0.394637
v 19.748804 13.789249 0.394313
v 19.766960 13.828498 0.430781
v 19.802084 13.808039 0.391440
v 17.729740 16.203188 0.246181
v 17.783020 16.221977 0.243307
v 17.766851 16.189281 0.286546
v 20.331079 15.009695 0.279451
v 20.350035 14.956540 0.283349
v 20.314911 14.977000 0.322690
vn 0.7834 0.3185 0.5337
vn -0.2593 0.8146 0.5189
vn 0.2879 -0.7200 0.6314
vn -0.7547 -0.2238 0.6167
vn 0.7547 0.2239 -0.6167
vn -0.2879 0.7200 -0.6314
vn 0.2593 -0.8146 -0.5189
vn -0.7833 -0.3185 -0.5338
vn 0.6560 -0.2458 0.7136
vn 0.3210 0.6938 0.6446
vn -0.6209 0.3617 0.6954
vn -0.2858 -0.5780 0.7644
vn 0.2858 0.5780 -0.7644
vn 0.6209 -0.3617 -0.6955
vn -0.3210 -0.6938 -0.6447
vn -0.6560 0.2458 -0.7136
vn 0.9419 0.3321 -0.0508
vn -0.3351 0.9397 -0.0689
vn 0.3351 -0.9397 0.0689
vn -0.9419 -0.3321 0.0508
vn 0.9029 -0.4296 0.0128
vn 0.0248 0.0819 0.9963
vn 0.4291 0.8993 -0.0846
vn -0.9029 0.4296 -0.0128
vn -0.4291 -0.8993 0.0846
vn -0.0248 -0.0819 -0.9963
vn -0.6209 0.3617 0.6955
vn 0.6209 -0.3617 -0.6954
vn -0.3210 -0.6938 -0.6446
vn -0.9418 -0.3322 0.0508
v 10.602689 12.683835 0.014048
v 10.575151 12.732491 0.005430
v 10.560926 12.686339 -0.024026
v 7.463599 13.650414 0.069875
v 7.414421 13.624390 0.080082
v 7.449374 13.604262 0.040419
v 10.246417 11.454397 0.323971
v 10.204655 11.456902 0.285896
v 10.197239 11.428372 0.334178
v 7.058149 12.394952 0.390004
v 7.085687 12.346295 0.398623
v 7.093102 12.374825 0.350341
v 10.592174 12.776549 0.199773
v 10.619711 12.727893 0.208391
v 10.584758 12.748020 0.248054
v 7.480621 13.694472 0.264218
v 7.473205 13.665943 0.312499
v 7.431443 13.668447 0.274425
v 10.263440 11.498455 0.518313
v 10.214261 11.472430 0.528521
v 10.228486 11.518582 0.557976
v 7.102709 12.390353 0.592966
v 7.075171 12.439010 0.584347
v 7.116934 12.436505 0.622421
vn -0.6607 -0.2485 0.7084
vn 0.4466 -0.5751 0.6854
vn -0.3483 0.8295 0.4366
vn 0.7590 0.5028 0.4137
vn -0.7590 -0.5028 -0.4137
vn 0.3483 -0.8295 -0.4366
vn -0.4466 0.5751 -0.6854
vn 0.6607 0.2484 -0.7083
vn -0.6179 0.3558 0.7012
vn -0.1311 -0.5043 0.8535
vn 0.7383 -0.0443 0.6731
vn 0.2515 0.8159 0.5207
vn -0.2515 -0.8158 -0.5207
vn -0.7383 0.0443 -0.6731
vn 0.1311 0.5043 -0.8535
vn 0.6179 -0.3558 -0.7011
vn -0.8693 -0.4601 0.1804
vn 0.4868 -0.8601 0.1524
vn -0.4868 0.8601 -0.1523
vn 0.8694 0.4601 -0.1804
vn -0.9589 0.2829 0.0199
vn 0.0851 0.2203 0.9717
vn -0.2705 -0.9335 0.2353
vn 0.9589 -0.2829 -0.0199
vn 0.2705 0.9335 -0.2353
vn -0.0851 -0.2203 -0.9717
vn -0.6179 0.3558 0.7011
vn -0.2515 -0.8159 -0.5207
vn 0.6179 -0.3558 -0.7012
vn -0.8694 -0.4601 0.1804
vn 0.4868 -0.8601 0.1523
vn -0.4868 0.8601 -0.1524
v 12.364758 16.605661 0.073465
v 12.404700 16.641005 0.054609
v 12.354669 16.638268 0.028353
v 12.520777 19.189781 -0.432296
v 12.484410 19.232939 -0.428437
v 12.470745 19.187042 -0.458552
v 10.077918 16.839853 0.754199
v 10.067828 16.872459 0.709087
v 10.041552 16.883011 0.758058
v 10.197570 19.467129 0.252298
v 10.157628 19.431787 0.271154
v 10.183905 19.421234 0.222182
v 12.464086 16.674227 0.242677
v 12.424144 16.638885 0.261533
v 12.437809 16.684780 0.291648
v 12.580162 19.223003 -0.244228
v 12.553885 19.233555 -0.195257
v 12.543796 19.266161 -0.240368
v 10.137303 16.873075 0.942267
v 10.100937 16.916233 0.946127
v 10.150969 16.918972 0.972383
v 10.217013 19.465010 0.459222
v 10.256955 19.500353 0.440366
v 10.267045 19.467747 0.485478
vn -0.3535 0.7188 0.5986
vn -0.4051 -0.4142 0.8151
vn 0.7479 0.6060 0.2708
vn 0.6963 -0.5270 0.4872
vn -0.6963 0.5270 -0.4872
vn -0.7479 -0.6060 -0.2708
vn 0.4051 0.4142 -0.8151
vn 0.3535 -0.7188 -0.5987
vn 0.2416 0.8113 0.5324
vn -0.4645 0.1865 0.8657
vn 0.1784 -0.5764 0.7975
vn 0.8844 0.0484 0.4641
vn -0.8844 -0.0484 -0.4641
vn -0.1784 0.5764 -0.7975
vn 0.4645 -0.1865 -0.8657
vn -0.2415 -0.8113 -0.5324
vn -0.6429 0.7629 0.0682
vn -0.7061 -0.6248 0.3333
vn 0.7061 0.6248 -0.3333
vn 0.6429 -0.7629 -0.0682
vn 0.0447 0.9813 -0.1874
vn 0.2969 0.1661 0.9403
vn -0.9539 0.0977 0.2839
vn -0.0447 -0.9813 0.1875
vn 0.9539 -0.0977 -0.2839
vn -0.2969 -0.1661 -0.9403
vn -0.2416 -0.8113 -0.5323
vn 0.0447 0.9813 -0.1875
v 17.616455 3.780159 0.346175
v 17.632576 3.730503 0.367955
v 17.650536 3.746035 0.316611
v 18.936279 3.071658 0.624641
v 18.990480 3.085775 0.616707
v 18.954237 3.087190 0.573297
v 18.378386 5.056213 -0.248364
v 18.412466 5.022089 -0.277929
v 18.432587 5.070331 -0.256298
v 19.752411 4.361829 0.022168
v 19.736290 4.411485 0.000388
v 19.716169 4.363244 -0.021243
v 17.637981 3.812277 0.550393
v 17.621861 3.861933 0.528614
v 17.658102 3.860519 0.572024
v 18.941685 3.153432 0.807079
v 18.961805 3.201674 0.828710
v 18.995886 3.167550 0.799146
v 18.383791 5.137987 -0.065926
v 18.437992 5.152105 -0.073860
v 18.420034 5.136573 -0.022515
v 19.741695 4.493259 0.182826
v 19.757816 4.443604 0.204606
v 19.723736 4.477727 0.234171
vn 0.7979 0.4398 0.4122
vn -0.2171 0.9528 0.2123
vn 0.2483 -0.4807 0.8410
vn -0.7667 0.0323 0.6412
vn 0.7667 -0.0323 -0.6412
vn -0.2483 0.4807 -0.8410
vn 0.2171 -0.9528 -0.2123
vn -0.7979 -0.4398 -0.4122
vn 0.6407 -0.0250 0.7674
vn 0.3557 0.8528 0.3824
vn -0.6025 0.6032 0.5227
vn -0.3175 -0.2746 0.9076
vn 0.3175 0.2746 -0.9077
vn 0.6025 -0.6032 -0.5226
vn -0.3557 -0.8528 -0.3824
vn -0.6407 0.0250 -0.7674
vn 0.9582 0.2495 -0.1402
vn -0.2850 0.8778 -0.3850
vn 0.2850 -0.8778 0.3850
vn -0.9581 -0.2496 0.1402
vn 0.8790 -0.4442 0.1731
vn 0.0270 0.4089 0.9122
vn 0.4760 0.7972 -0.3714
vn -0.8790 0.4442 -0.1731
vn -0.4760 -0.7972 0.3714
vn -0.0270 -0.4089 -0.9122
vn -0.6025 0.6033 0.5226
vn -0.3175 -0.2746 0.9077
vn 0.6025 -0.6032 -0.5227
vn 0.9581 0.2496 -0.1402
vn -0.9582 -0.2496 0.1402
v 20.257288 16.741335 0.465181
v 20.310467 16.758188 0.455799
v 20.271128 16.765072 0.415735
v 21.228571 18.586929 -0.131463
v 21.209894 18.638798 -0.144149
v 21.189234 18.593813 -0.171528
v 19.135454 17.287979 0.413604
v 19.149294 17.311718 0.364157
v 19.116776 17.339848 0.400918
v 20.088060 19.185442 -0.195727
v 20.034882 19.168589 -0.186344
v 20.067398 19.140459 -0.223105
v 20.327518 16.811304 0.647861
v 20.274340 16.794451 0.657244
v 20.295002 16.839434 0.684622
v 21.245625 18.640045 0.060599
v 21.213106 18.668175 0.097360
v 21.226946 18.691914 0.047913
v 19.152506 17.341095 0.605666
v 19.133829 17.392963 0.592980
v 19.173166 17.386080 0.633045
v 20.051933 19.221704 0.005718
v 20.105112 19.238558 -0.003664
v 20.091272 19.214821 0.045782
vn -0.2203 0.9020 0.3713
vn -0.7183 -0.0899 0.6899
vn 0.8168 0.3966 0.4190
vn 0.3188 -0.5953 0.7376
vn -0.3188 0.5953 -0.7376
vn -0.8168 -0.3966 -0.4190
vn 0.7183 0.0899 -0.6899
vn 0.2203 -0.9020 -0.3714
vn 0.3652 0.7952 0.4840
vn -0.5748 0.4973 0.6499
vn -0.2446 -0.4196 0.8741
vn 0.6954 -0.1217 0.7083
vn -0.6954 0.1217 -0.7082
vn 0.2447 0.4196 -0.8741
vn 0.5748 -0.4973 -0.6499
vn -0.3652 -0.7952 -0.4840
vn -0.3302 0.9169 -0.2243
vn -0.9401 -0.2979 0.1659
vn 0.9401 0.2980 -0.1659
vn 0.3301 -0.9169 0.2243
vn 0.4313 0.8590 -0.2759
vn 0.0853 0.2656 0.9603
vn -0.8982 0.4377 -0.0413
vn -0.4313 -0.8590 0.2758
vn 0.8982 -0.4377 0.0413
vn -0.0853 -0.2656 -0.9603
vn -0.5748 0.4973 0.6498
vn -0.2447 -0.4196 0.8741
vn 0.6954 -0.1217 0.7082
vn -0.6954 0.1217 -0.7083
vn -0.3301 0.9169 -0.2243
vn -0.9400 -0.2980 0.1659
vn 0.9401 0.2979 -0.1659
vn 0.3302 -0.9169 0.2243
vn -0.4313 -0.8590 0.2759
v 11.758505 11.120748 0.400000
v 11.782831 11.088514 0.533801
v 11.865348 11.032564 0.631750
v 11.983944 10.967888 0.667602
v 12.106843 10.911816 0.631750
v 12.201113 10.879374 0.533801
v 12.241495 10.879252 0.400000
v 12.217169 10.911486 0.266199
v 12.134652 10.967436 0.168250
v 12.016056 11.032112 0.132398
v 11.893157 11.088184 0.168250
v 11.798887 11.120626 0.266199
v 13.758505 15.120748 1.000000
v 13.782831 15.088514 1.133801
v 13.865348 15.032564 1.231750
v 13.983944 14.967888 1.267602
v 14.106843 14.911816 1.231750
v 14.201113 14.879374 1.133801
v 14.241495 14.879252 1.000000
v 14.217169 14.911486 0.866199
v 14.134652 14.967436 0.768250
v 14.016056 15.032112 0.732398
v 13.893157 15.088184 0.768250
v 13.798887 15.120626 0.866199
v 12.000000 11.000000 0.400000
v 14.000000 15.000000 1.000000
vn -0.9668 -0.2404 -0.0869
vn -0.8985 -0.3308 0.2884
vn -0.6671 -0.4877 0.5630
vn -0.3346 -0.6691 0.6636
vn 0.0101 -0.8264 0.5630
vn 0.2745 -0.9173 0.2884
vn 0.3877 -0.9177 -0.0869
vn 0.3195 -0.8273 -0.4621
vn 0.0881 -0.6704 -0.7368
vn -0.2445 -0.4890 -0.8373
vn -0.5892 -0.3318 -0.7368
vn -0.8535 -0.2408 -0.4621
vn -0.3877 0.9177 0.0869
vn -0.3195 0.8273 0.4621
vn -0.0881 0.6704 0.7368
vn 0.2445 0.4890 0.8373
vn 0.5892 0.3318 0.7368
vn 0.8535 0.2408 0.4621
vn 0.9668 0.2404 0.0869
vn 0.8985 0.3308 -0.2884
vn 0.6671 0.4877 -0.5630
vn 0.3346 0.6691 -0.6636
vn -0.0101 0.8264 -0.5630
vn -0.2745 0.9173 -0.2884
vn -0.4432 -0.8865 -0.1330
vn 0.4432 0.8865 0.1330
v 13.358505 11.120748 0.400000
v 13.382832 11.088514 0.533801
v 13.465348 11.032564 0.631750
v 13.583944 10.967888 0.667602
v 13.706843 10.911816 0.631750
v 13.801113 10.879374 0.533801
v 13.841496 10.879252 0.400000
v 13.817169 10.911486 0.266199
v 13.734653 10.967436 0.168250
v 13.616056 11.032112 0.132398
v 13.493157 11.088184 0.168250
v 13.398888 11.120626 0.266199
v 15.358505 15.120748 1.000000
v 15.382832 15.088514 1.133801
v 15.465348 15.032564 1.231750
v 15.583944 14.967888 1.267602
v 15.706843 14.911816 1.231750
v 15.801113 14.879374 1.133801
v 15.841496 14.879252 1.000000
v 15.817169 14.911486 0.866199
v 15.734653 14.967436 0.768250
v 15.616056 15.032112 0.732398
v 15.493157 15.088184 0.768250
v 15.398888 15.120626 0.866199
v 13.600000 11.000000 0.400000
v 15.600000 15.000000 1.000000
vn -0.9668 -0.2404 -0.0869
vn -0.8985 -0.3308 0.2884
vn -0.6671 -0.4877 0.5630
vn -0.3346 -0.6691 0.6636
vn 0.0101 -0.8264 0.5630
vn 0.2745 -0.9173 0.2884
vn 0.3877 -0.9177 -0.0869
vn 0.3195 -0.8273 -0.4621
vn 0.0881 -0.6704 -0.7368
vn -0.2445 -0.4890 -0.8373
vn -0.5892 -0.3318 -0.7368
vn -0.8535 -0.2408 -0.4621
vn -0.3877 0.9177 0.0869
vn -0.3195 0.8273 0.4621
vn -0.0881 0.6704 0.7368
vn 0.2445 0.4890 0.8373
vn 0.5892 0.3318 0.7368
vn 0.8535 0.2408 0.4621
vn 0.9668 0.2404 0.0869
vn 0.8985 0.3308 -0.2884
vn 0.6671 0.4877 -0.5630
vn 0.3346 0.6691 -0.6636
vn -0.0101 0.8264 -0.5630
vn -0.2745 0.9173 -0.2884
vn -0.4432 -0.8865 -0.1330
vn 0.4432 0.8865 0.1330
v 14.958505 11.120748 0.400000
v 14.982831 11.088514 0.533801
v 15.065348 11.032564 0.631750
v 15.183944 10.967888 0.667602
v 15.306843 10.911816 0.631750
v 15.401113 10.879374 0.533801
v 15.441495 10.879252 0.400000
v 15.417169 10.911486 0.266199
v 15.334652 10.967436 0.168250
v 15.216056 11.032112 0.132398
v 15.093157 11.088184 0.168250
v 14.998887 11.120626 0.266199
v 16.958506 15.120748 1.000000
v 16.982832 15.088514 1.133801
v 17.065348 15.032564 1.231750
v 17.183945 14.967888 1.267602
v 17.306845 14.911816 1.231750
v 17.401114 14.879374 1.133801
v 17.441496 14.879252 1.000000
v 17.417170 14.911486 0.866199
v 17.334654 14.967436 0.768250
v 17.216057 15.032112 0.732398
v 17.093157 15.088184 0.768250
v 16.998888 15.120626 0.866199
v 15.200000 11.000000 0.400000
v 17.200001 15.000000 1.000000
vn -0.9668 -0.2404 -0.0869
vn -0.8985 -0.3308 0.2884
vn -0.6671 -0.4877 0.5630
vn -0.3346 -0.6691 0.6636
vn 0.0101 -0.8264 0.5630
vn 0.2745 -0.9173 0.2884
vn 0.3877 -0.9177 -0.0869
vn 0.3195 -0.8273 -0.4621
vn 0.0881 -0.6704 -0.7368
vn -0.2445 -0.4890 -0.8373
vn -0.5892 -0.3318 -0.7368
vn -0.8535 -0.2408 -0.4621
vn -0.3877 0.9177 0.0869
vn -0.3195 0.8273 0.4621
vn -0.0881 0.6704 0.7368
vn 0.2445 0.4890 0.8373
vn 0.5892 0.3318 0.7368
vn 0.8535 0.2408 0.4621
vn 0.9668 0.2405 0.0869
vn 0.8985 0.3308 -0.2884
vn 0.6671 0.4878 -0.5630
vn 0.3346 0.6691 -0.6636
vn -0.0101 0.8264 -0.5630
vn -0.2745 0.9173 -0.2884
vn -0.4432 -0.8865 -0.1330
vn 0.4432 0.8865 0.1330
v 16.558504 11.120748 0.400000
v 16.582830 11.088514 0.533801
v 16.665346 11.032564 0.631750
v 16.783943 10.967888 0.667602
v 16.906843 10.911816 0.631750
v 17.001112 10.879374 0.533801
v 17.041494 10.879252 0.400000
v 17.017168 10.911486 0.266199
v 16.934652 10.967436 0.168250
v 16.816055 11.032112 0.132398
v 16.693155 11.088184 0.168250
v 16.598886 11.120626 0.266199
v 18.558504 15.120748 1.000000
v 18.582830 15.088514 1.133801
v 18.665346 15.032564 1.231750
v 18.783943 14.967888 1.267602
v 18.906843 14.911816 1.231750
v 19.001112 14.879374 1.133801
v 19.041494 14.879252 1.000000
v 19.017168 14.911486 0.866199
v 18.934652 14.967436 0.768250
v 18.816055 15.032112 0.732398
v 18.693155 15.088184 0.768250
v 18.598886 15.120626 0.866199
v 16.799999 11.000000 0.400000
v 18.799999 15.000000 1.000000
vn -0.9668 -0.2405 -0.0869
vn -0.8985 -0.3308 0.2884
vn -0.6671 -0.4877 0.5630
vn -0.3346 -0.6691 0.6636
vn 0.0101 -0.8264 0.5630
vn 0.2745 -0.9173 0.2884
vn 0.3877 -0.9177 -0.0869
vn 0.3195 -0.8273 -0.4621
vn 0.0881 -0.6704 -0.7368
vn -0.2445 -0.4890 -0.8373
vn -0.5892 -0.3318 -0.7368
vn -0.8535 -0.2408 -0.4621
vn -0.3877 0.9177 0.0869
vn -0.3195 0.8273 0.4621
vn -0.0881 0.6704 0.7368
vn 0.2445 0.4890 0.8373
vn 0.5892 0.3318 0.7368
vn 0.8535 0.2408 0.4621
vn 0.9668 0.2405 0.0869
vn 0.8985 0.3308 -0.2884
vn 0.6671 0.4877 -0.5630
vn 0.3346 0.6691 -0.6636
vn -0.0101 0.8264 -0.5630
vn -0.2745 0.9173 -0.2884
vn -0.4432 -0.8865 -0.1330
vn 0.4432 0.8865 0.1330
v 18.158504 11.120748 0.400000
v 18.182831 11.088514 0.533801
v 18.265347 11.032564 0.631750
v 18.383944 10.967888 0.667602
v 18.506844 10.911816 0.631750
v 18.601112 10.879374 0.533801
v 18.641495 10.879252 0.400000
v 18.617168 10.911486 0.266199
v 18.534653 10.967436 0.168250
v 18.416056 11.032112 0.132398
v 18.293156 11.088184 0.168250
v 18.198887 11.120626 0.266199
v 20.158504 15.120748 1.000000
v 20.182831 15.088514 1.133801
v 20.265347 15.032564 1.231750
v 20.383944 14.967888 1.267602
v 20.506844 14.911816 1.231750
v 20.601112 14.879374 1.133801
v 20.641495 14.879252 1.000000
v 20.617168 14.911486 0.866199
v 20.534653 14.967436 0.768250
v 20.416056 15.032112 0.732398
v 20.293156 15.088184 0.768250
v 20.198887 15.120626 0.866199
v 18.400000 11.000000 0.400000
v 20.400000 15.000000 1.000000
vn -0.9668 -0.2404 -0.0869
vn -0.8985 -0.3308 0.2884
vn -0.6671 -0.4877 0.5630
vn -0.3346 -0.6691 0.6636
vn 0.0101 -0.8264 0.5630
vn 0.2745 -0.9173 0.2884
vn 0.3877 -0.9177 -0.0869
vn 0.3195 -0.8273 -0.4621
vn 0.0881 -0.6704 -0.7368
vn -0.2445 -0.4890 -0.8373
vn -0.5892 -0.3318 -0.7368
vn -0.8535 -0.2408 -0.4621
vn -0.3877 0.9177 0.0869
vn -0.3195 0.8273 0.4621
vn -0.0881 0.6704 0.7368
vn 0.2445 0.4890 0.8373
vn 0.5892 0.3318 0.7368
vn 0.8535 0.2408 0.4621
vn 0.9668 0.2405 0.0869
vn 0.8985 0.3308 -0.2884
vn 0.6671 0.4877 -0.5630
vn 0.3346 0.6691 -0.6636
vn -0.0101 0.8264 -0.5630
vn -0.2745 0.9173 -0.2884
vn -0.4432 -0.8865 -0.1330
vn 0.4432 0.8865 0.1330
usemtl rock
s 0
f 2//1 5//1 7//1
f 12//2 10//2 9//2
f 7//3 8//3 1//3
f 1//4 9//4 2//4
f 2//5 10//5 3//5
f 3//6 11//6 4//6
f 4//7 12//7 5//7
f 5//8 13//8 6//8
f 6//9 14//9 7//9
f 7//1 1//1 2//1
f 2//1 3//1 4//1
f 5//1 6//1 7//1
f 2//1 4//1 5//1
f 9//2 8//2 14//2
f 14//2 13//2 12//2
f 12//2 11//2 10//2
f 9//2 14//2 12//2
f 7//3 14//3 8//3
f 1//4 8//4 9//4
f 2//5 9//5 10//5
f 3//6 10//6 11//6
f 4//7 11//7 12//7
f 5//8 12//8 13//8
f 6//9 13//9 14//9
f 100//94 103//94 105//94
f 110//95 108//95 107//95
f 105//96 106//96 99//96
f 99//97 107//97 100//97
f 100//98 108//98 101//98
f 101//99 109//99 102//99
f 102//100 110//100 103//100
f 103//101 111//101 104//101
f 104//102 112//102 105//102
f 105//94 99//94 100//94
f 100//94 101//94 102//94
f 103//94 104//94 105//94
f 100//94 102//94 103//94
f 107//95 106//95 112//95
f 112//95 111//95 110//95
f 110//95 109//95 108//95
f 107//95 112//95 110//95
f 105//96 112//96 106//96
f 99//97 106//97 107//97
f 100//98 107//98 108//98
f 101//99 108//99 109//99
f 102//100 109//100 110//100
f 103//101 110//101 111//101
f 104//102 111//102 112//102
f 198//187 201//187 203//187
f 208//188 206//188 205//188
f 203//189 204//189 197//189
f 197//190 205//190 198//190
f 199//191 205//191 206//191
f 199//192 207//192 200//192
f 200//193 208//193 201//193
f 201//194 209//194 202//194
f 202//195 210//195 203//195
f 203//187 197//187 198//187
f 198//187 199//187 200//187
f 201//187 202//187 203//187
f 198//187 200//187 201//187
f 205//188 204//188 210//188
f 210//188 209//188 208//188
f 208//188 207//188 206//188
f 205//188 210//188 208//188
f 203//189 210//189 204//189
f 197//190 204//190 205//190
f 199//191 198//191 205//191
f 199//192 206//192 207//192
f 200//193 207//193 208//193
f 201//194 208//194 209//194
f 202//195 209//195 210//195
f 295//280 296//280 297//280
f 298//281 299//281 300//281
f 301//282 302//282 303//282
f 304//283 305//283 306//283
f 307//284 308//284 309//284
f 310//285 311//285 312//285
f 313//286 314//286 315//286
f 316//287 317//287 318//287
f 302//288 295//288 297//288
f 298//289 297//289 296//289
f 299//290 306//290 300//290
f 306//291 303//291 302//291
f 311//292 307//292 309//292
f 313//293 309//293 308//293
f 316//294 315//294 314//294
f 318//295 312//295 311//295
f 295//296 307//296 296//296
f 310//297 299//297 298//297
f 314//298 301//298 303//298
f 317//299 305//299 304//299
f 301//300 308//300 295//300
f 300//301 302//301 297//301
f 296//302 310//302 298//302
f 312//303 304//303 299//303
f 303//304 316//304 314//304
f 315//305 311//305 309//305
f 302//288 301//288 295//288
f 298//289 300//289 297//289
f 299//290 304//290 306//290
f 306//291 305//291 303//291
f 311//292 310//292 307//292
f 313//293 315//293 309//293
f 316//294 318//294 315//294
f 318//295 317//295 312//295
f 295//296 308//296 307//296
f 310//297 312//297 299//297
f 314//298 313//298 301//298
f 317//299 316//299 305//299
f 301//300 313//300 308//300
f 300//301 306//301 302//301
f 296//302 307//302 310//302
f 312//303 317//303 304//303
f 303//304 305//304 316//304
f 315//305 318//305 311//305
f 319//306 320//306 321//306
f 322//307 323//307 324//307
f 325//308 326//308 327//308
f 328//309 329//309 330//309
f 331//310 332//310 333//310
f 334//311 335//311 336//311
f 337//312 338//312 339//312
f 340//313 341//313 342//313
f 321//314 325//314 319//314
f 320//315 324//315 321//315
f 328//316 324//316 323//316
f 330//317 327//317 326//317
f 335//318 331//318 333//318
f 337//319 333//319 332//319
f 338//320 342//320 339//320
f 335//321 341//321 336//321
f 332//322 320//322 319//322
f 334//323 323//323 322//323
f 327//324 337//324 325//324
f 341//325 329//325 328//325
f 319//326 337//326 332//326
f 324//327 326//327 321//327
f 331//328 322//328 320//328
f 323//329 341//329 328//329
f 327//330 340//330 338//330
f 339//331 335//331 333//331
f 321//314 326//314 325//314
f 320//315 322//315 324//315
f 328//332 330//332 324//332
f 330//317 329//317 327//317
f 335//318 334//318 331//318
f 337//319 339//319 333//319
f 338//320 340//320 342//320
f 335//333 342//333 341//333
f 332//322 331//322 320//322
f 334//334 336//334 323//334
f 327//324 338//324 337//324
f 341//325 340//325 329//325
f 319//326 325//326 337//326
f 324//327 330//327 326//327
f 331//328 334//328 322//328
f 323//329 336//329 341//329
f 327//330 329//330 340//330
f 339//331 342//331 335//331
f 343//335 344//335 345//335
f 346//336 347//336 348//336
f 349//337 350//337 351//337
f 352//338 353//338 354//338
f 355//339 356//339 357//339
f 358//340 359//340 360//340
f 361//341 362//341 363//341
f 364//342 365//342 366//342
f 345//343 349//343 343//343
f 346//344 345//344 344//344
f 352//345 348//345 347//345
f 354//346 351//346 350//346
f 357//347 358//347 355//347
f 356//348 363//348 357//348
f 362//349 366//349 363//349
f 359//350 365//350 360//350
f 343//351 355//351 344//351
f 358//352 347//352 346//352
f 362//353 349//353 351//353
f 365//354 353//354 352//354
f 343//355 361//355 356//355
f 348//356 350//356 345//356
f 355//357 346//357 344//357
f 360//358 352//358 347//358
f 353//359 362//359 351//359
f 363//360 359//360 357//360
f 345//343 350//343 349//343
f 346//344 348//344 345//344
f 352//345 354//345 348//345
f 354//346 353//346 351//346
f 357//347 359//347 358//347
f 356//348 361//348 363//348
f 362//361 364//361 366//361
f 359//350 366//350 365//350
f 343//351 356//351 355//351
f 358//362 360//362 347//362
f 362//363 361//363 349//363
f 365//354 364//354 353//354
f 343//355 349//355 361//355
f 348//356 354//356 350//356
f 355//357 358//357 346//357
f 360//358 365//358 352//358
f 353//359 364//359 362//359
f 363//360 366//360 359//360
f 367//364 368//364 369//364
f 370//365 371//365 372//365
f 373//366 374//366 375//366
f 376//367 377//367 378//367
f 379//368 380//368 381//368
f 382//369 383//369 384//369
f 385//370 386//370 387//370
f 388//371 389//371 390//371
f 369//372 373//372 367//372
f 370//373 369//373 368//373
f 376//374 372//374 371//374
f 374//375 377//375 375//375
f 381//376 382//376 379//376
f 385//377 381//377 380//377
f 388//378 387//378 386//378
f 383//379 389//379 384//379
f 367//380 379//380 368//380
f 382//381 371//381 370//381
f 375//382 385//382 373//382
f 389//383 377//383 376//383
f 373//384 380//384 367//384
f 369//385 378//385 374//385
f 379//386 370//386 368//386
f 384//387 376//387 371//387
f 377//388 386//388 375//388
f 381//389 390//389 383//389
f 369//390 374//390 373//390
f 370//391 372//391 369//391
f 376//374 378//374 372//374
f 374//392 378//392 377//392
f 381//376 383//376 382//376
f 385//377 387//377 381//377
f 388//393 390//393 387//393
f 383//394 390//394 389//394
f 367//380 380//380 379//380
f 382//381 384//381 371//381
f 375//395 386//395 385//395
f 389//396 388//396 377//396
f 373//384 385//384 380//384
f 369//385 372//385 378//385
f 379//386 382//386 370//386
f 384//387 389//387 376//387
f 377//388 388//388 386//388
f 381//389 387//389 390//389
f 391//397 392//397 393//397
f 394//398 395//398 396//398
f 397//399 398//399 399//399
f 400//400 401//400 402//400
f 403//401 404//401 405//401
f 406//402 407//402 408//402
f 409//403 410//403 411//403
f 412//404 413//404 414//404
f 393//405 397//405 391//405
f 394//406 393//406 392//406
f 400//407 396//407 395//407
f 402//408 399//408 398//408
f 407//409 403//409 405//409
f 404//410 411//410 405//410
f 410//411 414//411 411//411
f 414//412 408//412 407//412
f 404//413 392//413 391//413
f 394//414 408//414 395//414
f 410//415 397//415 399//415
f 400//416 412//416 401//416
f 397//417 404//417 391//417
f 396//418 398//418 393//418
f 403//419 394//419 392//419
f 408//420 400//420 395//420
f 401//421 410//421 399//421
f 411//422 407//422 405//422
f 393//405 398//405 397//405
f 394//406 396//406 393//406
f 400//407 402//407 396//407
f 402//408 401//408 399//408
f 407//409 406//409 403//409
f 404//410 409//410 411//410
f 410//411 412//411 414//411
f 414//412 413//412 408//412
f 404//413 403//413 392//413
f 394//414 406//414 408//414
f 410//415 409//415 397//415
f 400//423 413//423 412//423
f 397//417 409//417 404//417
f 396//418 402//418 398//418
f 403//419 406//419 394//419
f 408//420 413//420 400//420
f 401//424 412//424 410//424
f 411//422 414//422 407//422
f 415//425 416//425 417//425
f 418//426 419//426 420//426
f 421//427 422//427 423//427
f 424//428 425//428 426//428
f 427//429 428//429 429//429
f 430//430 431//430 432//430
f 433//431 434//431 435//431
f 436//432 437//432 438//432
f 422//433 415//433 417//433
f 416//434 420//434 417//434
f 419//435 426//435 420//435
f 426//436 423//436 422//436
f 431//437 427//437 429//437
f 428//438 435//438 429//438
f 436//439 435//439 434//439
f 431//440 437//440 432//440
f 428//441 416//441 415//441
f 430//442 419//442 418//442
f 434//443 421//443 423//443
f 424//444 436//444 425//444
f 421//445 428//445 415//445
f 417//446 426//446 422//446
f 427//447 418//447 416//447
f 419//448 437//448 424//448
f 425//449 434//449 423//449
f 435//450 431//450 429//450
f 422//433 421//433 415//433
f 416//451 418//451 420//451
f 419//435 424//435 426//435
f 426//436 425//436 423//436
f 431//437 430//437 427//437
f 428//452 433//452 435//452
f 436//439 438//439 435//439
f 431//440 438//440 437//440
f 428//441 427//441 416//441
f 430//442 432//442 419//442
f 434//443 433//443 421//443
f 424//444 437//444 436//444
f 421//445 433//445 428//445
f 417//446 420//446 426//446
f 427//447 430//447 418//447
f 419//448 432//448 437//448
f 425//449 436//449 434//449
f 435//450 438//450 431//450
f 439//453 440//453 441//453
f 442//454 443//454 444//454
f 445//455 446//455 447//455
f 448//456 449//456 450//456
f 451//457 452//457 453//457
f 454//458 455//458 456//458
f 457//459 458//459 459//459
f 460//460 461//460 462//460
f 446//461 439//461 441//461
f 442//462 441//462 440//462
f 443//463 450//463 444//463
f 446//464 449//464 447//464
f 455//465 451//465 453//465
f 452//466 459//466 453//466
f 458//467 462//467 459//467
f 462//468 456//468 455//468
f 452//469 440//469 439//469
f 442//470 456//470 443//470
f 458//471 445//471 447//471
f 461//472 449//472 448//472
f 439//473 457//473 452//473
f 444//474 446//474 441//474
f 451//475 442//475 440//475
f 456//476 448//476 443//476
f 449//477 458//477 447//477
f 453//478 462//478 455//478
f 446//479 445//479 439//479
f 442//462 444//462 441//462
f 443//463 448//463 450//463
f 446//480 450//480 449//480
f 455//481 454//481 451//481
f 452//466 457//466 459//466
f 458//467 460//467 462//467
f 462//482 461//482 456//482
f 452//483 451//483 440//483
f 442//470 454//470 456//470
f 458//471 457//471 445//471
f 461//472 460//472 449//472
f 439//473 445//473 457//473
f 444//474 450//474 446//474
f 451//475 454//475 442//475
f 456//476 461//476 448//476
f 449//477 460//477 458//477
f 453//478 459//478 462//478
f 463//484 464//484 465//484
f 466//485 467//485 468//485
f 469//486 470//486 471//486
f 472//487 473//487 474//487
f 475//488 476//488 477//488
f 478//489 479//489 480//489
f 481//490 482//490 483//490
f 484//491 485//491 486//491
f 470//492 463//492 465//492
f 466//493 465//493 464//493
f 472//494 468//494 467//494
f 470//495 473//495 471//495
f 477//496 478//496 475//496
f 481//497 477//497 476//497
f 484//498 483//498 482//498
f 479//499 485//499 480//499
f 463//500 475//500 464//500
f 478//501 467//501 466//501
f 471//502 481//502 469//502
f 472//503 484//503 473//503
f 469//504 476//504 463//504
f 465//505 474//505 470//505
f 464//506 478//506 466//506
f 467//507 485//507 472//507
f 471//508 484//508 482//508
f 483//509 479//509 477//509
f 470//492 469//492 463//492
f 466//493 468//493 465//493
f 472//494 474//494 468//494
f 470//510 474//510 473//510
f 477//511 479//511 478//511
f 481//512 483//512 477//512
f 484//498 486//498 483//498
f 479//499 486//499 485//499
f 463//500 476//500 475//500
f 478//513 480//513 467//513
f 471//514 482//514 481//514
f 472//515 485//515 484//515
f 469//504 481//504 476//504
f 465//505 468//505 474//505
f 464//506 475//506 478//506
f 467//507 480//507 485//507
f 471//508 473//508 484//508
f 483//509 486//509 479//509
f 487//516 488//516 489//516
f 490//517 491//517 492//517
f 493//518 494//518 495//518
f 496//519 497//519 498//519
f 499//520 500//520 501//520
f 502//521 503//521 504//521
f 505//522 506//522 507//522
f 508//523 509//523 510//523
f 489//524 493//524 487//524
f 490//525 489//525 488//525
f 496//526 492//526 491//526
f 498//527 495//527 494//527
f 501//528 502//528 499//528
f 500//529 507//529 501//529
f 508//530 507//530 506//530
f 503//531 509//531 504//531
f 487//532 499//532 488//532
f 502//533 491//533 490//533
f 495//534 505//534 493//534
f 509//535 497//535 496//535
f 493//536 500//536 487//536
f 489//537 498//537 494//537
f 499//538 490//538 488//538
f 504//539 496//539 491//539
f 495//540 508//540 506//540
f 507//541 503//541 501//541
f 489//524 494//524 493//524
f 490//525 492//525 489//525
f 496//542 498//542 492//542
f 498//527 497//527 495//527
f 501//528 503//528 502//528
f 500//543 505//543 507//543
f 508//544 510//544 507//544
f 503//531 510//531 509//531
f 487//532 500//532 499//532
f 502//533 504//533 491//533
f 495//534 506//534 505//534
f 509//545 508//545 497//545
f 493//536 505//536 500//536
f 489//537 492//537 498//537
f 499//538 502//538 490//538
f 504//539 509//539 496//539
f 495//540 497//540 508//540
f 507//541 510//541 503//541
f 511//546 512//546 513//546
f 514//547 515//547 516//547
f 517//548 518//548 519//548
f 520//549 521//549 522//549
f 523//550 524//550 525//550
f 526//551 527//551 528//551
f 529//552 530//552 531//552
f 532//553 533//553 534//553
f 518//554 511//554 513//554
f 514//555 513//555 512//555
f 515//556 522//556 516//556
f 518//557 521//557 519//557
f 527//558 523//558 525//558
f 529//559 525//559 524//559
f 532//560 531//560 530//560
f 527//561 533//561 528//561
f 524//562 512//562 511//562
f 526//563 515//563 514//563
f 519//564 529//564 517//564
f 533//565 521//565 520//565
f 517//566 524//566 511//566
f 516//567 518//567 513//567
f 512//568 526//568 514//568
f 528//569 520//569 515//569
f 521//570 530//570 519//570
f 531//571 527//571 525//571
f 518//572 517//572 511//572
f 514//555 516//555 513//555
f 515//556 520//556 522//556
f 518//557 522//557 521//557
f 527//573 526//573 523//573
f 529//559 531//559 525//559
f 532//560 534//560 531//560
f 527//574 534//574 533//574
f 524//575 523//575 512//575
f 526//576 528//576 515//576
f 519//577 530//577 529//577
f 533//565 532//565 521//565
f 517//566 529//566 524//566
f 516//567 522//567 518//567
f 512//568 523//568 526//568
f 528//569 533//569 520//569
f 521//570 532//570 530//570
f 531//571 534//571 527//571
f 535//578 536//578 537//578
f 538//579 539//579 540//579
f 541//580 542//580 543//580
f 544//581 545//581 546//581
f 547//582 548//582 549//582
f 550//583 551//583 552//583
f 553//584 554//584 555//584
f 556//585 557//585 558//585
f 537//586 541//586 535//586
f 536//587 540//587 537//587
f 544//588 540//588 539//588
f 546//589 543//589 542//589
f 551//590 547//590 549//590
f 548//591 555//591 549//591
f 554//592 558//592 555//592
f 558//593 552//593 551//593
f 548//594 536//594 535//594
f 538//595 552//595 539//595
f 554//596 541//596 543//596
f 544//597 556//597 545//597
f 541//598 548//598 535//598
f 540//599 542//599 537//599
f 536//600 550//600 538//600
f 552//601 544//601 539//601
f 543//602 556//602 554//602
f 555//603 551//603 549//603
f 537//586 542//586 541//586
f 536//587 538//587 540//587
f 544//588 546//588 540//588
f 546//589 545//589 543//589
f 551//590 550//590 547//590
f 548//591 553//591 555//591
f 554//592 556//592 558//592
f 558//604 557//604 552//604
f 548//594 547//594 536//594
f 538//595 550//595 552//595
f 554//596 553//596 541//596
f 544//597 557//597 556//597
f 541//605 553//605 548//605
f 540//599 546//599 542//599
f 536//600 547//600 550//600
f 552//601 557//601 544//601
f 543//602 545//602 556//602
f 555//603 558//603 551//603
f 559//606 560//606 561//606
f 562//607 563//607 564//607
f 565//608 566//608 567//608
f 568//609 569//609 570//609
f 571//610 572//610 573//610
f 574//611 575//611 576//611
f 577//612 578//612 579//612
f 580//613 581//613 582//613
f 561//614 565//614 559//614
f 560//615 564//615 561//615
f 568//616 564//616 563//616
f 566//617 569//617 567//617
f 575//618 571//618 573//618
f 577//619 573//619 572//619
f 580//620 579//620 578//620
f 582//621 576//621 575//621
f 572//622 560//622 559//622
f 574//623 563//623 562//623
f 578//624 565//624 567//624
f 581//625 569//625 568//625
f 559//626 577//626 572//626
f 564//627 566//627 561//627
f 560//628 574//628 562//628
f 576//629 568//629 563//629
f 569//630 578//630 567//630
f 573//631 582//631 575//631
f 561//614 566//614 565//614
f 560//615 562//615 564//615
f 568//632 570//632 564//632
f 566//633 570//633 569//633
f 575//618 574//618 571//618
f 577//634 579//634 573//634
f 580//620 582//620 579//620
f 582//621 581//621 576//621
f 572//635 571//635 560//635
f 574//623 576//623 563//623
f 578//624 577//624 565//624
f 581//636 580//636 569//636
f 559//626 565//626 577//626
f 564//627 570//627 566//627
f 560//628 571//628 574//628
f 576//629 581//629 568//629
f 569//630 580//630 578//630
f 573//631 579//631 582//631
f 583//637 584//637 585//637
f 586//638 587//638 588//638
f 589//639 590//639 591//639
f 592//640 593//640 594//640
f 595//641 596//641 597//641
f 598//642 599//642 600//642
f 601//643 602//643 603//643
f 604//644 605//644 606//644
f 585//645 589//645 583//645
f 584//646 588//646 585//646
f 592//647 588//647 587//647
f 590//648 593//648 591//648
f 599//649 595//649 597//649
f 596//650 603//650 597//650
f 604//651 603//651 602//651
f 606//652 600//652 599//652
f 583//653 595//653 584//653
f 598//654 587//654 586//654
f 591//655 601//655 589//655
f 605//656 593//656 592//656
f 583//657 601//657 596//657
f 588//658 590//658 585//658
f 584//659 598//659 586//659
f 587//660 605//660 592//660
f 593//661 602//661 591//661
f 603//662 599//662 597//662
f 585//645 590//645 589//645
f 584//663 586//663 588//663
f 592//664 594//664 588//664
f 590//665 594//665 593//665
f 599//666 598//666 595//666
f 596//650 601//650 603//650
f 604//651 606//651 603//651
f 606//652 605//652 600//652
f 583//667 596//667 595//667
f 598//668 600//668 587//668
f 591//669 602//669 601//669
f 605//670 604//670 593//670
f 583//657 589//657 601//657
f 588//658 594//658 590//658
f 584//659 595//659 598//659
f 587//671 600//671 605//671
f 593//661 604//661 602//661
f 603//662 606//662 599//662
usemtl rust
s 1
f 15//10 22//17 21//16
f 17//12 22//17 16//11
f 18//13 23//18 17//12
f 19//14 24//19 18//13
f 19//14 26//21 25//20
f 15//10 26//21 20//15
f 27//22 16//11 15//10
f 28//23 21//16 22//17
f 27//22 17//12 16//11
f 28//23 22//17 23//18
f 27//22 18//13 17//12
f 28//23 23//18 24//19
f 27//22 19//14 18//13
f 28//23 24//19 25//20
f 27//22 20//15 19//14
f 28//23 25//20 26//21
f 27//22 15//10 20//15
f 28//23 26//21 21//16
f 15//10 16//11 22//17
f 17//12 23//18 22//17
f 18//13 24//19 23//18
f 19//14 25//20 24//19
f 19//14 20//15 26//21
f 15//10 21//16 26//21
f 29//24 36//31 35//30
f 31//26 36//31 30//25
f 31//26 38//33 37//32
f 32//27 39//34 38//33
f 34//29 39//34 33//28
f 29//24 40//35 34//29
f 41//36 30//25 29//24
f 42//37 35//30 36//31
f 41//36 31//26 30//25
f 42//37 36//31 37//32
f 41//36 32//27 31//26
f 42//37 37//32 38//33
f 41//36 33//28 32//27
f 42//37 38//33 39//34
f 41//36 34//29 33//28
f 42//37 39//34 40//35
f 41//36 29//24 34//29
f 42//37 40//35 35//30
f 29//24 30//25 36//31
f 31//26 37//32 36//31
f 31//26 32//27 38//33
f 32//27 33//28 39//34
f 34//29 40//35 39//34
f 29//24 35//30 40//35
f 43//38 50//45 49//44
f 45//40 50//45 44//39
f 45//40 52//47 51//46
f 47//42 52//47 46//41
f 47//42 54//49 53//48
f 43//38 54//49 48//43
f 55//50 44//39 43//38
f 56//51 49//44 50//45
f 55//50 45//40 44//39
f 56//51 50//45 51//46
f 55//50 46//41 45//40
f 56//51 51//46 52//47
f 55//50 47//42 46//41
f 56//51 52//47 53//48
f 55//50 48//43 47//42
f 56//51 53//48 54//49
f 55//50 43//38 48//43
f 56//51 54//49 49//44
f 43//38 44//39 50//45
f 45//40 51//46 50//45
f 45//40 46//41 52//47
f 47//42 53//48 52//47
f 47//42 48//43 54//49
f 43//38 49//44 54//49
f 57//52 64//59 63//58
f 59//54 64//59 58//53
f 60//55 65//60 59//54
f 60//55 67//62 66//61
f 62//57 67//62 61//56
f 57//52 68//63 62//57
f 69//64 58//53 57//52
f 70//65 63//58 64//59
f 69//64 59//54 58//53
f 70//65 64//59 65//60
f 69//64 60//55 59//54
f 70//65 65//60 66//61
f 69//64 61//56 60//55
f 70//65 66//61 67//62
f 69//64 62//57 61//56
f 70//65 67//62 68//63
f 69//64 57//52 62//57
f 70//65 68//63 63//58
f 57//52 58//53 64//59
f 59//54 65//60 64//59
f 60//55 66//61 65//60
f 60//55 61//56 67//62
f 62//57 68//63 67//62
f 57//52 63//58 68//63
f 72//67 77//72 71//66
f 73//68 78//73 72//67
f 73//68 80//75 79//74
f 75//70 80//75 74//69
f 75//70 82//77 81//76
f 71//66 82//77 76//71
f 83//78 72//67 71//66
f 84//79 77//72 78//73
f 83//78 73//68 72//67
f 84//79 78//73 79//74
f 83//78 74//69 73//68
f 84//79 79//74 80//75
f 83//78 75//70 74//69
f 84//79 80//75 81//76
f 83//78 76//71 75//70
f 84//79 81//76 82//77
f 83//78 71//66 76//71
f 84//79 82//77 77//72
f 72//67 78//73 77//72
f 73//68 79//74 78//73
f 73//68 74//69 80//75
f 75//70 81//76 80//75
f 75//70 76//71 82//77
f 71//66 77//72 82//77
f 86//81 91//86 85//80
f 87//82 92//87 86//81
f 87//82 94//89 93//88
f 89//84 94//89 88//83
f 90//85 95//90 89//84
f 85//80 96//91 90//85
f 97//92 86//81 85//80
f 98//93 91//86 92//87
f 97//92 87//82 86//81
f 98//93 92//87 93//88
f 97//92 88//83 87//82
f 98//93 93//88 94//89
f 97//92 89//84 88//83
f 98//93 94//89 95//90
f 97//92 90//85 89//84
f 98//93 95//90 96//91
f 97//92 85//80 90//85
f 98//93 96//91 91//86
f 86//81 92//87 91//86
f 87//82 93//88 92//87
f 87//82 88//83 94//89
f 89//84 95//90 94//89
f 90//85 96//91 95//90
f 85//80 91//86 96//91
f 114//104 119//109 113//103
f 115//105 120//110 114//104
f 116//106 121//111 115//105
f 117//107 122//112 116//106
f 117//107 124//114 123//113
f 118//108 119//109 124//114
f 125//115 114//104 113//103
f 126//116 119//109 120//110
f 125//115 115//105 114//104
f 126//116 120//110 121//111
f 125//115 116//106 115//105
f 126//116 121//111 122//112
f 125//115 117//107 116//106
f 126//116 122//112 123//113
f 125//115 118//108 117//107
f 126//116 123//113 124//114
f 125//115 113//103 118//108
f 126//116 124//114 119//109
f 114//104 120//110 119//109
f 115//105 121//111 120//110
f 116//106 122//112 121//111
f 117//107 123//113 122//112
f 117//107 118//108 124//114
f 118//108 113//103 119//109
f 128//118 133//123 127//117
f 129//119 134//124 128//118
f 129//119 136//126 135//125
f 131//121 136//126 130//120
f 132//122 137//127 131//121
f 127//117 138//128 132//122
f 139//129 128//118 127//117
f 140//130 133//123 134//124
f 139//129 129//119 128//118
f 140//130 134//124 135//125
f 139//129 130//120 129//119
f 140//130 135//125 136//126
f 139//129 131//121 130//120
f 140//130 136//126 137//127
f 139//129 132//122 131//121
f 140//130 137//127 138//128
f 139//129 127//117 132//122
f 140//130 138//128 133//123
f 128//118 134//124 133//123
f 129//119 135//125 134//124
f 129//119 130//120 136//126
f 131//121 137//127 136//126
f 132//122 138//128 137//127
f 127//117 133//123 138//128
f 142//132 147//137 141//131
f 143//133 148//138 142//132
f 144//134 149//139 143//133
f 144//134 151//141 150//140
f 146//136 151//141 145//135
f 146//136 147//137 152//142
f 153//143 142//132 141//131
f 154//144 147//137 148//138
f 153//143 143//133 142//132
f 154//144 148//138 149//139
f 153//143 144//134 143//133
f 154//144 149//139 150//140
f 153//143 145//135 144//134
f 154//144 150//140 151//141
f 153//143 146//136 145//135
f 154//144 151//141 152//142
f 153//143 141//131 146//136
f 154//144 152//142 147//137
f 142//132 148//138 147//137
f 143//133 149//139 148//138
f 144//134 150//140 149//139
f 144//134 145//135 151//141
f 146//136 152//142 151//141
f 146//136 141//131 147//137
f 156//146 161//151 155//145
f 157//147 162//152 156//146
f 157//147 164//154 163//153
f 159//149 164//154 158//148
f 159//149 166//156 165//155
f 160//150 161//151 166//156
f 167//157 156//146 155//145
f 168//158 161//151 162//152
f 167//157 157//147 156//146
f 168//158 162//152 163//153
f 167//157 158//148 157//147
f 168//158 163//153 164//154
f 167//157 159//149 158//148
f 168//158 164//154 165//155
f 167//157 160//150 159//149
f 168//158 165//155 166//156
f 167//157 155//145 160//150
f 168//158 166//156 161//151
f 156//146 162//152 161//151
f 157//147 163//153 162//152
f 157//147 158//148 164//154
f 159//149 165//155 164//154
f 159//149 160//150 166//156
f 160//150 155//145 161//151
f 169//159 176//166 175//165
f 171//161 176//166 170//160
f 171//161 178//168 177//167
f 172//162 179//169 178//168
f 174//164 179//169 173//163
f 174//164 175//165 180//170
f 181//171 170//160 169//159
f 182//172 175//165 176//166
f 181//171 171//161 170//160
f 182//172 176//166 177//167
f 181//171 172//162 171//161
f 182//172 177//167 178//168
f 181//171 173//163 172//162
f 182//172 178//168 179//169
f 181//171 174//164 173//163
f 182//172 179//169 180//170
f 181//171 169//159 174//164
f 182//172 180//170 175//165
f 169//159 170//160 176//166
f 171//161 177//167 176//166
f 171//161 172//162 178//168
f 172//162 173//163 179//169
f 174//164 180//170 179//169
f 174//164 169//159 175//165
f 184//174 189//179 183//173
f 185//175 190//180 184//174
f 186//176 191//181 185//175
f 187//177 192//182 186//176
f 188//178 193//183 187//177
f 183//173 194//184 188//178
f 195//185 184//174 183//173
f 196//186 189//179 190//180
f 195//185 185//175 184//174
f 196//186 190//180 191//181
f 195//185 186//176 185//175
f 196//186 191//181 192//182
f 195//185 187//177 186//176
f 196//186 192//182 193//183
f 195//185 188//178 187//177
f 196//186 193//183 194//184
f 195//185 183//173 188//178
f 196//186 194//184 189//179
f 184//174 190//180 189//179
f 185//175 191//181 190//180
f 186//176 192//182 191//181
f 187//177 193//183 192//182
f 188//178 194//184 193//183
f 183//173 189//179 194//184
f 212//197 217//202 211//196
f 212//197 219//204 218//203
f 214//199 219//204 213//198
f 214//199 221//206 220//205
f 216//201 221//206 215//200
f 216//201 217//202 222//207
f 223//208 212//197 211//196
f 224//209 217//202 218//203
f 223//208 213//198 212//197
f 224//209 218//203 219//204
f 223//208 214//199 213//198
f 224//209 219//204 220//205
f 223//208 215//200 214//199
f 224//209 220//205 221//206
f 223//208 216//201 215//200
f 224//209 221//206 222//207
f 223//208 211//196 216//201
f 224//209 222//207 217//202
f 212//197 218//203 217//202
f 212//197 213//198 219//204
f 214//199 220//205 219//204
f 214//199 215//200 221//206
f 216//201 222//207 221//206
f 216//201 211//196 217//202
f 226//211 231//216 225//210
f 227//212 232//217 226//211
f 227//212 234//219 233//218
f 229//214 234//219 228//213
f 230//215 235//220 229//214
f 225//210 236//221 230//215
f 237//222 226//211 225//210
f 238//223 231//216 232//217
f 237//222 227//212 226//211
f 238//223 232//217 233//218
f 237//222 228//213 227//212
f 238//223 233//218 234//219
f 237//222 229//214 228//213
f 238//223 234//219 235//220
f 237//222 230//215 229//214
f 238//223 235//220 236//221
f 237//222 225//210 230//215
f 238//223 236//221 231//216
f 226//211 232//217 231//216
f 227//212 233//218 232//217
f 227//212 228//213 234//219
f 229//214 235//220 234//219
f 230//215 236//221 235//220
f 225//210 231//216 236//221
f 240//225 245//230 239//224
f 240//225 247//232 246//231
f 242//227 247//232 241//226
f 242//227 249//234 248//233
f 244//229 249//234 243//228
f 244//229 245//230 250//235
f 251//236 240//225 239//224
f 252//237 245//230 246//231
f 251//236 241//226 240//225
f 252//237 246//231 247//232
f 251//236 242//227 241//226
f 252//237 247//232 248//233
f 251//236 243//228 242//227
f 252//237 248//233 249//234
f 251//236 244//229 243//228
f 252//237 249//234 250//235
f 251//236 239//224 244//229
f 252//237 250//235 245//230
f 240//225 246//231 245//230
f 240//225 241//226 247//232
f 242//227 248//233 247//232
f 242//227 243//228 249//234
f 244//229 250//235 249//234
f 244//229 239//224 245//230
f 254//239 259//244 253//238
f 254//239 261//246 260//245
f 256//241 261//246 255//240
f 257//242 262//247 256//241
f 258//243 263//248 257//242
f 253//238 264//249 258//243
f 265//250 254//239 253//238
f 266//251 259//244 260//245
f 265//250 255//240 254//239
f 266//251 260//245 261//246
f 265//250 256//241 255//240
f 266//251 261//246 262//247
f 265//250 257//242 256//241
f 266//251 262//247 263//248
f 265//250 258//243 257//242
f 266//251 263//248 264//249
f 265//250 253//238 258//243
f 266//251 264//249 259//244
f 254//239 260//245 259//244
f 254//239 255//240 261//246
f 256//241 262//247 261//246
f 257//242 263//248 262//247
f 258//243 264//249 263//248
f 253//238 259//244 264//249
f 268//253 273//258 267//252
f 268//253 275//260 274//259
f 270//255 275//260 269//254
f 270//255 277//262 276//261
f 272//257 277//262 271//256
f 272//257 273//258 278//263
f 279//264 268//253 267//252
f 280//265 273//258 274//259
f 279//264 269//254 268//253
f 280//265 274//259 275//260
f 279//264 270//255 269//254
f 280//265 275//260 276//261
f 279//264 271//256 270//255
f 280//265 276//261 277//262
f 279//264 272//257 271//256
f 280//265 277//262 278//263
f 279//264 267//252 272//257
f 280//265 278//263 273//258
f 268//253 274//259 273//258
f 268//253 269//254 275//260
f 270//255 276//261 275//260
f 270//255 271//256 277//262
f 272//257 278//263 277//262
f 272//257 267//252 273//258
f 282//267 287//272 281//266
f 282//267 289//274 288//273
f 283//268 290//275 289//274
f 285//270 290//275 284//269
f 286//271 291//276 285//270
f 281//266 292//277 286//271
f 293//278 282//267 281//266
f 294//279 287//272 288//273
f 293//278 283//268 282//267
f 294//279 288//273 289//274
f 293//278 284//269 283//268
f 294//279 289//274 290//275
f 293//278 285//270 284//269
f 294//279 290//275 291//276
f 293//278 286//271 285//270
f 294//279 291//276 292//277
f 293//278 281//266 286//271
f 294//279 292//277 287//272
f 282//267 288//273 287//272
f 282//267 283//268 289//274
f 283//268 284//269 290//275
f 285//270 291//276 290//275
f 286//271 292//277 291//276
f 281//266 287//272 292//277
usemtl rock
s 1
f 607//672 620//685 619//684
f 608//673 621//686 620//685
f 609//674 622//687 621//686
f 610//675 623//688 622//687
f 611//676 624//689 623//688
f 613//678 624//689 612//677
f 614//679 625//690 613//678
f 615//680 626//691 614//679
f 616//681 627//692 615//680
f 617//682 628//693 616//681
f 618//683 629//694 617//682
f 607//672 630//695 618//683
f 631//696 608//673 607//672
f 632//697 619//684 620//685
f 631//696 609//674 608//673
f 632//697 620//685 621//686
f 631//696 610//675 609//674
f 632//697 621//686 622//687
f 631//696 611//676 610//675
f 632//697 622//687 623//688
f 631//696 612//677 611//676
f 632//697 623//688 624//689
f 631//696 613//678 612//677
f 632//697 624//689 625//690
f 631//696 614//679 613//678
f 632//697 625//690 626//691
f 631//696 615//680 614//679
f 632//697 626//691 627//692
f 631//696 616//681 615//680
f 632//697 627//692 628//693
f 631//696 617//682 616//681
f 632//697 628//693 629//694
f 631//696 618//683 617//682
f 632//697 629//694 630//695
f 631//696 607//672 618//683
f 632//697 630//695 619//684
f 607//672 608//673 620//685
f 608//673 609//674 621//686
f 609//674 610//675 622//687
f 610//675 611//676 623//688
f 611//676 612//677 624//689
f 613//678 625//690 624//689
f 614//679 626//691 625//690
f 615//680 627//692 626//691
f 616//681 628//693 627//692
f 617//682 629//694 628//693
f 618//683 630//695 629//694
f 607//672 619//684 630//695
f 633//698 646//711 645//710
f 635//700 646//711 634//699
f 635//700 648//713 647//712
f 637//702 648//713 636//701
f 637//702 650//715 649//714
f 639//704 650//715 638//703
f 640//705 651//716 639//704
f 641//706 652//717 640//705
f 642//707 653//718 641//706
f 642//707 655//720 654//719
f 644//709 655//720 643//708
f 633//698 656//721 644//709
f 657//722 634//699 633//698
f 658//723 645//710 646//711
f 657//722 635//700 634//699
f 658//723 646//711 647//712
f 657//722 636//701 635//700
f 658//723 647//712 648//713
f 657//722 637//702 636//701
f 658//723 648//713 649//714
f 657//722 638//703 637//702
f 658//723 649//714 650//715
f 657//722 639//704 638//703
f 658//723 650//715 651//716
f 657//722 640//705 639//704
f 658//723 651//716 652//717
f 657//722 641//706 640//705
f 658//723 652//717 653//718
f 657//722 642//707 641//706
f 658//723 653//718 654//719
f 657//722 643//708 642//707
f 658//723 654//719 655//720
f 657//722 644//709 643//708
f 658//723 655//720 656//721
f 657//722 633//698 644//709
f 658//723 656//721 645//710
f 633//698 634//699 646//711
f 635//700 647//712 646//711
f 635//700 636//701 648//713
f 637//702 649//714 648//713
f 637//702 638//703 650//715
f 639//704 651//716 650//715
f 640//705 652//717 651//716
f 641//706 653//718 652//717
f 642//707 654//719 653//718
f 642//707 643//708 655//720
f 644//709 656//721 655//720
f 633//698 645//710 656//721
f 659//724 672//737 671//736
f 661//726 672//737 660//725
f 661//726 674//739 673//738
f 663//728 674//739 662//727
f 664//729 675//740 663//728
f 665//730 676//741 664//729
f 666//731 677//742 665//730
f 667//732 678//743 666//731
f 667//732 680//745 679//744
f 669//734 680//745 668//733
f 670//735 681//746 669//734
f 659//724 682//747 670//735
f 683//748 660//725 659//724
f 684//749 671//736 672//737
f 683//748 661//726 660//725
f 684//749 672//737 673//738
f 683//748 662//727 661//726
f 684//749 673//738 674//739
f 683//748 663//728 662//727
f 684//749 674//739 675//740
f 683//748 664//729 663//728
f 684//749 675//740 676//741
f 683//748 665//730 664//729
f 684//749 676//741 677//742
f 683//748 666//731 665//730
f 684//749 677//742 678//743
f 683//748 667//732 666//731
f 684//749 678//743 679//744
f 683//748 668//733 667//732
f 684//749 679//744 680//745
f 683//748 669//734 668//733
f 684//749 680//745 681//746
f 683//748 670//735 669//734
f 684//749 681//746 682//747
f 683//748 659//724 670//735
f 684//749 682//747 671//736
f 659//724 660//725 672//737
f 661//726 673//738 672//737
f 661//726 662//727 674//739
f 663//728 675//740 674//739
f 664//729 676//741 675//740
f 665//730 677//742 676//741
f 666//731 678//743 677//742
f 667//732 679//744 678//743
f 667//732 668//733 680//745
f 669//734 681//746 680//745
f 670//735 682//747 681//746
f 659//724 671//736 682//747
f 686//751 697//762 685//750
f 686//751 699//764 698//763
f 688//753 699//764 687//752
f 689//754 700//765 688//753
f 690//755 701//766 689//754
f 691//756 702//767 690//755
f 691//756 704//769 703//768
f 693//758 704//769 692//757
f 694//759 705//770 693//758
f 694//759 707//772 706//771
f 695//760 708//773 707//772
f 685//750 708//773 696//761
f 709//774 686//751 685//750
f 710//775 697//762 698//763
f 709//774 687//752 686//751
f 710//775 698//763 699//764
f 709//774 688//753 687//752
f 710//775 699//764 700//765
f 709//774 689//754 688//753
f 710//775 700//765 701//766
f 709//774 690//755 689//754
f 710//775 701//766 702//767
f 709//774 691//756 690//755
f 710//775 702//767 703//768
f 709//774 692//757 691//756
f 710//775 703//768 704//769
f 709//774 693//758 692//757
f 710//775 704//769 705//770
f 709//774 694//759 693//758
f 710//775 705//770 706//771
f 709//774 695//760 694//759
f 710//775 706//771 707//772
f 709//774 696//761 695//760
f 710//775 707//772 708//773
f 709//774 685//750 696//761
f 710//775 708//773 697//762
f 686//751 698//763 697//762
f 686//751 687//752 699//764
f 688//753 700//765 699//764
f 689//754 701//766 700//765
f 690//755 702//767 701//766
f 691//756 703//768 702//767
f 691//756 692//757 704//769
f 693//758 705//770 704//769
f 694//759 706//771 705//770
f 694//759 695//760 707//772
f 695//760 696//761 708//773
f 685//750 697//762 708//773
f 712//777 723//788 711//776
f 713//778 724//789 712//777
f 714//779 725//790 713//778
f 715//780 726//791 714//779
f 716//781 727//792 715//780
f 717//782 728//793 716//781
f 718//783 729//794 717//782
f 718//783 731//796 730//795
f 720//785 731//796 719//784
f 720//785 733//798 732//797
f 721//786 734//799 733//798
f 711//776 734//799 722//787
f 735//800 712//777 711//776
f 736//801 723//788 724//789
f 735//800 713//778 712//777
f 736//801 724//789 725//790
f 735//800 714//779 713//778
f 736//801 725//790 726//791
f 735//800 715//780 714//779
f 736//801 726//791 727//792
f 735//800 716//781 715//780
f 736//801 727//792 728//793
f 735//800 717//782 716//781
f 736//801 728//793 729//794
f 735//800 718//783 717//782
f 736//801 729//794 730//795
f 735//800 719//784 718//783
f 736//801 730//795 731//796
f 735//800 720//785 719//784
f 736//801 731//796 732//797
f 735//800 721//786 720//785
f 736//801 732//797 733//798
f 735//800 722//787 721//786
f 736//801 733//798 734//799
f 735//800 711//776 722//787
f 736//801 734//799 723//788
f 712//777 724//789 723//788
f 713//778 725//790 724//789
f 714//779 726//791 725//790
f 715//780 727//792 726//791
f 716//781 728//793 727//792
f 717//782 729//794 728//793
f 718//783 730//795 729//794
f 718//783 719//784 731//796
f 720//785 732//797 731//796
f 720//785 721//786 733//798
f 721//786 722//787 734//799
f 711//776 723//788 734//799
