# Derived mesh: merged object boundaries; geometry and materials preserved.
mtllib floating_objects.mtl
o floating_objects
v 16.658520 -10.553620 7.874447
v 16.655336 -10.575775 7.854471
v 16.694017 -10.508491 7.818740
v 16.690832 -10.530645 7.798764
v 16.662081 -10.555098 7.875518
v 16.658895 -10.577252 7.855542
v 16.697577 -10.509968 7.819811
v 16.694393 -10.532123 7.799835
vn 0.8898 -0.3694 0.2678
vn -0.8898 0.3695 -0.2678
vn 0.4440 0.5636 -0.6966
vn -0.4439 -0.5639 0.6964
vn -0.1059 -0.7386 -0.6658
vn 0.1060 0.7385 0.6659
vn 0.8899 -0.3693 0.2678
vn -0.8899 0.3693 -0.2678
vn 0.4432 0.5642 -0.6966
vn -0.4433 -0.5644 0.6964
vn -0.1063 -0.7384 -0.6660
vn 0.1062 0.7385 0.6658
v 2.436804 -17.496204 7.981486
v 2.436030 -17.510983 7.955391
v 2.481826 -17.439243 7.947891
v 2.481052 -17.454023 7.921796
v 2.440109 -17.498205 7.982522
v 2.439335 -17.512985 7.956427
v 2.485131 -17.441246 7.948927
v 2.484357 -17.456024 7.922832
vn 0.8262 -0.5003 0.2588
vn -0.8262 0.5004 -0.2589
vn 0.5627 0.7121 -0.4199
vn -0.5629 -0.7119 0.4199
vn -0.0257 -0.4927 -0.8698
vn 0.0259 0.4925 0.8699
vn 0.8262 -0.5004 0.2588
vn -0.8262 0.5003 -0.2589
vn 0.5629 0.7119 -0.4200
vn -0.5627 -0.7121 0.4199
vn -0.0259 -0.4927 -0.8698
vn 0.0258 0.4928 0.8698
v 17.040741 -13.761169 8.027677
v 17.014128 -13.771448 8.018401
v 17.073462 -13.832691 8.013049
v 17.046848 -13.842970 8.003773
v 17.039886 -13.762323 8.031410
v 17.013273 -13.772602 8.022134
v 17.072607 -13.833845 8.016782
v 17.045994 -13.844124 8.007506
vn -0.2138 -0.2887 0.9332
vn 0.2138 0.2887 -0.9332
vn 0.4090 -0.8941 -0.1826
vn -0.4090 0.8942 0.1823
vn -0.8872 -0.3427 -0.3088
vn 0.8871 0.3428 0.3091
vn 0.2138 0.2887 -0.9333
vn 0.4090 -0.8940 -0.1828
vn -0.4090 0.8941 0.1827
vn -0.8871 -0.3428 -0.3092
vn 0.8872 0.3426 0.3089
v -1.762112 12.803967 6.833255
v -1.765038 12.804873 6.803412
v -1.791877 12.878042 6.838426
v -1.794803 12.878950 6.808582
v -1.758420 12.805471 6.832939
v -1.761346 12.806379 6.803096
v -1.788184 12.879548 6.838109
v -1.791111 12.880455 6.808266
vn 0.9231 0.3764 -0.0791
vn -0.9231 -0.3764 0.0791
vn -0.3719 0.9260 0.0645
vn 0.3721 -0.9260 -0.0646
vn -0.0976 0.0302 -0.9948
vn 0.0976 -0.0302 0.9948
vn 0.9231 0.3764 -0.0790
vn -0.3721 0.9259 0.0648
vn 0.3719 -0.9260 -0.0646
v 3.686703 -15.346222 6.090337
v 3.706932 -15.359102 6.072312
v 3.627784 -15.382275 6.049980
v 3.648012 -15.395156 6.031954
v 3.686486 -15.343091 6.087857
v 3.706715 -15.355972 6.069831
v 3.627567 -15.379145 6.047499
v 3.647796 -15.392025 6.029474
vn -0.0542 0.7827 -0.6201
vn 0.0542 -0.7826 0.6201
vn -0.7367 -0.4506 -0.5043
vn 0.7363 0.4506 0.5048
vn 0.6743 -0.4293 -0.6009
vn -0.6743 0.4292 0.6009
vn -0.0542 0.7826 -0.6201
vn 0.0542 -0.7827 0.6201
vn -0.7364 -0.4506 -0.5046
vn 0.7365 0.4505 0.5046
vn 0.6743 -0.4295 -0.6006
vn -0.6743 0.4295 0.6006
v 20.762060 -1.538201 1.943028
v 20.752169 -1.556145 1.921115
v 20.837563 -1.556460 1.923903
v 20.827673 -1.574405 1.901990
v 20.761965 -1.541273 1.945587
v 20.752075 -1.559218 1.923674
v 20.837469 -1.559533 1.926462
v 20.827578 -1.577478 1.904549
vn -0.0237 -0.7682 0.6398
vn 0.0237 0.7682 -0.6398
vn 0.9438 -0.2279 -0.2393
vn -0.9438 0.2280 0.2393
vn -0.3297 -0.5979 -0.7306
vn 0.3296 0.5984 0.7302
vn 0.9437 -0.2289 -0.2389
vn -0.9437 0.2287 0.2389
vn -0.3296 -0.5984 -0.7303
vn 0.3297 0.5979 0.7306
v -12.323258 16.046188 6.312162
v -12.300184 16.048965 6.293191
v -12.311536 16.121191 6.337402
v -12.288462 16.123968 6.318432
v -12.320770 16.044847 6.314992
v -12.297696 16.047625 6.296022
v -12.309048 16.119850 6.340232
v -12.285974 16.122627 6.321262
vn 0.6221 -0.3353 0.7075
vn -0.6221 0.3353 -0.7075
vn 0.1464 0.9374 0.3158
vn -0.1465 -0.9374 -0.3159
vn 0.7690 0.0925 -0.6325
vn -0.7692 -0.0924 0.6323
vn 0.1465 0.9377 0.3150
vn -0.1465 -0.9377 -0.3149
vn 0.7692 0.0926 -0.6323
vn -0.7690 -0.0928 0.6325
v 14.023583 1.136526 5.113542
v 14.031100 1.149979 5.087802
v 14.092480 1.160650 5.146271
v 14.099998 1.174103 5.120532
v 14.025352 1.133161 5.112299
v 14.032869 1.146614 5.086560
v 14.094249 1.157285 5.145029
v 14.101766 1.170738 5.119289
vn 0.4422 -0.8414 -0.3106
vn -0.4422 0.8414 0.3106
vn 0.8612 0.3015 0.4091
vn -0.8612 -0.3015 -0.4092
vn 0.2507 0.4484 -0.8580
vn -0.2506 -0.4485 0.8579
vn 0.8613 0.3012 0.4092
vn -0.8613 -0.3013 -0.4091
vn 0.2505 0.4486 -0.8579
vn -0.2505 -0.4485 0.8580
v 3.421604 16.586819 5.753430
v 3.397688 16.576036 5.738879
v 3.469462 16.557829 5.696254
v 3.445546 16.547045 5.681703
v 3.421929 16.583380 5.755446
v 3.398012 16.572596 5.740895
v 3.469787 16.554388 5.698270
v 3.445870 16.543606 5.683719
vn 0.0811 -0.8599 0.5039
vn -0.0811 0.8599 -0.5039
vn 0.5979 -0.3622 -0.7150
vn -0.5983 0.3623 0.7147
vn -0.7975 -0.3595 -0.4846
vn 0.7974 0.3595 0.4847
vn 0.0811 -0.8599 0.5040
vn 0.5983 -0.3623 -0.7146
vn -0.5979 0.3623 0.7150
vn -0.7973 -0.3593 -0.4849
vn 0.7973 0.3593 0.4850
v -9.282582 12.473657 8.988080
v -9.278257 12.485476 8.960848
v -9.318899 12.540973 9.011527
v -9.314574 12.552791 8.984295
v -9.279065 12.475137 8.989281
v -9.274740 12.486955 8.962049
v -9.315382 12.542452 9.012728
v -9.311057 12.554271 8.985496
vn 0.8793 0.3698 0.3001
vn -0.8793 -0.3698 -0.3001
vn -0.4540 0.8414 0.2931
vn 0.4538 -0.8415 -0.2931
vn 0.1445 0.3939 -0.9077
vn -0.1438 -0.3940 0.9078
vn 0.8793 0.3698 0.3002
vn -0.8793 -0.3698 -0.3002
vn -0.4538 0.8415 0.2931
vn 0.4540 -0.8414 -0.2931
vn 0.1438 0.3940 -0.9078
vn -0.1446 -0.3940 0.9077
v 8.714038 -4.508569 7.269021
v 8.733633 -4.486004 7.266402
v 8.758252 -4.540148 7.327739
v 8.777847 -4.517584 7.325120
v 8.716108 -4.510679 7.266327
v 8.735703 -4.488115 7.263708
v 8.760323 -4.542259 7.325045
v 8.779918 -4.519694 7.322426
vn 0.5176 -0.5277 -0.6735
vn -0.5176 0.5277 0.6735
vn 0.5529 -0.3947 0.7338
vn -0.5528 0.3947 -0.7339
vn 0.6530 0.7524 -0.0871
vn -0.6533 -0.7521 0.0873
vn -0.5176 0.5276 0.6736
vn 0.5524 -0.3948 0.7342
vn -0.5525 0.3948 -0.7341
vn 0.6533 0.7521 -0.0874
vn -0.6532 -0.7522 0.0873
v -15.131299 -17.722691 7.944237
v -15.129707 -17.714014 7.915564
v -15.139063 -17.646362 7.966905
v -15.137472 -17.637686 7.938231
v -15.127323 -17.722380 7.944551
v -15.125732 -17.713703 7.915878
v -15.135088 -17.646051 7.967219
v -15.133496 -17.637375 7.938546
vn 0.9939 0.0777 0.0787
vn -0.9939 -0.0777 -0.0787
vn -0.0970 0.9541 0.2832
vn 0.0971 -0.9541 -0.2831
vn 0.0529 0.2894 -0.9558
vn -0.0529 -0.2891 0.9558
vn -0.9939 -0.0778 -0.0787
vn -0.0971 0.9541 0.2833
vn 0.0971 -0.9541 -0.2833
vn 0.0533 0.2893 -0.9558
vn -0.0530 -0.2894 0.9557
v -3.668706 15.349806 4.168233
v -3.689399 15.343505 4.147447
v -3.628277 15.393457 4.114754
v -3.648971 15.387156 4.093967
v -3.666632 15.346560 4.167152
v -3.687325 15.340260 4.146366
v -3.626204 15.390212 4.113673
v -3.646897 15.383911 4.092886
vn 0.5185 -0.8113 -0.2702
vn -0.5185 0.8113 0.2703
vn 0.5056 0.5457 -0.6683
vn -0.5056 -0.5458 0.6682
vn -0.6898 -0.2100 -0.6929
vn 0.6898 0.2101 0.6929
vn 0.5185 -0.8113 -0.2703
vn -0.5185 0.8113 0.2702
vn 0.5053 0.5456 -0.6685
vn -0.5054 -0.5456 0.6685
vn -0.6897 -0.2101 -0.6930
vn 0.6898 0.2101 0.6928
v -9.580646 -12.171413 6.693458
v -9.588034 -12.149126 6.674785
v -9.655982 -12.173939 6.720254
v -9.663371 -12.151651 6.701581
v -9.579728 -12.168739 6.696288
v -9.587117 -12.146452 6.677614
v -9.655066 -12.171265 6.723083
v -9.662454 -12.148977 6.704410
vn 0.2292 0.6686 0.7074
vn -0.2292 -0.6687 -0.7074
vn -0.9418 -0.0317 0.3348
vn 0.9418 0.0318 -0.3348
vn -0.2463 0.7429 -0.6225
vn 0.2463 -0.7429 0.6224
vn 0.2292 0.6687 0.7074
vn -0.9417 -0.0316 0.3351
vn 0.9417 0.0316 -0.3350
vn -0.2462 0.7429 -0.6225
vn 0.2463 -0.7431 0.6222
v 14.024409 -17.215937 7.218226
v 13.999816 -17.228045 7.206035
v 14.054770 -17.204044 7.145173
v 14.030176 -17.216150 7.132982
v 14.026125 -17.219549 7.218352
v 14.001532 -17.231655 7.206161
v 14.056485 -17.207655 7.145298
v 14.031892 -17.219763 7.133107
vn 0.4289 -0.9028 0.0313
vn -0.4289 0.9028 -0.0313
vn 0.3796 0.1482 -0.9132
vn -0.3797 -0.1488 0.9131
vn -0.8199 -0.4034 -0.4062
vn 0.8199 0.4035 0.4061
vn 0.4290 -0.9028 0.0313
vn -0.4290 0.9028 -0.0313
vn 0.3796 0.1489 -0.9131
vn -0.3796 -0.1485 0.9132
vn -0.8194 -0.4044 -0.4063
vn 0.8198 0.4032 0.4065
v -2.356321 7.512352 5.039298
v -2.377227 7.532141 5.030851
v -2.356738 7.543387 5.113032
v -2.377644 7.563176 5.104585
v -2.353453 7.514927 5.038231
v -2.374359 7.534716 5.029784
v -2.353869 7.545962 5.111965
v -2.374775 7.565751 5.103518
vn 0.7172 0.6438 -0.2669
vn -0.7172 -0.6437 0.2669
vn -0.0054 0.3878 0.9217
vn 0.0053 -0.3878 -0.9217
vn -0.6970 0.6595 -0.2816
vn 0.6968 -0.6597 0.2816
vn 0.7172 0.6437 -0.2669
vn -0.0052 0.3879 0.9217
vn 0.0052 -0.3879 -0.9217
vn -0.6968 0.6597 -0.2816
vn 0.6969 -0.6596 0.2816
v 6.352105 -15.559464 1.951600
v 6.378781 -15.547771 1.944411
v 6.330319 -15.489720 1.984177
v 6.356996 -15.478028 1.976988
v 6.353576 -15.560651 1.955126
v 6.380252 -15.548959 1.947936
v 6.331790 -15.490908 1.987703
v 6.358466 -15.479216 1.980513
vn 0.3676 -0.2968 0.8813
vn -0.3676 0.2968 -0.8813
vn -0.2724 0.8719 0.4069
vn 0.2723 -0.8717 -0.4073
vn 0.8893 0.3897 -0.2395
vn -0.8892 -0.3898 0.2396
vn -0.2723 0.8717 0.4075
vn 0.2723 -0.8718 -0.4072
vn 0.8892 0.3897 -0.2397
vn -0.8892 -0.3897 0.2397
v 14.628430 12.055667 5.556759
v 14.603498 12.048347 5.541765
v 14.607473 12.132822 5.553941
v 14.582541 12.125502 5.538946
v 14.630393 12.056074 5.553298
v 14.605461 12.048754 5.538303
v 14.609436 12.133228 5.550479
v 14.584504 12.125909 5.535485
vn 0.4906 0.1016 -0.8654
vn -0.4906 -0.1017 0.8654
vn -0.2619 0.9644 -0.0356
vn 0.2620 -0.9644 0.0358
vn -0.8310 -0.2439 -0.5000
vn 0.8310 0.2440 0.5000
vn 0.4906 0.1017 -0.8654
vn -0.4907 -0.1016 0.8654
vn -0.2620 0.9644 -0.0348
vn 0.2620 -0.9644 0.0350
vn -0.8311 -0.2440 -0.4997
vn 0.8310 0.2439 0.4999
v -13.286689 -4.982950 2.210593
v -13.308635 -4.962543 2.209198
v -13.260126 -4.949747 2.278358
v -13.282072 -4.929341 2.276962
v -13.284307 -4.980533 2.208476
v -13.306253 -4.960127 2.207080
v -13.257745 -4.947330 2.276240
v -13.279691 -4.926924 2.274844
vn 0.5955 0.6042 -0.5295
vn -0.5955 -0.6042 0.5295
vn 0.3321 0.4151 0.8470
vn -0.3321 -0.4151 -0.8470
vn -0.7318 0.6800 -0.0465
vn 0.7316 -0.6801 0.0465
vn -0.3322 -0.4151 -0.8470
vn -0.7318 0.6800 -0.0466
vn 0.7317 -0.6801 0.0465
v 1.507429 -17.664780 7.517277
v 1.494661 -17.668705 7.490415
v 1.578809 -17.682829 7.485988
v 1.566041 -17.686756 7.459126
v 1.506825 -17.668640 7.518128
v 1.494057 -17.672567 7.491266
v 1.578205 -17.686691 7.486839
v 1.565438 -17.690617 7.459977
vn -0.1508 -0.9654 0.2128
vn 0.1508 0.9654 -0.2128
vn 0.8922 -0.2256 -0.3912
vn -0.8922 0.2256 0.3913
vn -0.4254 -0.1309 -0.8955
vn 0.4259 0.1309 0.8952
vn -0.1509 -0.9654 0.2129
vn 0.1509 0.9654 -0.2127
vn 0.8922 -0.2256 -0.3914
vn -0.8923 0.2257 0.3911
vn -0.4257 -0.1309 -0.8954
vn 0.4256 0.1309 0.8954
v 20.342388 -12.427526 5.122396
v 20.343624 -12.419692 5.093464
v 20.406729 -12.382401 5.137366
v 20.407965 -12.374567 5.108433
v 20.344759 -12.430660 5.121649
v 20.345995 -12.422826 5.092717
v 20.409100 -12.385535 5.136619
v 20.410336 -12.377701 5.107686
vn 0.5928 -0.7833 -0.1868
vn -0.5929 0.7833 0.1868
vn 0.8040 0.5645 0.1870
vn -0.8044 -0.5639 -0.1871
vn 0.0412 0.2612 -0.9644
vn -0.0413 -0.2611 0.9644
vn 0.5929 -0.7833 -0.1868
vn 0.8046 0.5635 0.1871
vn -0.8042 -0.5642 -0.1870
vn 0.0413 0.2612 -0.9644
vn -0.0413 -0.2612 0.9644
v -12.460662 -9.505968 7.324638
v -12.454194 -9.510362 7.295675
v -12.438103 -9.429496 7.318075
v -12.431636 -9.433889 7.289112
v -12.456922 -9.506987 7.325628
v -12.450455 -9.511380 7.296664
v -12.434363 -9.430514 7.319065
v -12.427896 -9.434908 7.290101
vn 0.9349 -0.2546 0.2474
vn -0.9349 0.2546 -0.2474
vn 0.2820 0.9559 -0.0821
vn -0.2820 -0.9559 0.0820
vn 0.2156 -0.1464 -0.9654
vn -0.2156 0.1464 0.9654
vn 0.9349 -0.2545 0.2474
vn -0.9349 0.2545 -0.2474
vn 0.2820 0.9559 -0.0819
vn -0.2819 -0.9559 0.0820
vn 0.2156 -0.1465 -0.9654
vn -0.2157 0.1465 0.9654
v 12.986485 -2.071978 2.920767
v 13.012393 -2.058984 2.913026
v 13.019310 -2.096492 2.989480
v 13.045218 -2.083498 2.981740
v 12.987657 -2.075368 2.918998
v 13.013565 -2.062374 2.911257
v 13.020482 -2.099882 2.987711
v 13.046391 -2.086888 2.979970
vn 0.2929 -0.8477 -0.4423
vn -0.2929 0.8477 0.4423
vn 0.4105 -0.3065 0.8588
vn -0.4103 0.3064 -0.8589
vn 0.8636 0.4332 -0.2581
vn -0.8635 -0.4332 0.2581
vn 0.2930 -0.8476 -0.4424
vn -0.2930 0.8476 0.4424
vn 0.4102 -0.3065 0.8589
vn -0.4103 0.3066 -0.8589
vn 0.8636 0.4331 -0.2580
vn -0.8636 -0.4332 0.2580
v 5.082705 -6.474950 7.323234
v 5.101609 -6.455941 7.309771
v 5.040552 -6.413072 7.351415
v 5.059456 -6.394063 7.337952
v 5.084987 -6.474892 7.326519
v 5.103891 -6.455883 7.313056
v 5.042833 -6.413014 7.354700
v 5.061738 -6.394004 7.341237
vn 0.5703 0.0145 0.8213
vn -0.5703 -0.0145 -0.8213
vn -0.5268 0.7735 0.3523
vn 0.5269 -0.7735 -0.3523
vn 0.6302 0.6336 -0.4489
vn -0.6300 -0.6337 0.4489
vn 0.5704 0.0145 0.8213
vn -0.5704 -0.0145 -0.8213
vn -0.5269 0.7735 0.3523
vn 0.5268 -0.7735 -0.3523
vn 0.6301 0.6337 -0.4488
vn -0.6301 -0.6336 0.4488
v 17.414503 5.622554 7.595764
v 17.394737 5.643107 7.586442
v 17.469019 5.680033 7.606905
v 17.449255 5.700586 7.597583
v 17.415777 5.622074 7.592002
v 17.396013 5.642628 7.582681
v 17.470295 5.679553 7.603144
v 17.450529 5.700106 7.593822
vn 0.3187 -0.1200 -0.9402
vn -0.3187 0.1200 0.9402
vn 0.6814 0.7185 0.1397
vn -0.6815 -0.7184 -0.1395
vn -0.6589 0.6850 -0.3108
vn 0.6589 -0.6850 0.3110
vn -0.3187 0.1199 0.9402
vn 0.6815 0.7185 0.1391
vn -0.6816 -0.7184 -0.1392
vn -0.6588 0.6851 -0.3108
vn 0.6588 -0.6852 0.3107
v 14.386360 -11.866790 2.958917
v 14.376476 -11.847895 2.937816
v 14.317762 -11.857811 2.999089
v 14.307878 -11.838915 2.977988
v 14.387941 -11.863716 2.960930
v 14.378057 -11.844820 2.939828
v 14.319344 -11.854736 3.001101
v 14.309460 -11.835841 2.980000
vn 0.3952 0.7686 0.5031
vn -0.3952 -0.7686 -0.5031
vn -0.8574 0.1128 0.5021
vn 0.8574 -0.1124 -0.5022
vn -0.3295 0.6297 -0.7035
vn 0.3294 -0.6298 0.7035
vn -0.3952 -0.7685 -0.5031
vn -0.8574 0.1123 0.5023
vn 0.8575 -0.1123 -0.5020
vn -0.3294 0.6299 -0.7033
vn 0.3294 -0.6300 0.7033
v 20.786009 3.938666 8.078033
v 20.785959 3.945178 8.048749
v 20.804455 4.014660 8.094901
v 20.804407 4.021172 8.065617
v 20.789900 3.937767 8.077827
v 20.789852 3.944278 8.048543
v 20.808348 4.013761 8.094695
v 20.808298 4.020273 8.065411
vn 0.9730 -0.2248 -0.0516
vn -0.9731 0.2247 0.0516
vn 0.2306 0.9499 0.2109
vn -0.2307 -0.9499 -0.2109
vn -0.0015 0.2171 -0.9762
vn 0.0015 -0.2171 0.9761
vn -0.9730 0.2248 0.0516
vn 0.2306 0.9499 0.2108
vn -0.2305 -0.9500 -0.2108
vn -0.0017 0.2171 -0.9761
vn 0.0015 -0.2170 0.9762
v -16.289474 -13.677355 2.316418
v -16.286379 -13.680019 2.286697
v -16.340324 -13.616538 2.305670
v -16.337229 -13.619203 2.275949
v -16.286413 -13.674781 2.316506
v -16.283318 -13.677445 2.286785
v -16.337263 -13.613964 2.305758
v -16.334167 -13.616629 2.276037
vn 0.7651 0.6436 0.0220
vn -0.7651 -0.6436 -0.0220
vn -0.6357 0.7601 -0.1345
vn 0.6357 -0.7602 0.1344
vn 0.1032 -0.0888 -0.9907
vn -0.1032 0.0889 0.9907
vn -0.6357 0.7602 -0.1344
vn 0.6357 -0.7601 0.1344
vn -0.1032 0.0888 0.9907
v 5.926712 2.429732 4.862051
v 5.923438 2.429434 4.832232
v 5.975184 2.493096 4.856097
v 5.971910 2.492798 4.826278
v 5.929864 2.427291 4.861730
v 5.926590 2.426993 4.831911
v 5.978336 2.490654 4.855775
v 5.975062 2.490356 4.825956
vn 0.7880 -0.6104 -0.0804
vn -0.7880 0.6104 0.0804
vn 0.6059 0.7920 -0.0744
vn -0.6059 -0.7920 0.0744
vn -0.1093 -0.0099 -0.9940
vn 0.1093 0.0099 0.9940
vn 0.6060 0.7920 -0.0744
vn -0.6058 -0.7922 0.0744
vn -0.1089 -0.0100 -0.9940
vn 0.1089 0.0100 0.9940
v -4.193303 -15.247386 6.933935
v -4.186803 -15.273797 6.921278
v -4.124714 -15.217124 6.906010
v -4.118215 -15.243535 6.893352
v -4.191435 -15.248530 6.937282
v -4.184936 -15.274941 6.924624
v -4.122846 -15.218268 6.909357
v -4.116347 -15.244679 6.896699
vn 0.4669 -0.2861 0.8367
vn -0.4669 0.2861 -0.8367
vn 0.8573 0.3783 -0.3492
vn -0.8573 -0.3784 0.3491
vn 0.2168 -0.8804 -0.4217
vn -0.2166 0.8802 0.4224
vn -0.4669 0.2861 -0.8368
vn 0.8574 0.3783 -0.3490
vn -0.8573 -0.3782 0.3492
vn 0.2165 -0.8802 -0.4224
vn -0.2166 0.8804 0.4219
v -15.452358 -1.086807 1.818583
v -15.453609 -1.057526 1.812176
v -15.393767 -1.072788 1.871219
v -15.395018 -1.043507 1.864812
v -15.449640 -1.087323 1.815694
v -15.450891 -1.058042 1.809287
v -15.391049 -1.073304 1.868330
v -15.392300 -1.044023 1.861923
vn 0.6796 -0.1290 -0.7221
vn -0.6796 0.1290 0.7221
vn 0.7324 0.1753 0.6579
vn -0.7325 -0.1751 -0.6579
vn -0.0417 0.9760 -0.2137
vn 0.0417 -0.9760 0.2136
vn 0.7324 0.1752 0.6579
vn -0.7324 -0.1752 -0.6579
vn -0.0417 0.9760 -0.2136
vn 0.0417 -0.9761 0.2135
v 0.765150 -12.837070 3.707668
v 0.777691 -12.861821 3.696263
v 0.720942 -12.828973 3.641486
v 0.733483 -12.853724 3.630080
v 0.768034 -12.834846 3.706013
v 0.780575 -12.859597 3.694608
v 0.723826 -12.826749 3.639831
v 0.736367 -12.851501 3.628426
vn 0.7210 0.5559 -0.4136
vn -0.7210 -0.5559 0.4136
vn -0.5526 0.1012 -0.8273
vn 0.5527 -0.1012 0.8272
vn 0.4181 -0.8251 -0.3800
vn -0.4181 0.8250 0.3803
vn 0.5526 -0.1012 0.8273
vn 0.4180 -0.8249 -0.3804
vn -0.4181 0.8250 0.3802
v 9.957548 14.713471 3.397044
v 9.958253 14.712910 3.367058
v 9.877828 14.707018 3.395289
v 9.878533 14.706456 3.365303
v 9.957227 14.717458 3.396962
v 9.957932 14.716896 3.366976
v 9.877507 14.711004 3.395207
v 9.878212 14.710443 3.365221
vn -0.0802 0.9966 -0.0206
vn 0.0802 -0.9966 0.0205
vn -0.9965 -0.0806 -0.0219
vn 0.9965 0.0803 0.0219
vn 0.0235 -0.0187 -0.9995
vn -0.0235 0.0187 0.9995
vn 0.0802 -0.9966 0.0206
vn -0.9965 -0.0810 -0.0219
vn 0.9965 0.0810 0.0219
vn 0.0235 -0.0188 -0.9995
v 10.060955 12.766029 5.187640
v 10.062064 12.769856 5.157905
v 10.140888 12.764246 5.190391
v 10.141996 12.768073 5.160656
v 10.060884 12.762063 5.187127
v 10.061993 12.765890 5.157392
v 10.140817 12.760280 5.189878
v 10.141926 12.764107 5.160143
vn -0.0177 -0.9916 -0.1283
vn 0.0177 0.9916 0.1282
vn 0.9992 -0.0224 0.0344
vn -0.9992 0.0224 -0.0344
vn 0.0370 0.1276 -0.9911
vn -0.0370 -0.1276 0.9911
vn -0.0177 -0.9916 -0.1282
vn 0.0177 0.9916 0.1283
vn 0.9992 -0.0223 0.0343
v 21.628458 3.300378 3.668304
v 21.619520 3.303500 3.639837
v 21.557699 3.327890 3.693533
v 21.548763 3.331012 3.665066
v 21.629894 3.304111 3.668263
v 21.620958 3.307233 3.639796
v 21.559137 3.331623 3.693492
v 21.550200 3.334745 3.665024
vn 0.3591 0.9332 -0.0104
vn -0.3591 -0.9332 0.0104
vn -0.8844 0.3440 0.3155
vn 0.8842 -0.3446 -0.3154
vn -0.2978 0.1040 -0.9489
vn 0.2979 -0.1043 0.9489
vn -0.8842 0.3446 0.3153
vn 0.8844 -0.3442 -0.3153
vn -0.2979 0.1047 -0.9488
vn 0.2979 -0.1041 0.9489
v -0.058984 -4.654258 6.545509
v -0.071933 -4.651742 6.518564
v -0.114866 -4.707143 6.567425
v -0.127815 -4.704628 6.540481
v -0.061268 -4.651275 6.546885
v -0.074216 -4.648759 6.519940
v -0.117150 -4.704161 6.568801
v -0.130098 -4.701645 6.541856
vn -0.5708 0.7456 0.3439
vn 0.5708 -0.7456 -0.3439
vn -0.6985 -0.6611 0.2740
vn 0.6985 0.6610 -0.2740
vn -0.4317 0.0839 -0.8981
vn 0.4316 -0.0839 0.8982
vn -0.6986 -0.6611 0.2738
vn 0.6985 0.6611 -0.2739
vn -0.4316 0.0839 -0.8982
v 20.372866 -14.838937 3.219322
v 20.353497 -14.816425 3.215069
v 20.431189 -14.786065 3.233566
v 20.411821 -14.763554 3.229312
v 20.373774 -14.838890 3.215427
v 20.354406 -14.816379 3.211174
v 20.432098 -14.786018 3.229671
v 20.412729 -14.763507 3.225417
vn 0.2273 0.0116 -0.9738
vn -0.2273 -0.0116 0.9738
vn 0.7291 0.6609 0.1778
vn -0.7290 -0.6609 -0.1779
vn -0.6457 0.7504 -0.1413
vn 0.6457 -0.7504 0.1415
vn 0.7290 0.6609 0.1783
vn -0.7291 -0.6608 -0.1778
vn -0.6457 0.7503 -0.1419
vn 0.6456 -0.7504 0.1419
v 7.753150 18.803240 3.379003
v 7.756887 18.776548 3.365827
v 7.793617 18.838261 3.319539
v 7.797355 18.811569 3.306363
v 7.756564 18.802723 3.381021
v 7.760302 18.776031 3.367845
v 7.797032 18.837744 3.321558
v 7.800769 18.811052 3.308381
vn 0.8535 -0.1295 0.5047
vn -0.8536 0.1296 -0.5046
vn 0.5058 0.4379 -0.7433
vn -0.5057 -0.4379 0.7433
vn 0.1248 -0.8897 -0.4392
vn -0.1247 0.8896 0.4395
vn 0.8536 -0.1296 0.5045
vn -0.8536 0.1296 -0.5045
vn 0.5057 0.4377 -0.7435
vn -0.5057 -0.4378 0.7434
vn -0.1248 0.8897 0.4391
v -5.087798 -13.582414 7.890032
v -5.069375 -13.591928 7.868351
v -5.133462 -13.546103 7.835293
v -5.115039 -13.555617 7.813612
v -5.085618 -13.579083 7.890422
v -5.067194 -13.588597 7.868742
v -5.131282 -13.542772 7.835684
v -5.112859 -13.552287 7.814003
vn 0.5450 0.8327 0.0978
vn -0.5450 -0.8327 -0.0977
vn -0.5707 0.4538 -0.6844
vn 0.5706 -0.4537 0.6845
vn 0.6141 -0.3173 -0.7226
vn -0.6140 0.3171 0.7228
vn 0.5450 0.8327 0.0977
vn -0.5707 0.4537 -0.6844
vn 0.5708 -0.4540 0.6842
vn 0.6140 -0.3169 -0.7229
vn -0.6143 0.3171 0.7225
v 21.244329 13.692350 4.583233
v 21.262747 13.676386 4.565742
v 21.197828 13.707943 4.520031
v 21.216246 13.691979 4.502541
v 21.246466 13.695645 4.582474
v 21.264883 13.679682 4.564984
v 21.199965 13.711239 4.519273
v 21.218382 13.695274 4.501782
vn 0.5341 0.8239 -0.1897
vn -0.5340 -0.8239 0.1896
vn -0.5813 0.1953 -0.7899
vn 0.5814 -0.1948 0.7900
vn 0.6140 -0.5319 -0.5832
vn -0.6138 0.5325 0.5828
vn 0.5340 0.8239 -0.1896
vn -0.5341 -0.8239 0.1897
vn -0.5813 0.1948 -0.7900
vn 0.5814 -0.1952 0.7899
vn 0.6140 -0.5320 -0.5830
vn -0.6140 0.5321 0.5830
v -16.473146 -2.732951 5.575543
v -16.473263 -2.757426 5.558194
v -16.551294 -2.722808 5.561753
v -16.551409 -2.747283 5.544404
v -16.472292 -2.730694 5.572353
v -16.472406 -2.755169 5.555005
v -16.550438 -2.720551 5.558563
v -16.550554 -2.745026 5.541214
vn 0.2139 0.5642 -0.7974
vn -0.2139 -0.5642 0.7974
vn -0.9769 0.1266 -0.1721
vn 0.9768 -0.1271 0.1724
vn -0.0039 -0.8159 -0.5782
vn 0.0038 0.8158 0.5783
vn 0.2140 0.5642 -0.7974
vn -0.2140 -0.5642 0.7974
vn -0.9768 0.1270 -0.1725
vn 0.9769 -0.1263 0.1721
vn -0.0038 -0.8158 -0.5783
vn 0.0039 0.8159 0.5782
v 1.335598 -7.666693 8.775693
v 1.356901 -7.686131 8.767424
v 1.325412 -7.645346 8.699269
v 1.346714 -7.664783 8.691000
v 1.338369 -7.663839 8.776121
v 1.359671 -7.683277 8.767852
v 1.328182 -7.642492 8.699697
v 1.349484 -7.661930 8.691428
vn 0.6925 0.7134 0.1070
vn -0.6925 -0.7134 -0.1070
vn -0.1275 0.2669 -0.9553
vn 0.1274 -0.2669 0.9553
vn 0.7101 -0.6480 -0.2756
vn -0.7100 0.6480 0.2757
vn -0.1274 0.2669 -0.9553
vn 0.1276 -0.2669 0.9552
vn 0.7101 -0.6479 -0.2756
vn -0.7101 0.6479 0.2756
v -8.023480 5.213167 8.088388
v -8.034726 5.209319 8.060843
v -7.970962 5.266173 8.059543
v -7.982207 5.262325 8.031998
v -8.020862 5.210215 8.087732
v -8.032107 5.206367 8.060187
v -7.968343 5.263221 8.058887
v -7.979589 5.259373 8.031342
vn 0.6546 -0.7379 -0.1642
vn -0.6546 0.7379 0.1642
vn 0.6564 0.6627 -0.3606
vn -0.6565 -0.6626 0.3605
vn -0.3746 -0.1284 -0.9183
vn 0.3747 0.1284 0.9182
vn 0.6565 0.6626 -0.3605
vn -0.6565 -0.6626 0.3606
vn -0.3748 -0.1283 -0.9182
vn 0.3748 0.1284 0.9182
v 8.773077 8.807937 4.103632
v 8.777949 8.818542 4.075995
v 8.740705 8.877966 4.124796
v 8.745576 8.888570 4.097159
v 8.776677 8.809257 4.104773
v 8.781549 8.819860 4.077136
v 8.744304 8.879285 4.125937
v 8.749176 8.889890 4.098300
vn 0.8999 0.3298 0.2852
vn -0.8999 -0.3298 -0.2852
vn -0.4045 0.8755 0.2645
vn 0.4046 -0.8754 -0.2645
vn 0.1624 0.3534 -0.9213
vn -0.1626 -0.3536 0.9212
vn -0.4049 0.8752 0.2646
vn 0.4049 -0.8753 -0.2645
vn 0.1626 0.3534 -0.9212
vn -0.1623 -0.3534 0.9213
v -6.791260 13.343716 2.307190
v -6.782840 13.365051 2.287854
v -6.778779 13.394018 2.368132
v -6.770359 13.415355 2.348795
v -6.787472 13.342458 2.307453
v -6.779052 13.363794 2.288116
v -6.774991 13.392761 2.368394
v -6.766571 13.414097 2.349058
vn 0.9470 -0.3143 0.0655
vn -0.9470 0.3144 -0.0655
vn 0.1560 0.6289 0.7617
vn -0.1560 -0.6289 -0.7616
vn 0.2807 0.7112 -0.6445
vn -0.2805 -0.7114 0.6444
vn -0.9470 0.3143 -0.0655
vn 0.1560 0.6288 0.7618
vn -0.1561 -0.6289 -0.7617
vn 0.2805 0.7112 -0.6445
vn -0.2808 -0.7111 0.6446
v -11.590410 1.743133 5.605953
v -11.602674 1.742760 5.578576
v -11.535192 1.795127 5.580508
v -11.547455 1.794755 5.553132
v -11.588022 1.740093 5.604924
v -11.600286 1.739721 5.577548
v -11.532803 1.792088 5.579480
v -11.545067 1.791715 5.552104
vn 0.5970 -0.7599 -0.2571
vn -0.5970 0.7599 0.2571
vn 0.6902 0.6500 -0.3180
vn -0.6903 -0.6498 0.3181
vn -0.4087 -0.0123 -0.9126
vn 0.4088 0.0125 0.9125
vn 0.6901 0.6501 -0.3180
vn -0.6902 -0.6500 0.3180
vn -0.4087 -0.0127 -0.9126
vn 0.4086 0.0124 0.9126
v 9.473243 -1.870385 2.929835
v 9.482608 -1.842180 2.925743
v 9.496114 -1.866870 3.006415
v 9.505480 -1.838665 3.002323
v 9.476866 -1.871737 2.928814
v 9.486232 -1.843531 2.924723
v 9.499738 -1.868222 3.005395
v 9.509103 -1.840016 3.001303
vn 0.9060 -0.3378 -0.2551
vn -0.9060 0.3378 0.2551
vn 0.2859 0.0439 0.9572
vn -0.2859 -0.0440 -0.9573
vn 0.3121 0.9402 -0.1364
vn -0.3122 -0.9402 0.1364
vn 0.2858 0.0439 0.9573
vn -0.2859 -0.0438 -0.9572
vn 0.3122 0.9402 -0.1364
v -9.816207 -13.459652 7.525750
v -9.814209 -13.442408 7.501283
v -9.739168 -13.445497 7.542019
v -9.737170 -13.428252 7.517551
v -9.815162 -13.462848 7.523583
v -9.813164 -13.445603 7.499116
v -9.738123 -13.448692 7.539852
v -9.736125 -13.431448 7.515385
vn 0.2612 -0.7989 -0.5417
vn -0.2612 0.7990 0.5416
vn 0.9629 0.1772 0.2033
vn -0.9630 -0.1769 -0.2034
vn 0.0666 0.5746 -0.8157
vn -0.0666 -0.5747 0.8156
vn 0.2612 -0.7989 -0.5418
vn -0.2612 0.7989 0.5418
vn 0.9630 0.1768 0.2034
vn -0.9630 -0.1770 -0.2034
vn 0.0666 0.5747 -0.8157
vn -0.0666 -0.5746 0.8157
v -4.496500 15.026593 2.736505
v -4.473084 15.022757 2.718148
v -4.545495 14.998388 2.679902
v -4.522079 14.994552 2.661545
v -4.497001 15.030301 2.735091
v -4.473585 15.026464 2.716734
v -4.545996 15.002096 2.678488
v -4.522580 14.998260 2.660131
vn -0.1252 0.9270 -0.3536
vn 0.1252 -0.9270 0.3536
vn -0.6125 -0.3527 -0.7074
vn 0.6124 0.3525 0.7076
vn 0.7806 -0.1279 -0.6118
vn -0.7804 0.1279 0.6121
vn 0.1253 -0.9270 0.3535
vn -0.6124 -0.3525 -0.7076
vn 0.6125 0.3527 0.7074
vn 0.7804 -0.1278 -0.6120
vn -0.7806 0.1280 0.6118
v 2.130424 -12.464903 2.586919
v 2.103977 -12.451660 2.581897
v 2.147105 -12.410326 2.642982
v 2.120659 -12.397083 2.637960
v 2.132118 -12.462572 2.584145
v 2.105672 -12.449329 2.579123
v 2.148799 -12.407995 2.640209
v 2.122353 -12.394753 2.635186
vn 0.4236 0.5829 -0.6935
vn -0.4236 -0.5829 0.6934
vn 0.2086 0.6824 0.7006
vn -0.2085 -0.6822 -0.7008
vn -0.8815 0.4414 -0.1675
vn 0.8815 -0.4414 0.1675
vn 0.4235 0.5829 -0.6934
vn -0.4235 -0.5829 0.6935
vn 0.2086 0.6822 0.7008
vn -0.2087 -0.6825 -0.7005
vn -0.8815 0.4415 -0.1675
vn 0.8815 -0.4415 0.1675
v -0.635551 10.746457 4.571797
v -0.634866 10.741066 4.542294
v -0.703143 10.788250 4.562593
v -0.702458 10.782859 4.533089
v -0.633413 10.749791 4.571238
v -0.632728 10.744400 4.541734
v -0.701005 10.791584 4.562033
v -0.700320 10.786193 4.532530
vn 0.5344 0.8336 -0.1399
vn -0.5344 -0.8336 0.1399
vn -0.8449 0.5224 -0.1151
vn 0.8449 -0.5224 0.1151
vn 0.0228 -0.1796 -0.9835
vn -0.0227 0.1797 0.9835
vn 0.5344 0.8335 -0.1399
vn -0.5344 -0.8335 0.1399
vn -0.8449 0.5225 -0.1151
vn 0.0229 -0.1798 -0.9834
vn -0.0229 0.1797 0.9835
v -5.939101 12.179544 3.931737
v -5.941918 12.197606 3.907949
v -5.943954 12.242864 3.980390
v -5.946771 12.260925 3.956603
v -5.935126 12.179966 3.931586
v -5.937943 12.198028 3.907798
v -5.939979 12.243285 3.980239
v -5.942796 12.261347 3.956451
vn 0.9937 0.1052 -0.0378
vn -0.9937 -0.1052 0.0378
vn -0.0607 0.7915 0.6081
vn 0.0609 -0.7915 -0.6081
vn -0.0941 0.6021 -0.7929
vn 0.0941 -0.6020 0.7929
vn -0.0609 0.7915 0.6081
vn -0.0941 0.6020 -0.7929
v 10.788010 16.635099 5.473669
v 10.805048 16.658691 5.466377
v 10.805868 16.646069 5.550875
v 10.822906 16.669659 5.543583
v 10.791179 16.632690 5.473278
v 10.808216 16.656281 5.465986
v 10.809036 16.643658 5.550484
v 10.826075 16.667250 5.543192
vn 0.7922 -0.6024 -0.0977
vn -0.7922 0.6024 0.0977
vn 0.2235 0.1371 0.9650
vn -0.2234 -0.1369 -0.9651
vn 0.5679 0.7865 -0.2429
vn -0.5677 -0.7865 0.2430
vn 0.7922 -0.6023 -0.0977
vn -0.7923 0.6023 0.0977
vn 0.2232 0.1370 0.9651
vn -0.2233 -0.1372 -0.9651
vn 0.5682 0.7862 -0.2431
vn -0.5683 -0.7861 0.2433
v -5.382195 17.592058 4.947100
v -5.391026 17.595676 4.918658
v -5.458400 17.582659 4.969562
v -5.467230 17.586277 4.941120
v -5.382505 17.596001 4.947698
v -5.391335 17.599619 4.919256
v -5.458710 17.586601 4.970160
v -5.467540 17.590219 4.941718
vn -0.0775 0.9857 0.1495
vn 0.0775 -0.9857 -0.1494
vn -0.9526 -0.1176 0.2806
vn 0.9527 0.1175 -0.2804
vn -0.2942 0.1206 -0.9481
vn 0.2942 -0.1206 0.9481
vn -0.0775 0.9857 0.1494
vn 0.0775 -0.9857 -0.1495
vn -0.9526 -0.1175 0.2807
vn 0.9525 0.1175 -0.2808
vn -0.2946 0.1207 -0.9480
vn 0.2944 -0.1207 0.9480
v -10.937040 17.297321 5.652888
v -10.914163 17.280405 5.643378
v -10.951229 17.320442 5.577628
v -10.928351 17.303526 5.568118
v -10.934552 17.300417 5.653370
v -10.911674 17.283501 5.643860
v -10.948741 17.323538 5.578110
v -10.925863 17.306622 5.568600
vn 0.6221 0.7736 0.1203
vn -0.6220 -0.7737 -0.1204
vn -0.1775 0.2892 -0.9407
vn 0.1774 -0.2891 0.9407
vn 0.7627 -0.5639 -0.3168
vn -0.7628 0.5636 0.3172
vn 0.6221 0.7736 0.1205
vn -0.6221 -0.7736 -0.1204
vn -0.1773 0.2891 -0.9407
vn 0.1775 -0.2892 0.9407
vn 0.7629 -0.5633 -0.3172
vn -0.7627 0.5639 0.3168
v -6.084956 2.056300 8.329049
v -6.073121 2.044247 8.304256
v -6.056881 2.128064 8.307564
v -6.045046 2.116012 8.282771
v -6.081559 2.055563 8.331029
v -6.069724 2.043511 8.306236
v -6.053484 2.127328 8.309544
v -6.041649 2.115275 8.284751
vn 0.8492 -0.1841 0.4949
vn -0.8492 0.1841 -0.4949
vn 0.3510 0.8971 -0.2686
vn -0.3508 -0.8971 0.2685
vn 0.3945 -0.4018 -0.8264
vn -0.3945 0.4018 0.8264
vn 0.3509 0.8971 -0.2686
vn -0.3509 -0.8971 0.2686
vn 0.3946 -0.4017 -0.8264
vn -0.3945 0.4017 0.8264
v 13.757789 -4.885861 1.676829
v 13.762127 -4.878666 1.648029
v 13.700525 -4.830245 1.682096
v 13.704865 -4.823050 1.653297
v 13.760521 -4.883151 1.677917
v 13.764860 -4.875956 1.649118
v 13.703259 -4.827534 1.683185
v 13.707597 -4.820339 1.654386
vn 0.6832 0.6776 0.2722
vn -0.6832 -0.6776 -0.2722
vn -0.7160 0.6950 0.0658
vn 0.7160 -0.6950 -0.0659
vn 0.1446 0.2398 -0.9600
vn -0.1446 -0.2398 0.9600
vn -0.7157 0.6953 0.0658
vn 0.7158 -0.6952 -0.0657
v 6.523715 -0.856397 5.176866
v 6.510040 -0.833094 5.163830
v 6.586136 -0.809704 5.194851
v 6.572460 -0.786401 5.181816
v 6.525429 -0.857343 5.173378
v 6.511753 -0.834040 5.160342
v 6.587849 -0.810651 5.191363
v 6.574173 -0.787347 5.178327
vn 0.4282 -0.2366 -0.8722
vn -0.4282 0.2366 0.8722
vn 0.7802 0.5837 0.2249
vn -0.7802 -0.5837 -0.2248
vn -0.4559 0.7767 -0.4346
vn 0.4558 -0.7768 0.4346
vn 0.4283 -0.2366 -0.8721
vn -0.4282 0.2366 0.8721
vn 0.7803 0.5835 0.2249
vn -0.7802 -0.5837 -0.2249
vn -0.4559 0.7768 -0.4345
v -16.376472 -6.725736 5.655682
v -16.388226 -6.713691 5.630847
v -16.389141 -6.657183 5.694925
v -16.400896 -6.645138 5.670090
v -16.372847 -6.724442 5.654593
v -16.384602 -6.712398 5.629758
v -16.385517 -6.655890 5.693836
v -16.397270 -6.643845 5.669001
vn 0.9063 0.3233 -0.2721
vn -0.9063 -0.3234 0.2722
vn -0.1583 0.8570 0.4904
vn 0.1583 -0.8568 -0.4907
vn -0.3918 0.4018 -0.8277
vn 0.3919 -0.4014 0.8279
vn 0.9063 0.3233 -0.2722
vn -0.9063 -0.3233 0.2721
vn -0.1583 0.8569 0.4906
vn 0.1582 -0.8571 -0.4902
vn -0.3919 0.4014 -0.8279
vn 0.3918 -0.4016 0.8278
v -6.033319 -0.501366 6.436303
v -6.015095 -0.523227 6.426817
v -6.096435 -0.549348 6.425618
v -6.078211 -0.571209 6.416133
v -6.033689 -0.500044 6.432546
v -6.015464 -0.521905 6.423060
v -6.096805 -0.548026 6.421861
v -6.078580 -0.569887 6.412376
vn -0.0923 0.3306 -0.9393
vn 0.0923 -0.3306 0.9393
vn -0.7889 -0.5998 -0.1336
vn 0.7891 0.5996 0.1335
vn 0.6076 -0.7286 -0.3161
vn -0.6075 0.7287 0.3161
vn -0.7890 -0.5997 -0.1335
vn 0.7889 0.5999 0.1336
vn 0.6076 -0.7286 -0.3162
vn -0.6076 0.7286 0.3162
v 8.439169 1.090458 3.144503
v 8.466813 1.094964 3.133759
v 8.433299 1.168291 3.162043
v 8.460944 1.172797 3.151298
v 8.440694 1.089755 3.148134
v 8.468339 1.094261 3.137389
v 8.434825 1.167588 3.165673
v 8.462469 1.172094 3.154928
vn 0.3814 -0.1758 0.9076
vn -0.3814 0.1758 -0.9076
vn -0.0734 0.9729 0.2193
vn 0.0734 -0.9729 -0.2193
vn 0.9215 0.1503 -0.3580
vn -0.9215 -0.1502 0.3583
vn 0.3814 -0.1758 0.9075
vn -0.0734 0.9729 0.2192
vn 0.0734 -0.9729 -0.2192
vn 0.9215 0.1502 -0.3582
vn -0.9215 -0.1502 0.3580
v -9.290965 8.909812 5.358474
v -9.292853 8.905431 5.328856
v -9.301688 8.988333 5.347545
v -9.303576 8.983952 5.317926
v -9.287009 8.910307 5.358149
v -9.288898 8.905926 5.328530
v -9.297732 8.988828 5.347219
v -9.299621 8.984447 5.317601
vn 0.9890 0.1237 -0.0814
vn -0.9890 -0.1237 0.0813
vn -0.1341 0.9815 -0.1366
vn 0.1341 -0.9815 0.1367
vn -0.0630 -0.1460 -0.9873
vn 0.0632 0.1460 0.9873
vn -0.9890 -0.1237 0.0814
vn -0.1341 0.9815 -0.1367
vn 0.1341 -0.9815 0.1366
vn -0.0626 -0.1460 -0.9873
vn 0.0626 0.1460 0.9873
v 8.739389 -14.494513 8.306034
v 8.754598 -14.498543 8.280490
v 8.675384 -14.529785 8.273492
v 8.690591 -14.533815 8.247949
v 8.738107 -14.490963 8.304709
v 8.753314 -14.494993 8.279166
v 8.674100 -14.526236 8.272168
v 8.689308 -14.530266 8.246624
vn -0.3208 0.8875 -0.3310
vn 0.3207 -0.8874 0.3310
vn -0.8000 -0.4410 -0.4068
vn 0.8001 0.4409 0.4068
vn 0.5069 -0.1347 -0.8514
vn -0.5068 0.1343 0.8515
vn -0.3207 0.8874 -0.3310
vn 0.3208 -0.8874 0.3310
vn -0.8001 -0.4409 -0.4067
vn 0.8000 0.4410 0.4068
vn 0.5069 -0.1343 -0.8515
vn -0.5069 0.1345 0.8514
v -12.512150 -17.772144 6.484764
v -12.532985 -17.760941 6.466313
v -12.523664 -17.710917 6.534947
v -12.544499 -17.699713 6.516497
v -12.509330 -17.770048 6.482852
v -12.530165 -17.758844 6.464402
v -12.520844 -17.708820 6.533036
v -12.541679 -17.697617 6.514586
vn 0.7050 0.5241 -0.4778
vn -0.7050 -0.5241 0.4777
vn -0.1439 0.7657 0.6269
vn 0.1438 -0.7653 -0.6274
vn -0.6943 0.3738 -0.6150
vn 0.6944 -0.3734 0.6151
vn 0.7049 0.5242 -0.4778
vn -0.7050 -0.5242 0.4778
vn -0.1437 0.7651 0.6276
vn 0.1439 -0.7659 -0.6267
vn -0.6946 0.3730 -0.6152
vn 0.6945 -0.3736 0.6149
v 16.096249 17.155199 7.790388
v 16.081587 17.180361 7.783179
v 16.146084 17.197464 7.836544
v 16.131422 17.222624 7.829334
v 16.098692 17.155729 7.787266
v 16.084030 17.180889 7.780056
v 16.148527 17.197992 7.833421
v 16.133865 17.223154 7.826212
vn 0.6108 0.1323 -0.7807
vn -0.6108 -0.1323 0.7807
vn 0.6227 0.5283 0.5772
vn -0.6232 -0.5283 -0.5767
vn -0.4889 0.8388 -0.2396
vn 0.4885 -0.8388 0.2406
vn 0.6108 0.1322 -0.7806
vn -0.6108 -0.1322 0.7806
vn 0.6233 0.5284 0.5765
vn -0.6228 -0.5285 -0.5769
vn -0.4887 0.8388 -0.2402
vn 0.4891 -0.8386 0.2399
v -0.979979 -9.188318 3.092848
v -0.985496 -9.160330 3.083564
v -0.980873 -9.163292 3.168827
v -0.986390 -9.135303 3.159543
v -0.976047 -9.187606 3.092659
v -0.981565 -9.159616 3.083375
v -0.976941 -9.162579 3.168638
v -0.982459 -9.134590 3.159354
vn 0.9829 0.1781 -0.0471
vn -0.9829 -0.1781 0.0471
vn -0.0112 0.3128 0.9497
vn 0.0112 -0.3128 -0.9497
vn -0.1839 0.9330 -0.3094
vn 0.1842 -0.9329 0.3095
vn -0.1842 0.9329 -0.3095
vn 0.1839 -0.9330 0.3095
v -21.370712 -12.115275 7.078933
v -21.376822 -12.110703 7.049919
v -21.423532 -12.058635 7.098980
v -21.429642 -12.054063 7.069967
v -21.367821 -12.112517 7.078759
v -21.373930 -12.107945 7.049745
v -21.420641 -12.055877 7.098806
v -21.426750 -12.051305 7.069793
vn 0.7229 0.6895 -0.0436
vn -0.7229 -0.6895 0.0436
vn -0.6605 0.7078 0.2507
vn 0.6603 -0.7079 -0.2506
vn -0.2037 0.1525 -0.9671
vn 0.2037 -0.1524 0.9671
vn 0.7229 0.6896 -0.0436
vn -0.7229 -0.6896 0.0436
vn -0.6601 0.7082 0.2505
vn 0.6606 -0.7077 -0.2506
vn -0.2036 0.1524 -0.9671
vn 0.2036 -0.1524 0.9671
v -20.302128 -1.711081 6.070124
v -20.285379 -1.718509 6.046369
v -20.348904 -1.666307 6.023140
v -20.332153 -1.673736 5.999386
v -20.299774 -1.707917 6.070794
v -20.283024 -1.715346 6.047040
v -20.346548 -1.663144 6.023811
v -20.329800 -1.670573 6.000056
vn 0.5886 0.7908 0.1677
vn -0.5886 -0.7909 -0.1677
vn -0.5846 0.5601 -0.5870
vn 0.5847 -0.5594 0.5875
vn 0.5583 -0.2478 -0.7918
vn -0.5583 0.2471 0.7920
vn 0.5885 0.7909 0.1677
vn -0.5846 0.5597 -0.5873
vn 0.5846 -0.5601 0.5870
vn 0.5582 -0.2474 -0.7920
vn -0.5581 0.2481 0.7918
v -10.698217 19.728073 5.954796
v -10.682791 19.709244 5.937262
v -10.680932 19.788418 5.905201
v -10.665505 19.769588 5.887667
v -10.694898 19.728844 5.956890
v -10.679471 19.710014 5.939356
v -10.677612 19.789188 5.907295
v -10.662186 19.770359 5.889760
vn 0.8300 0.1925 0.5235
vn -0.8300 -0.1925 -0.5235
vn 0.2160 0.7543 -0.6200
vn -0.2161 -0.7543 0.6199
vn 0.5143 -0.6276 -0.5844
vn -0.5143 0.6277 0.5843
vn 0.2161 0.7544 -0.6198
vn -0.2159 -0.7542 0.6201
vn 0.5142 -0.6280 -0.5842
vn -0.5142 0.6277 0.5844
v -4.529428 18.651049 6.124956
v -4.558339 18.644691 6.120085
v -4.508272 18.583759 6.087214
v -4.537183 18.577400 6.082344
v -4.529574 18.649059 6.128422
v -4.558486 18.642700 6.123552
v -4.508418 18.581768 6.090681
v -4.537329 18.575411 6.085810
vn -0.0366 -0.4976 0.8666
vn 0.0365 0.4976 -0.8667
vn 0.2643 -0.8407 -0.4725
vn -0.2643 0.8407 0.4726
vn -0.9637 -0.2120 -0.1622
vn 0.9637 0.2119 0.1622
vn 0.0366 0.4976 -0.8667
vn 0.2646 -0.8415 -0.4711
vn -0.2646 0.8415 0.4711
vn -0.9637 -0.2119 -0.1624
vn 0.9637 0.2120 0.1624
v 0.044750 4.990334 6.544526
v 0.042186 4.832390 6.458230
v 1.092952 4.817452 6.829804
v 1.090389 4.659508 6.743507
v 0.031119 4.969942 6.582253
v 0.028555 4.811998 6.495957
v 1.079321 4.797060 6.867531
v 1.076758 4.639116 6.781235
vn -0.3029 -0.4532 0.8384
vn 0.3029 0.4532 -0.8384
vn 0.9529 -0.1572 0.2593
vn -0.9529 0.1572 -0.2593
vn -0.0142 -0.8775 -0.4794
vn 0.0142 0.8775 0.4794
v 4.559082 5.063709 7.663181
v 4.406243 5.023795 7.576885
v 4.673826 4.007560 7.948459
v 4.520987 3.967646 7.862163
v 4.535779 5.071368 7.700909
v 4.382941 5.031454 7.614612
v 4.650524 4.015219 7.986187
v 4.497685 3.975305 7.899890
vn -0.5178 0.1702 0.8384
vn 0.5178 -0.1702 -0.8384
vn 0.1043 -0.9601 0.2594
vn -0.1043 0.9601 -0.2593
vn -0.8491 -0.2217 -0.4794
vn 0.8491 0.2218 0.4794
vn 0.1043 -0.9601 0.2593
vn -0.1043 0.9601 -0.2594
vn 0.8491 0.2217 0.4794
v -3.090133 -6.863623 7.714467
v -3.151103 -7.009347 7.628170
v -2.180845 -7.412996 7.999744
v -2.241814 -7.558720 7.913448
v -3.110356 -6.877504 7.752194
v -3.171325 -7.023228 7.665897
v -2.201067 -7.426877 8.037472
v -2.262037 -7.572601 7.951175
vn -0.4494 -0.3085 0.8384
vn 0.4494 0.3085 -0.8384
vn 0.8266 -0.4994 0.2593
vn -0.8266 0.4994 -0.2593
vn -0.3387 -0.8096 -0.4794
vn 0.3387 0.8096 0.4794
v -2.726793 -7.195072 5.638596
v -2.804342 -7.057453 5.552299
v -3.718820 -7.575201 5.923874
v -3.796370 -7.437582 5.837577
v -2.725325 -7.170588 5.676323
v -2.802875 -7.032969 5.590027
v -3.717353 -7.550716 5.961601
v -3.794903 -7.413097 5.875305
vn 0.0326 0.5441 0.8384
vn -0.0326 -0.5441 -0.8384
vn -0.9018 -0.3456 0.2593
vn 0.9018 0.3456 -0.2593
vn -0.4308 0.7646 -0.4794
vn 0.4308 -0.7646 0.4794
vn -0.4308 0.7645 -0.4794
v 8.153358 5.852444 4.457685
v 8.263457 5.739171 4.371388
v 9.015540 6.473136 4.742962
v 9.125640 6.359862 4.656666
v 8.158187 5.828396 4.495412
v 8.268287 5.715122 4.409115
v 9.020370 6.449088 4.780690
v 9.130469 6.335814 4.694393
vn 0.1073 -0.5344 0.8384
vn -0.1073 0.5344 -0.8384
vn 0.7838 0.5643 0.2593
vn -0.7838 -0.5643 -0.2593
vn 0.6117 -0.6293 -0.4794
vn -0.6117 0.6293 0.4794
v -12.990132 -5.428114 6.566043
v -13.108275 -5.323257 6.479747
v -13.804259 -6.110619 6.851321
v -13.922403 -6.005762 6.765025
v -12.996719 -5.404487 6.603771
v -13.114863 -5.299630 6.517474
v -13.810847 -6.086992 6.889049
v -13.928990 -5.982135 6.802752
vn -0.1464 0.5251 0.8384
vn 0.1464 -0.5251 -0.8384
vn -0.7401 -0.6205 0.2594
vn 0.7401 0.6205 -0.2593
vn -0.6564 0.5825 -0.4794
vn 0.6563 -0.5825 0.4795
vn 0.1464 -0.5250 -0.8384
vn -0.7401 -0.6205 0.2593
vn -0.6563 0.5825 -0.4795
vn 0.6564 -0.5825 0.4794
v -4.664238 -6.885951 3.896825
v -4.529965 -6.969160 3.810529
v -3.978212 -6.074788 4.182103
v -3.843939 -6.157997 4.095807
v -4.653724 -6.908111 3.934553
v -4.519451 -6.991320 3.848256
v -3.967697 -6.096948 4.219831
v -3.833425 -6.180157 4.133534
vn 0.2336 -0.4925 0.8384
vn -0.2336 0.4925 -0.8384
vn 0.6237 0.7374 0.2594
vn -0.6237 -0.7374 -0.2593
vn 0.7460 -0.4623 -0.4794
vn -0.7460 0.4623 0.4794
vn 0.2337 -0.4925 0.8384
vn -0.2337 0.4925 -0.8384
vn 0.6237 0.7374 0.2593
vn 0.7459 -0.4623 -0.4794
usemtl growth
s 0
f 1//1 4//1 3//1
f 5//2 8//2 6//2
f 1//3 6//3 2//3
f 3//4 8//4 7//4
f 1//5 7//5 5//5
f 6//6 4//6 2//6
f 1//7 2//7 4//7
f 5//8 7//8 8//8
f 1//9 5//9 6//9
f 3//10 4//10 8//10
f 1//11 3//11 7//11
f 6//12 8//12 4//12
f 9//13 12//13 11//13
f 15//14 14//14 13//14
f 13//15 10//15 9//15
f 11//16 16//16 15//16
f 9//17 15//17 13//17
f 14//18 12//18 10//18
f 9//19 10//19 12//19
f 15//20 16//20 14//20
f 13//21 14//21 10//21
f 11//22 12//22 16//22
f 9//23 11//23 15//23
f 14//24 16//24 12//24
f 18//25 19//25 17//25
f 23//26 22//26 21//26
f 17//27 22//27 18//27
f 19//28 24//28 23//28
f 19//29 21//29 17//29
f 18//30 24//30 20//30
f 18//25 20//25 19//25
f 23//31 24//31 22//31
f 17//32 21//32 22//32
f 19//33 20//33 24//33
f 19//34 23//34 21//34
f 18//35 22//35 24//35
f 26//36 27//36 25//36
f 31//37 30//37 29//37
f 29//38 26//38 25//38
f 27//39 32//39 31//39
f 25//40 31//40 29//40
f 26//41 32//41 28//41
f 26//42 28//42 27//42
f 31//37 32//37 30//37
f 29//43 30//43 26//43
f 27//44 28//44 32//44
f 25//40 27//40 31//40
f 26//41 30//41 32//41
f 34//45 35//45 33//45
f 37//46 40//46 38//46
f 37//47 34//47 33//47
f 36//48 39//48 35//48
f 35//49 37//49 33//49
f 34//50 40//50 36//50
f 34//51 36//51 35//51
f 37//52 39//52 40//52
f 37//53 38//53 34//53
f 36//54 40//54 39//54
f 35//55 39//55 37//55
f 34//56 38//56 40//56
f 41//57 44//57 43//57
f 45//58 48//58 46//58
f 41//59 46//59 42//59
f 43//60 48//60 47//60
f 43//61 45//61 41//61
f 46//62 44//62 42//62
f 41//57 42//57 44//57
f 45//58 47//58 48//58
f 41//63 45//63 46//63
f 43//64 44//64 48//64
f 43//65 47//65 45//65
f 46//66 48//66 44//66
f 50//67 51//67 49//67
f 53//68 56//68 54//68
f 49//69 54//69 50//69
f 51//70 56//70 55//70
f 51//71 53//71 49//71
f 54//72 52//72 50//72
f 50//67 52//67 51//67
f 53//68 55//68 56//68
f 49//73 53//73 54//73
f 51//74 52//74 56//74
f 51//75 55//75 53//75
f 54//76 56//76 52//76
f 58//77 59//77 57//77
f 61//78 64//78 62//78
f 61//79 58//79 57//79
f 59//80 64//80 63//80
f 57//81 63//81 61//81
f 58//82 64//82 60//82
f 58//77 60//77 59//77
f 61//78 63//78 64//78
f 61//83 62//83 58//83
f 59//84 60//84 64//84
f 57//85 59//85 63//85
f 58//86 62//86 64//86
f 66//87 67//87 65//87
f 71//88 70//88 69//88
f 69//89 66//89 65//89
f 68//90 71//90 67//90
f 67//91 69//91 65//91
f 66//92 72//92 68//92
f 66//93 68//93 67//93
f 71//88 72//88 70//88
f 69//94 70//94 66//94
f 68//95 72//95 71//95
f 67//96 71//96 69//96
f 66//97 70//97 72//97
f 73//98 76//98 75//98
f 77//99 80//99 78//99
f 77//100 74//100 73//100
f 76//101 79//101 75//101
f 75//102 77//102 73//102
f 78//103 76//103 74//103
f 73//104 74//104 76//104
f 77//105 79//105 80//105
f 77//106 78//106 74//106
f 76//107 80//107 79//107
f 75//108 79//108 77//108
f 78//109 80//109 76//109
f 81//110 84//110 83//110
f 85//111 88//111 86//111
f 81//112 86//112 82//112
f 83//113 88//113 87//113
f 83//114 85//114 81//114
f 82//115 88//115 84//115
f 81//110 82//110 84//110
f 85//116 87//116 88//116
f 81//117 85//117 86//117
f 83//118 84//118 88//118
f 83//119 87//119 85//119
f 82//120 86//120 88//120
f 90//121 91//121 89//121
f 93//122 96//122 94//122
f 93//123 90//123 89//123
f 91//124 96//124 95//124
f 91//125 93//125 89//125
f 94//126 92//126 90//126
f 90//121 92//121 91//121
f 93//127 95//127 96//127
f 93//128 94//128 90//128
f 91//129 92//129 96//129
f 91//130 95//130 93//130
f 94//131 96//131 92//131
f 97//132 100//132 99//132
f 103//133 102//133 101//133
f 97//134 102//134 98//134
f 99//135 104//135 103//135
f 97//136 103//136 101//136
f 98//137 104//137 100//137
f 97//138 98//138 100//138
f 103//139 104//139 102//139
f 97//140 101//140 102//140
f 99//141 100//141 104//141
f 97//142 99//142 103//142
f 98//143 102//143 104//143
f 106//144 107//144 105//144
f 111//145 110//145 109//145
f 105//146 110//146 106//146
f 107//147 112//147 111//147
f 105//148 111//148 109//148
f 106//149 112//149 108//149
f 106//150 108//150 107//150
f 111//145 112//145 110//145
f 105//151 109//151 110//151
f 107//152 108//152 112//152
f 105//153 107//153 111//153
f 106//154 110//154 112//154
f 113//155 116//155 115//155
f 117//156 120//156 118//156
f 117//157 114//157 113//157
f 116//158 119//158 115//158
f 115//159 117//159 113//159
f 114//160 120//160 116//160
f 113//161 114//161 116//161
f 117//162 119//162 120//162
f 117//163 118//163 114//163
f 116//164 120//164 119//164
f 115//165 119//165 117//165
f 114//166 118//166 120//166
f 122//167 123//167 121//167
f 125//168 128//168 126//168
f 121//169 126//169 122//169
f 123//170 128//170 127//170
f 123//171 125//171 121//171
f 126//172 124//172 122//172
f 122//173 124//173 123//173
f 125//168 127//168 128//168
f 121//174 125//174 126//174
f 123//175 124//175 128//175
f 123//176 127//176 125//176
f 126//177 128//177 124//177
f 130//178 131//178 129//178
f 135//179 134//179 133//179
f 133//180 130//180 129//180
f 132//181 135//181 131//181
f 129//182 135//182 133//182
f 134//183 132//183 130//183
f 130//178 132//178 131//178
f 135//179 136//179 134//179
f 133//184 134//184 130//184
f 132//185 136//185 135//185
f 129//186 131//186 135//186
f 134//187 136//187 132//187
f 137//188 140//188 139//188
f 143//189 142//189 141//189
f 137//190 142//190 138//190
f 139//191 144//191 143//191
f 139//192 141//192 137//192
f 142//193 140//193 138//193
f 137//194 138//194 140//194
f 143//195 144//195 142//195
f 137//196 141//196 142//196
f 139//197 140//197 144//197
f 139//198 143//198 141//198
f 142//199 144//199 140//199
f 146//200 147//200 145//200
f 149//201 152//201 150//201
f 149//202 146//202 145//202
f 148//203 151//203 147//203
f 145//204 151//204 149//204
f 146//205 152//205 148//205
f 146//200 148//200 147//200
f 149//201 151//201 152//201
f 149//202 150//202 146//202
f 148//206 152//206 151//206
f 145//207 147//207 151//207
f 146//208 150//208 152//208
f 153//209 156//209 155//209
f 157//210 160//210 158//210
f 157//211 154//211 153//211
f 155//212 160//212 159//212
f 153//213 159//213 157//213
f 158//214 156//214 154//214
f 153//215 154//215 156//215
f 157//216 159//216 160//216
f 157//217 158//217 154//217
f 155//218 156//218 160//218
f 153//219 155//219 159//219
f 158//220 160//220 156//220
f 161//221 164//221 163//221
f 165//222 168//222 166//222
f 161//223 166//223 162//223
f 164//224 167//224 163//224
f 161//225 167//225 165//225
f 162//226 168//226 164//226
f 161//227 162//227 164//227
f 165//222 167//222 168//222
f 161//228 165//228 166//228
f 164//229 168//229 167//229
f 161//230 163//230 167//230
f 162//231 166//231 168//231
f 170//232 171//232 169//232
f 173//233 176//233 174//233
f 173//234 170//234 169//234
f 172//235 175//235 171//235
f 169//236 175//236 173//236
f 170//237 176//237 172//237
f 170//238 172//238 171//238
f 173//239 175//239 176//239
f 173//240 174//240 170//240
f 172//241 176//241 175//241
f 169//242 171//242 175//242
f 170//243 174//243 176//243
f 178//244 179//244 177//244
f 181//245 184//245 182//245
f 181//246 178//246 177//246
f 180//247 183//247 179//247
f 177//248 183//248 181//248
f 182//249 180//249 178//249
f 178//250 180//250 179//250
f 181//251 183//251 184//251
f 181//252 182//252 178//252
f 180//253 184//253 183//253
f 177//254 179//254 183//254
f 182//255 184//255 180//255
f 185//256 188//256 187//256
f 189//257 192//257 190//257
f 189//258 186//258 185//258
f 188//259 191//259 187//259
f 187//260 189//260 185//260
f 190//261 188//261 186//261
f 185//262 186//262 188//262
f 189//263 191//263 192//263
f 189//264 190//264 186//264
f 188//265 192//265 191//265
f 187//266 191//266 189//266
f 190//267 192//267 188//267
f 194//268 195//268 193//268
f 199//269 198//269 197//269
f 193//270 198//270 194//270
f 196//271 199//271 195//271
f 195//272 197//272 193//272
f 198//273 196//273 194//273
f 194//268 196//268 195//268
f 199//274 200//274 198//274
f 193//275 197//275 198//275
f 196//276 200//276 199//276
f 195//277 199//277 197//277
f 198//278 200//278 196//278
f 202//279 203//279 201//279
f 207//280 206//280 205//280
f 205//281 202//281 201//281
f 204//282 207//282 203//282
f 201//283 207//283 205//283
f 206//284 204//284 202//284
f 202//279 204//279 203//279
f 207//285 208//285 206//285
f 205//286 206//286 202//286
f 204//287 208//287 207//287
f 201//288 203//288 207//288
f 206//289 208//289 204//289
f 210//290 211//290 209//290
f 215//291 214//291 213//291
f 209//292 214//292 210//292
f 211//293 216//293 215//293
f 209//294 215//294 213//294
f 214//295 212//295 210//295
f 210//290 212//290 211//290
f 215//296 216//296 214//296
f 209//297 213//297 214//297
f 211//298 212//298 216//298
f 209//299 211//299 215//299
f 214//300 216//300 212//300
f 218//301 219//301 217//301
f 223//302 222//302 221//302
f 221//303 218//303 217//303
f 220//304 223//304 219//304
f 217//305 223//305 221//305
f 218//306 224//306 220//306
f 218//301 220//301 219//301
f 223//302 224//302 222//302
f 221//307 222//307 218//307
f 220//308 224//308 223//308
f 217//305 219//305 223//305
f 218//309 222//309 224//309
f 226//310 227//310 225//310
f 229//311 232//311 230//311
f 225//312 230//312 226//312
f 227//313 232//313 231//313
f 225//314 231//314 229//314
f 226//315 232//315 228//315
f 226//310 228//310 227//310
f 229//311 231//311 232//311
f 225//316 229//316 230//316
f 227//317 228//317 232//317
f 225//318 227//318 231//318
f 226//319 230//319 232//319
f 234//320 235//320 233//320
f 239//321 238//321 237//321
f 233//322 238//322 234//322
f 236//323 239//323 235//323
f 235//324 237//324 233//324
f 238//325 236//325 234//325
f 234//320 236//320 235//320
f 239//326 240//326 238//326
f 233//327 237//327 238//327
f 236//328 240//328 239//328
f 235//329 239//329 237//329
f 238//330 240//330 236//330
f 242//331 243//331 241//331
f 247//332 246//332 245//332
f 241//333 246//333 242//333
f 244//334 247//334 243//334
f 241//335 247//335 245//335
f 242//336 248//336 244//336
f 242//331 244//331 243//331
f 247//332 248//332 246//332
f 241//337 245//337 246//337
f 244//338 248//338 247//338
f 241//339 243//339 247//339
f 242//340 246//340 248//340
f 249//341 252//341 251//341
f 255//342 254//342 253//342
f 253//343 250//343 249//343
f 251//344 256//344 255//344
f 249//345 255//345 253//345
f 254//346 252//346 250//346
f 249//341 250//341 252//341
f 255//342 256//342 254//342
f 253//343 254//343 250//343
f 251//347 252//347 256//347
f 249//348 251//348 255//348
f 254//349 256//349 252//349
f 258//350 259//350 257//350
f 263//351 262//351 261//351
f 257//352 262//352 258//352
f 260//353 263//353 259//353
f 259//354 261//354 257//354
f 262//355 260//355 258//355
f 258//350 260//350 259//350
f 263//356 264//356 262//356
f 257//357 261//357 262//357
f 260//358 264//358 263//358
f 259//359 263//359 261//359
f 262//355 264//355 260//355
f 265//360 268//360 267//360
f 271//361 270//361 269//361
f 269//362 266//362 265//362
f 267//363 272//363 271//363
f 265//364 271//364 269//364
f 266//365 272//365 268//365
f 265//366 266//366 268//366
f 271//367 272//367 270//367
f 269//368 270//368 266//368
f 267//363 268//363 272//363
f 265//364 267//364 271//364
f 266//365 270//365 272//365
f 274//369 275//369 273//369
f 279//370 278//370 277//370
f 273//371 278//371 274//371
f 275//372 280//372 279//372
f 275//373 277//373 273//373
f 278//374 276//374 274//374
f 274//369 276//369 275//369
f 279//370 280//370 278//370
f 273//375 277//375 278//375
f 275//376 276//376 280//376
f 275//377 279//377 277//377
f 278//378 280//378 276//378
f 281//379 284//379 283//379
f 287//380 286//380 285//380
f 281//381 286//381 282//381
f 283//382 288//382 287//382
f 281//383 287//383 285//383
f 282//384 288//384 284//384
f 281//379 282//379 284//379
f 287//380 288//380 286//380
f 281//385 285//385 286//385
f 283//386 284//386 288//386
f 281//387 283//387 287//387
f 282//384 286//384 288//384
f 289//388 292//388 291//388
f 293//389 296//389 294//389
f 293//390 290//390 289//390
f 292//391 295//391 291//391
f 291//392 293//392 289//392
f 290//393 296//393 292//393
f 289//388 290//388 292//388
f 293//389 295//389 296//389
f 293//394 294//394 290//394
f 292//395 296//395 295//395
f 291//396 295//396 293//396
f 290//397 294//397 296//397
f 297//398 300//398 299//398
f 301//399 304//399 302//399
f 297//400 302//400 298//400
f 299//401 304//401 303//401
f 299//402 301//402 297//402
f 302//403 300//403 298//403
f 297//404 298//404 300//404
f 301//405 303//405 304//405
f 297//406 301//406 302//406
f 299//407 300//407 304//407
f 299//402 303//402 301//402
f 302//408 304//408 300//408
f 306//409 307//409 305//409
f 309//410 312//410 310//410
f 309//411 306//411 305//411
f 307//412 312//412 311//412
f 307//413 309//413 305//413
f 306//414 312//414 308//414
f 306//415 308//415 307//415
f 309//410 311//410 312//410
f 309//416 310//416 306//416
f 307//417 308//417 312//417
f 307//418 311//418 309//418
f 306//419 310//419 312//419
f 314//420 315//420 313//420
f 319//421 318//421 317//421
f 313//422 318//422 314//422
f 316//423 319//423 315//423
f 315//424 317//424 313//424
f 318//425 316//425 314//425
f 314//426 316//426 315//426
f 319//427 320//427 318//427
f 313//428 317//428 318//428
f 316//429 320//429 319//429
f 315//430 319//430 317//430
f 318//431 320//431 316//431
f 321//432 324//432 323//432
f 325//433 328//433 326//433
f 325//434 322//434 321//434
f 323//435 328//435 327//435
f 323//436 325//436 321//436
f 326//437 324//437 322//437
f 321//438 322//438 324//438
f 325//439 327//439 328//439
f 325//440 326//440 322//440
f 323//441 324//441 328//441
f 323//442 327//442 325//442
f 326//443 328//443 324//443
f 330//444 331//444 329//444
f 335//445 334//445 333//445
f 329//446 334//446 330//446
f 331//447 336//447 335//447
f 331//448 333//448 329//448
f 330//449 336//449 332//449
f 330//444 332//444 331//444
f 335//445 336//445 334//445
f 329//450 333//450 334//450
f 331//451 332//451 336//451
f 331//452 335//452 333//452
f 330//453 334//453 336//453
f 337//454 340//454 339//454
f 341//455 344//455 342//455
f 337//456 342//456 338//456
f 339//457 344//457 343//457
f 337//458 343//458 341//458
f 338//459 344//459 340//459
f 337//454 338//454 340//454
f 341//455 343//455 344//455
f 337//460 341//460 342//460
f 339//461 340//461 344//461
f 337//462 339//462 343//462
f 338//463 342//463 344//463
f 345//464 348//464 347//464
f 351//465 350//465 349//465
f 345//466 350//466 346//466
f 347//467 352//467 351//467
f 347//468 349//468 345//468
f 350//469 348//469 346//469
f 345//464 346//464 348//464
f 351//465 352//465 350//465
f 345//470 349//470 350//470
f 347//471 348//471 352//471
f 347//472 351//472 349//472
f 350//473 352//473 348//473
f 353//474 356//474 355//474
f 357//475 360//475 358//475
f 353//476 358//476 354//476
f 355//477 360//477 359//477
f 353//478 359//478 357//478
f 358//479 356//479 354//479
f 353//474 354//474 356//474
f 357//480 359//480 360//480
f 353//481 357//481 358//481
f 355//482 356//482 360//482
f 353//483 355//483 359//483
f 358//484 360//484 356//484
f 362//485 363//485 361//485
f 367//486 366//486 365//486
f 361//487 366//487 362//487
f 363//488 368//488 367//488
f 363//489 365//489 361//489
f 366//490 364//490 362//490
f 362//485 364//485 363//485
f 367//486 368//486 366//486
f 361//491 365//491 366//491
f 363//492 364//492 368//492
f 363//493 367//493 365//493
f 366//494 368//494 364//494
f 370//495 371//495 369//495
f 375//496 374//496 373//496
f 373//497 370//497 369//497
f 371//498 376//498 375//498
f 369//499 375//499 373//499
f 370//500 376//500 372//500
f 370//495 372//495 371//495
f 375//496 376//496 374//496
f 373//501 374//501 370//501
f 371//502 372//502 376//502
f 369//503 371//503 375//503
f 370//500 374//500 376//500
f 377//504 380//504 379//504
f 381//505 384//505 382//505
f 377//506 382//506 378//506
f 380//507 383//507 379//507
f 379//508 381//508 377//508
f 382//509 380//509 378//509
f 377//510 378//510 380//510
f 381//511 383//511 384//511
f 377//512 381//512 382//512
f 380//513 384//513 383//513
f 379//514 383//514 381//514
f 382//515 384//515 380//515
f 386//516 387//516 385//516
f 391//517 390//517 389//517
f 389//518 386//518 385//518
f 388//519 391//519 387//519
f 387//520 389//520 385//520
f 386//521 392//521 388//521
f 386//516 388//516 387//516
f 391//522 392//522 390//522
f 389//523 390//523 386//523
f 388//524 392//524 391//524
f 387//525 391//525 389//525
f 386//526 390//526 392//526
f 394//527 395//527 393//527
f 397//528 400//528 398//528
f 393//529 398//529 394//529
f 395//530 400//530 399//530
f 393//531 399//531 397//531
f 394//532 400//532 396//532
f 394//533 396//533 395//533
f 397//534 399//534 400//534
f 393//535 397//535 398//535
f 395//536 396//536 400//536
f 393//537 395//537 399//537
f 394//538 398//538 400//538
f 401//539 404//539 403//539
f 405//540 408//540 406//540
f 401//541 406//541 402//541
f 403//542 408//542 407//542
f 401//543 407//543 405//543
f 406//544 404//544 402//544
f 401//545 402//545 404//545
f 405//546 407//546 408//546
f 401//547 405//547 406//547
f 403//542 404//542 408//542
f 401//548 403//548 407//548
f 406//549 408//549 404//549
f 410//550 411//550 409//550
f 413//551 416//551 414//551
f 413//552 410//552 409//552
f 412//553 415//553 411//553
f 411//554 413//554 409//554
f 414//555 412//555 410//555
f 410//550 412//550 411//550
f 413//551 415//551 416//551
f 413//556 414//556 410//556
f 412//553 416//553 415//553
f 411//557 415//557 413//557
f 414//555 416//555 412//555
f 417//558 420//558 419//558
f 421//559 424//559 422//559
f 417//560 422//560 418//560
f 419//561 424//561 423//561
f 417//562 423//562 421//562
f 418//563 424//563 420//563
f 417//564 418//564 420//564
f 421//565 423//565 424//565
f 417//566 421//566 422//566
f 419//567 420//567 424//567
f 417//568 419//568 423//568
f 418//569 422//569 424//569
f 425//570 428//570 427//570
f 431//571 430//571 429//571
f 425//572 430//572 426//572
f 427//573 432//573 431//573
f 425//574 431//574 429//574
f 430//575 428//575 426//575
f 425//576 426//576 428//576
f 431//577 432//577 430//577
f 425//578 429//578 430//578
f 427//579 428//579 432//579
f 425//580 427//580 431//580
f 430//581 432//581 428//581
f 434//582 435//582 433//582
f 437//583 440//583 438//583
f 433//584 438//584 434//584
f 435//585 440//585 439//585
f 435//586 437//586 433//586
f 438//587 436//587 434//587
f 434//588 436//588 435//588
f 437//589 439//589 440//589
f 433//590 437//590 438//590
f 435//591 436//591 440//591
f 435//592 439//592 437//592
f 438//593 440//593 436//593
f 442//594 443//594 441//594
f 447//595 446//595 445//595
f 441//596 446//596 442//596
f 443//597 448//597 447//597
f 441//598 447//598 445//598
f 446//599 444//599 442//599
f 442//594 444//594 443//594
f 447//595 448//595 446//595
f 441//600 445//600 446//600
f 443//601 444//601 448//601
f 441//602 443//602 447//602
f 446//603 448//603 444//603
f 450//604 451//604 449//604
f 455//605 454//605 453//605
f 453//606 450//606 449//606
f 451//607 456//607 455//607
f 449//608 455//608 453//608
f 454//609 452//609 450//609
f 450//604 452//604 451//604
f 455//605 456//605 454//605
f 453//610 454//610 450//610
f 451//611 452//611 456//611
f 449//608 451//608 455//608
f 454//609 456//609 452//609
f 457//612 460//612 459//612
f 463//613 462//613 461//613
f 457//614 462//614 458//614
f 459//615 464//615 463//615
f 459//616 461//616 457//616
f 462//617 460//617 458//617
f 457//618 458//618 460//618
f 463//619 464//619 462//619
f 457//620 461//620 462//620
f 459//621 460//621 464//621
f 459//622 463//622 461//622
f 462//617 464//617 460//617
f 466//623 467//623 465//623
f 471//624 470//624 469//624
f 465//625 470//625 466//625
f 468//626 471//626 467//626
f 467//627 469//627 465//627
f 470//628 468//628 466//628
f 466//629 468//629 467//629
f 471//630 472//630 470//630
f 465//631 469//631 470//631
f 468//632 472//632 471//632
f 467//633 471//633 469//633
f 470//634 472//634 468//634
f 474//635 475//635 473//635
f 479//636 478//636 477//636
f 477//637 474//637 473//637
f 476//638 479//638 475//638
f 475//639 477//639 473//639
f 474//640 480//640 476//640
f 474//635 476//635 475//635
f 479//636 480//636 478//636
f 477//641 478//641 474//641
f 476//642 480//642 479//642
f 475//643 479//643 477//643
f 474//644 478//644 480//644
f 481//645 484//645 483//645
f 487//646 486//646 485//646
f 481//647 486//647 482//647
f 483//648 488//648 487//648
f 483//649 485//649 481//649
f 486//650 484//650 482//650
f 481//651 482//651 484//651
f 487//646 488//646 486//646
f 481//652 485//652 486//652
f 483//653 484//653 488//653
f 483//654 487//654 485//654
f 486//655 488//655 484//655
f 490//656 491//656 489//656
f 493//657 496//657 494//657
f 493//658 490//658 489//658
f 492//659 495//659 491//659
f 489//660 495//660 493//660
f 490//661 496//661 492//661
f 490//656 492//656 491//656
f 493//662 495//662 496//662
f 493//663 494//663 490//663
f 492//664 496//664 495//664
f 489//665 491//665 495//665
f 490//666 494//666 496//666
f 497//667 500//667 499//667
f 501//668 504//668 502//668
f 501//669 498//669 497//669
f 500//670 503//670 499//670
f 499//671 501//671 497//671
f 502//672 500//672 498//672
f 497//673 498//673 500//673
f 501//674 503//674 504//674
f 501//675 502//675 498//675
f 500//676 504//676 503//676
f 499//677 503//677 501//677
f 502//678 504//678 500//678
f 506//679 507//679 505//679
f 509//680 512//680 510//680
f 505//681 510//681 506//681
f 508//682 511//682 507//682
f 507//683 509//683 505//683
f 506//684 512//684 508//684
f 506//685 508//685 507//685
f 509//686 511//686 512//686
f 505//687 509//687 510//687
f 508//688 512//688 511//688
f 507//689 511//689 509//689
f 506//690 510//690 512//690
f 513//691 516//691 515//691
f 517//692 520//692 518//692
f 517//693 514//693 513//693
f 515//694 520//694 519//694
f 515//695 517//695 513//695
f 518//696 516//696 514//696
f 513//697 514//697 516//697
f 517//698 519//698 520//698
f 517//699 518//699 514//699
f 515//700 516//700 520//700
f 515//701 519//701 517//701
f 518//702 520//702 516//702
f 522//703 523//703 521//703
f 527//704 526//704 525//704
f 525//705 522//705 521//705
f 524//706 527//706 523//706
f 523//707 525//707 521//707
f 526//708 524//708 522//708
f 522//703 524//703 523//703
f 527//704 528//704 526//704
f 525//705 526//705 522//705
f 524//706 528//706 527//706
f 523//709 527//709 525//709
f 526//710 528//710 524//710
f 529//711 532//711 531//711
f 535//712 534//712 533//712
f 529//713 534//713 530//713
f 532//714 535//714 531//714
f 531//715 533//715 529//715
f 530//716 536//716 532//716
f 529//717 530//717 532//717
f 535//718 536//718 534//718
f 529//719 533//719 534//719
f 532//720 536//720 535//720
f 531//721 535//721 533//721
f 530//722 534//722 536//722
f 538//723 539//723 537//723
f 541//724 544//724 542//724
f 541//725 538//725 537//725
f 540//726 543//726 539//726
f 539//727 541//727 537//727
f 538//728 544//728 540//728
f 538//729 540//729 539//729
f 541//724 543//724 544//724
f 541//730 542//730 538//730
f 540//731 544//731 543//731
f 539//732 543//732 541//732
f 538//733 542//733 544//733
f 545//734 548//734 547//734
f 549//735 552//735 550//735
f 549//736 546//736 545//736
f 548//737 551//737 547//737
f 547//738 549//738 545//738
f 550//739 548//739 546//739
f 545//734 546//734 548//734
f 549//735 551//735 552//735
f 549//740 550//740 546//740
f 548//741 552//741 551//741
f 547//742 551//742 549//742
f 550//743 552//743 548//743
f 554//744 555//744 553//744
f 557//745 560//745 558//745
f 553//746 558//746 554//746
f 555//747 560//747 559//747
f 555//748 557//748 553//748
f 554//749 560//749 556//749
f 554//744 556//744 555//744
f 557//750 559//750 560//750
f 553//751 557//751 558//751
f 555//752 556//752 560//752
f 555//753 559//753 557//753
f 554//754 558//754 560//754
f 562//755 563//755 561//755
f 567//756 566//756 565//756
f 561//757 566//757 562//757
f 564//758 567//758 563//758
f 561//759 567//759 565//759
f 562//760 568//760 564//760
f 562//755 564//755 563//755
f 567//756 568//756 566//756
f 561//757 565//757 566//757
f 564//758 568//758 567//758
f 561//759 563//759 567//759
f 562//760 566//760 568//760
f 570//761 571//761 569//761
f 573//762 576//762 574//762
f 569//763 574//763 570//763
f 571//764 576//764 575//764
f 571//765 573//765 569//765
f 574//766 572//766 570//766
f 570//761 572//761 571//761
f 573//762 575//762 576//762
f 569//767 573//767 574//767
f 571//768 572//768 576//768
f 571//765 575//765 573//765
f 574//769 576//769 572//769
f 577//770 580//770 579//770
f 583//771 582//771 581//771
f 581//772 578//772 577//772
f 580//773 583//773 579//773
f 579//774 581//774 577//774
f 582//775 580//775 578//775
f 577//770 578//770 580//770
f 583//771 584//771 582//771
f 581//772 582//772 578//772
f 580//773 584//773 583//773
f 579//774 583//774 581//774
f 582//775 584//775 580//775
f 586//776 587//776 585//776
f 589//777 592//777 590//777
f 589//778 586//778 585//778
f 587//779 592//779 591//779
f 585//780 591//780 589//780
f 590//781 588//781 586//781
f 586//776 588//776 587//776
f 589//777 591//777 592//777
f 589//778 590//778 586//778
f 587//779 588//779 592//779
f 585//782 587//782 591//782
f 590//781 592//781 588//781
f 594//783 595//783 593//783
f 597//784 600//784 598//784
f 597//785 594//785 593//785
f 596//786 599//786 595//786
f 595//787 597//787 593//787
f 594//788 600//788 596//788
f 594//783 596//783 595//783
f 597//784 599//784 600//784
f 597//785 598//785 594//785
f 596//786 600//786 599//786
f 595//787 599//787 597//787
f 594//788 598//788 600//788
f 602//789 603//789 601//789
f 607//790 606//790 605//790
f 605//791 602//791 601//791
f 603//792 608//792 607//792
f 603//793 605//793 601//793
f 606//794 604//794 602//794
f 602//789 604//789 603//789
f 607//795 608//795 606//795
f 605//796 606//796 602//796
f 603//792 604//792 608//792
f 603//797 607//797 605//797
f 606//798 608//798 604//798
f 609//799 612//799 611//799
f 615//800 614//800 613//800
f 609//801 614//801 610//801
f 612//802 615//802 611//802
f 611//803 613//803 609//803
f 610//804 616//804 612//804
f 609//805 610//805 612//805
f 615//806 616//806 614//806
f 609//807 613//807 614//807
f 612//802 616//802 615//802
f 611//808 615//808 613//808
f 610//804 614//804 616//804
